G04*
G04 #@! TF.GenerationSoftware,Altium Limited,Altium Designer,18.1.7 (191)*
G04*
G04 Layer_Color=16711935*
%FSLAX25Y25*%
%MOIN*%
G70*
G01*
G75*
%ADD10C,0.00800*%
%ADD18C,0.00500*%
%ADD78C,0.00000*%
%ADD79C,0.00200*%
%ADD80C,0.02800*%
%ADD81C,0.00394*%
G36*
X73224Y37799D02*
X72035Y39015D01*
X69851Y41623D01*
X67875Y44392D01*
X66120Y47306D01*
X64596Y50347D01*
X63311Y53497D01*
X62274Y56736D01*
X61490Y60047D01*
X60966Y63408D01*
X60702Y66799D01*
X60702Y70201D01*
X60966Y73592D01*
X61490Y76953D01*
X62274Y80264D01*
X63311Y83503D01*
X64596Y86653D01*
X66120Y89694D01*
X67875Y92608D01*
X69851Y95377D01*
X72035Y97985D01*
X73224Y99201D01*
X73224D01*
X79012D01*
X79012Y99194D01*
X77693Y98044D01*
X75212Y95577D01*
X72956Y92903D01*
X70942Y90041D01*
X69187Y87014D01*
X67703Y83846D01*
X66502Y80559D01*
X65594Y77180D01*
X64984Y73735D01*
X64678Y70249D01*
Y66751D01*
X64984Y63265D01*
X65594Y59820D01*
X66502Y56441D01*
X67703Y53154D01*
X69187Y49986D01*
X70942Y46959D01*
X72956Y44097D01*
X75212Y41423D01*
X77693Y38956D01*
X79012Y37806D01*
X79012Y37806D01*
Y37799D01*
X73224Y37799D01*
D02*
G37*
G36*
X135976Y37799D02*
X136549Y38385D01*
X137650Y39598D01*
X138706Y40851D01*
X139714Y42143D01*
X140193Y42807D01*
Y42807D01*
X140195Y42806D01*
X154161D01*
Y52358D01*
X141155D01*
Y52356D01*
X140675Y51312D01*
X139628Y49267D01*
X138465Y47286D01*
X137190Y45375D01*
X135807Y43540D01*
X134321Y41788D01*
X132737Y40124D01*
X131060Y38554D01*
X130188Y37806D01*
D01*
Y37799D01*
X135976Y37799D01*
D02*
G37*
G36*
X141155Y84644D02*
X140675Y85688D01*
X139628Y87733D01*
X138465Y89714D01*
X137190Y91625D01*
X135807Y93460D01*
X134321Y95212D01*
X132737Y96876D01*
X131060Y98446D01*
X130188Y99194D01*
Y99194D01*
Y99187D01*
X135976D01*
Y99201D01*
X136549Y98615D01*
X137650Y97403D01*
X138705Y96150D01*
X139713Y94858D01*
X140192Y94194D01*
D01*
X154161D01*
Y84642D01*
X141155Y84644D01*
D02*
G37*
D10*
X37811Y94605D02*
G03*
X37811Y94605I-300J0D01*
G01*
D18*
X23098Y94302D02*
X35302D01*
X23098Y82098D02*
X35302D01*
X23098D02*
Y94302D01*
X35302D01*
Y82098D02*
Y94302D01*
D78*
X900Y39500D02*
G03*
X3300Y39500I1200J0D01*
G01*
X-700Y31100D02*
X4900D01*
Y32200D01*
Y33300D01*
Y34700D01*
Y35900D01*
Y37300D01*
X3300Y39500D02*
X4900D01*
X900D02*
X3300D01*
X-700D02*
X900D01*
X-700Y38400D02*
Y39500D01*
Y37300D02*
Y38400D01*
Y35900D02*
Y37300D01*
Y34700D02*
Y35900D01*
Y33300D02*
Y34700D01*
X-2600Y38400D02*
X-700D01*
X-2600Y37300D02*
Y38400D01*
Y37300D02*
X-700D01*
X-2600Y35900D02*
X-700D01*
X-2600Y34700D02*
Y35900D01*
Y34700D02*
X-700D01*
Y31100D02*
Y32200D01*
Y33300D01*
X-2600D02*
X-700D01*
X-2600Y32200D02*
Y33300D01*
Y32200D02*
X-700D01*
X4900D02*
X6800D01*
Y33300D01*
X4900D02*
X6800D01*
X4900Y34700D02*
X6800D01*
Y35900D01*
X4900D02*
X6800D01*
X4900Y38400D02*
Y39500D01*
Y37300D02*
Y38400D01*
Y37300D02*
X6800D01*
Y38400D01*
X4900D02*
X6800D01*
D79*
X73224Y99201D02*
G03*
X73224Y37799I31376J-30701D01*
G01*
X79012Y99194D02*
G03*
X79012Y37806I25588J-30694D01*
G01*
X135976Y37799D02*
G03*
X140193Y42807I-31376J30701D01*
G01*
X130188Y37806D02*
G03*
X141155Y52356I-25588J30694D01*
G01*
X140192Y94194D02*
G03*
X135976Y99201I-35592J-25694D01*
G01*
X141155Y84644D02*
G03*
X130188Y99194I-36555J-16144D01*
G01*
X7374Y40494D02*
Y52306D01*
X-8374Y40494D02*
X7374D01*
X-8375Y52305D02*
X7373D01*
X-8375Y40494D02*
Y52305D01*
X130188Y99187D02*
X135976D01*
X154161Y84642D02*
Y94194D01*
X141150Y84642D02*
X154161D01*
X73224Y99201D02*
X130188D01*
X73224Y37799D02*
X130188D01*
X140192Y94194D02*
X154161D01*
X140195Y42806D02*
X154161D01*
X130188Y37799D02*
X135976D01*
X141155Y52358D02*
X154161D01*
Y42806D02*
Y52358D01*
X6100Y55400D02*
X7300D01*
X6700Y54800D02*
Y56000D01*
X4732Y56384D02*
X8669D01*
X4732Y54416D02*
X8669D01*
X4732Y54416D02*
Y56384D01*
X8669Y54416D02*
Y56384D01*
X14831Y25216D02*
Y27184D01*
X18768Y25216D02*
Y27184D01*
X14831Y27184D02*
X18768D01*
X14831Y25216D02*
X18768D01*
X16800Y25600D02*
Y26800D01*
X16200Y26200D02*
X17400D01*
X14831Y29216D02*
Y31184D01*
X18768Y29216D02*
Y31184D01*
X14831Y31184D02*
X18768D01*
X14831Y29216D02*
X18768D01*
X16800Y29600D02*
Y30800D01*
X16200Y30200D02*
X17400D01*
X-9384Y25332D02*
X-7416D01*
X-9384Y29269D02*
X-7416D01*
X-9384Y25332D02*
Y29269D01*
X-7416Y25332D02*
Y29269D01*
X-9000Y27300D02*
X-7800D01*
X-8400Y26700D02*
Y27900D01*
X-9284Y33132D02*
X-7316D01*
X-9284Y37069D02*
X-7316D01*
X-9284Y33132D02*
Y37069D01*
X-7316Y33132D02*
Y37069D01*
X-8900Y35100D02*
X-7700D01*
X-8300Y34500D02*
Y35700D01*
X27450Y38525D02*
Y41675D01*
X33750Y38525D02*
Y41675D01*
X27450D02*
X33750D01*
X27450Y38525D02*
X33750D01*
X29600Y40100D02*
X31600D01*
X30600Y39100D02*
Y41100D01*
X23122Y50443D02*
X38477D01*
Y43356D02*
Y50443D01*
X23122Y43356D02*
X38477D01*
X23122D02*
Y50443D01*
X29799Y46900D02*
X31799D01*
X30799Y45900D02*
Y47900D01*
X457Y90322D02*
Y105677D01*
X7543D01*
Y90322D02*
Y105677D01*
X457Y90322D02*
X7543D01*
X4000Y96999D02*
Y98999D01*
X3000Y97999D02*
X5000D01*
X457Y71822D02*
Y87177D01*
X7543D01*
Y71822D02*
Y87177D01*
X457Y71822D02*
X7543D01*
X4000Y78499D02*
Y80499D01*
X3000Y79499D02*
X5000D01*
X20400Y84000D02*
Y85200D01*
X19800Y84600D02*
X21000D01*
X19416Y82631D02*
Y86568D01*
X21384Y82631D02*
Y86568D01*
X19416D02*
X21384D01*
X19416Y82631D02*
X21384D01*
X20400Y91300D02*
Y92500D01*
X19800Y91900D02*
X21000D01*
X19416Y89931D02*
Y93868D01*
X21384Y89931D02*
Y93868D01*
X19416D02*
X21384D01*
X19416Y89931D02*
X21384D01*
X20669Y96816D02*
Y98784D01*
X16732Y96816D02*
Y98784D01*
Y98784D02*
X20669D01*
X16732Y96816D02*
X20669D01*
X18700Y97200D02*
Y98400D01*
X18100Y97800D02*
X19300D01*
X18100Y78600D02*
X19300D01*
X18700Y78000D02*
Y79200D01*
X16732Y79584D02*
X20669D01*
X16732Y77616D02*
X20669D01*
Y77616D02*
Y79584D01*
X16732Y77616D02*
Y79584D01*
X16700Y91300D02*
Y92500D01*
X16100Y91900D02*
X17300D01*
X15716Y89931D02*
Y93868D01*
X17684Y89931D02*
Y93868D01*
X15716D02*
X17684D01*
X15716Y89931D02*
X17684D01*
X16700Y84013D02*
Y85213D01*
X16100Y84612D02*
X17300D01*
X15716Y82644D02*
Y86581D01*
X17684Y82644D02*
Y86581D01*
X15716D02*
X17684D01*
X15716Y82644D02*
X17684D01*
X16732Y73316D02*
Y75284D01*
X20669Y73316D02*
Y75284D01*
X16732Y73316D02*
X20669D01*
X16732Y75284D02*
X20669D01*
X18700Y73700D02*
Y74900D01*
X18100Y74300D02*
X19300D01*
X15616Y138331D02*
X17584D01*
X15616Y142269D02*
X17584D01*
X15616Y138331D02*
Y142269D01*
X17584Y138331D02*
Y142269D01*
X16000Y140300D02*
X17200D01*
X16600Y139700D02*
Y140900D01*
X43031Y101416D02*
Y103384D01*
X46968Y101416D02*
Y103384D01*
X43031Y103384D02*
X46968D01*
X43031Y101416D02*
X46968D01*
X45000Y101800D02*
Y103000D01*
X44400Y102400D02*
X45600D01*
X47218Y76916D02*
Y78884D01*
X43281Y76916D02*
Y78884D01*
Y76916D02*
X47218D01*
X43281Y78884D02*
X47218D01*
X45250Y77300D02*
Y78500D01*
X44650Y77900D02*
X45850D01*
X16769Y130316D02*
Y132284D01*
X12832Y130316D02*
Y132284D01*
Y130316D02*
X16769D01*
X12832Y132284D02*
X16769D01*
X14800Y130700D02*
Y131900D01*
X14200Y131300D02*
X15400D01*
X16769Y144716D02*
Y146684D01*
X12832Y144716D02*
Y146684D01*
Y144716D02*
X16769D01*
X12832Y146684D02*
X16769D01*
X14800Y145100D02*
Y146300D01*
X14200Y145700D02*
X15400D01*
X6168Y132916D02*
Y134884D01*
X2231Y132916D02*
Y134884D01*
Y132916D02*
X6168D01*
X2231Y134884D02*
X6168D01*
X4200Y133300D02*
Y134500D01*
X3600Y133900D02*
X4800D01*
X12016Y138331D02*
X13984D01*
X12016Y142269D02*
X13984D01*
X12016Y138331D02*
Y142269D01*
X13984Y138331D02*
Y142269D01*
X12400Y140300D02*
X13600D01*
X13000Y139700D02*
Y140900D01*
X46968Y105516D02*
Y107484D01*
X43031Y105516D02*
Y107484D01*
Y105516D02*
X46968D01*
X43031Y107484D02*
X46968D01*
X45000Y105900D02*
Y107100D01*
X44400Y106500D02*
X45600D01*
X46968Y97316D02*
Y99284D01*
X43031Y97316D02*
Y99284D01*
Y97316D02*
X46968D01*
X43031Y99284D02*
X46968D01*
X45000Y97700D02*
Y98900D01*
X44400Y98300D02*
X45600D01*
X47218Y73236D02*
Y75204D01*
X43281Y73236D02*
Y75204D01*
Y73236D02*
X47218D01*
X43281Y75204D02*
X47218D01*
X45250Y73620D02*
Y74820D01*
X44650Y74220D02*
X45850D01*
X47218Y69556D02*
Y71524D01*
X43281Y69556D02*
Y71524D01*
Y69556D02*
X47218D01*
X43281Y71524D02*
X47218D01*
X45250Y69940D02*
Y71140D01*
X44650Y70540D02*
X45850D01*
X47218Y65876D02*
Y67844D01*
X43281Y65876D02*
Y67844D01*
Y65876D02*
X47218D01*
X43281Y67844D02*
X47218D01*
X45250Y66260D02*
Y67460D01*
X44650Y66860D02*
X45850D01*
X47218Y62196D02*
Y64164D01*
X43281Y62196D02*
Y64164D01*
Y62196D02*
X47218D01*
X43281Y64164D02*
X47218D01*
X45250Y62580D02*
Y63780D01*
X44650Y63180D02*
X45850D01*
X47218Y58516D02*
Y60484D01*
X43281Y58516D02*
Y60484D01*
Y58516D02*
X47218D01*
X43281Y60484D02*
X47218D01*
X45250Y58900D02*
Y60100D01*
X44650Y59500D02*
X45850D01*
D80*
X142600Y68500D02*
G03*
X142600Y68500I-38000J0D01*
G01*
D81*
X27457Y24098D02*
X34543D01*
X27457Y36302D02*
X34543D01*
Y24098D02*
Y36302D01*
X27457Y24098D02*
Y36302D01*
M02*
