M48
;Layer_Color=9474304
;FILE_FORMAT=2:5
INCH,TZ
;TYPE=PLATED
T1F00S00C0.01200
T2F00S00C0.01575
T4F00S00C0.02800
%
T01
X-5000Y30700
X-6200Y40400
X-3500Y46200
X-4100Y54500
X-7400Y56200
X15000Y54700
Y64000
X11000
X19000
X23000
X34500Y54100
X24064Y40100
X10800Y39700
X9400Y31000
X14500Y32000
X12000Y24500
X31460Y26460
X29035Y31000
X31500Y70200
X27900Y74100
X24000Y71000
X23814Y79200
X13112Y86612
X9800Y84600
X7100Y77451
X3000
X-1800Y77200
X4900Y66600
X12500Y72000
X13000Y93400
X12800Y96800
X26200Y95200
X26000Y102000
X21676Y105600
X22000Y109000
X26600Y109400
X26500Y113500
X21500Y121500
X16400Y126000
X13800Y123900
X11100Y121600
X9604Y110904
X-1202Y102400
X-1700Y98600
X3300Y133900
X9000Y132000
Y136000
Y140000
Y144000
X14000Y149000
X21000
X29100Y150935
X33600Y151400
X42000Y150935
X43400Y154000
X42500Y124600
X39500
Y121500
Y117400
X28000Y135000
Y138200
T02
X95311Y116311
X42505Y91392
X43091Y82307
T04
X-500Y42900
Y49900
M30
