G04*
G04 #@! TF.GenerationSoftware,Altium Limited,Altium Designer,18.1.7 (191)*
G04*
G04 Layer_Physical_Order=1*
G04 Layer_Color=255*
%FSLAX25Y25*%
%MOIN*%
G70*
G01*
G75*
%ADD11C,0.00600*%
%ADD15C,0.01000*%
%ADD16C,0.01500*%
G04:AMPARAMS|DCode=19|XSize=23.62mil|YSize=59.06mil|CornerRadius=5.91mil|HoleSize=0mil|Usage=FLASHONLY|Rotation=180.000|XOffset=0mil|YOffset=0mil|HoleType=Round|Shape=RoundedRectangle|*
%AMROUNDEDRECTD19*
21,1,0.02362,0.04724,0,0,180.0*
21,1,0.01181,0.05906,0,0,180.0*
1,1,0.01181,-0.00591,0.02362*
1,1,0.01181,0.00591,0.02362*
1,1,0.01181,0.00591,-0.02362*
1,1,0.01181,-0.00591,-0.02362*
%
%ADD19ROUNDEDRECTD19*%
G04:AMPARAMS|DCode=20|XSize=39.37mil|YSize=39.37mil|CornerRadius=9.84mil|HoleSize=0mil|Usage=FLASHONLY|Rotation=180.000|XOffset=0mil|YOffset=0mil|HoleType=Round|Shape=RoundedRectangle|*
%AMROUNDEDRECTD20*
21,1,0.03937,0.01968,0,0,180.0*
21,1,0.01968,0.03937,0,0,180.0*
1,1,0.01968,-0.00984,0.00984*
1,1,0.01968,0.00984,0.00984*
1,1,0.01968,0.00984,-0.00984*
1,1,0.01968,-0.00984,-0.00984*
%
%ADD20ROUNDEDRECTD20*%
G04:AMPARAMS|DCode=21|XSize=40mil|YSize=74mil|CornerRadius=10mil|HoleSize=0mil|Usage=FLASHONLY|Rotation=180.000|XOffset=0mil|YOffset=0mil|HoleType=Round|Shape=RoundedRectangle|*
%AMROUNDEDRECTD21*
21,1,0.04000,0.05400,0,0,180.0*
21,1,0.02000,0.07400,0,0,180.0*
1,1,0.02000,-0.01000,0.02700*
1,1,0.02000,0.01000,0.02700*
1,1,0.02000,0.01000,-0.02700*
1,1,0.02000,-0.01000,-0.02700*
%
%ADD21ROUNDEDRECTD21*%
G04:AMPARAMS|DCode=22|XSize=110mil|YSize=140mil|CornerRadius=27.5mil|HoleSize=0mil|Usage=FLASHONLY|Rotation=0.000|XOffset=0mil|YOffset=0mil|HoleType=Round|Shape=RoundedRectangle|*
%AMROUNDEDRECTD22*
21,1,0.11000,0.08500,0,0,0.0*
21,1,0.05500,0.14000,0,0,0.0*
1,1,0.05500,0.02750,-0.04250*
1,1,0.05500,-0.02750,-0.04250*
1,1,0.05500,-0.02750,0.04250*
1,1,0.05500,0.02750,0.04250*
%
%ADD22ROUNDEDRECTD22*%
G04:AMPARAMS|DCode=23|XSize=110mil|YSize=100mil|CornerRadius=25mil|HoleSize=0mil|Usage=FLASHONLY|Rotation=0.000|XOffset=0mil|YOffset=0mil|HoleType=Round|Shape=RoundedRectangle|*
%AMROUNDEDRECTD23*
21,1,0.11000,0.05000,0,0,0.0*
21,1,0.06000,0.10000,0,0,0.0*
1,1,0.05000,0.03000,-0.02500*
1,1,0.05000,-0.03000,-0.02500*
1,1,0.05000,-0.03000,0.02500*
1,1,0.05000,0.03000,0.02500*
%
%ADD23ROUNDEDRECTD23*%
G04:AMPARAMS|DCode=24|XSize=20mil|YSize=20mil|CornerRadius=5mil|HoleSize=0mil|Usage=FLASHONLY|Rotation=270.000|XOffset=0mil|YOffset=0mil|HoleType=Round|Shape=RoundedRectangle|*
%AMROUNDEDRECTD24*
21,1,0.02000,0.01000,0,0,270.0*
21,1,0.01000,0.02000,0,0,270.0*
1,1,0.01000,-0.00500,-0.00500*
1,1,0.01000,-0.00500,0.00500*
1,1,0.01000,0.00500,0.00500*
1,1,0.01000,0.00500,-0.00500*
%
%ADD24ROUNDEDRECTD24*%
G04:AMPARAMS|DCode=25|XSize=23.62mil|YSize=50mil|CornerRadius=5.91mil|HoleSize=0mil|Usage=FLASHONLY|Rotation=90.000|XOffset=0mil|YOffset=0mil|HoleType=Round|Shape=RoundedRectangle|*
%AMROUNDEDRECTD25*
21,1,0.02362,0.03819,0,0,90.0*
21,1,0.01181,0.05000,0,0,90.0*
1,1,0.01181,0.01909,0.00591*
1,1,0.01181,0.01909,-0.00591*
1,1,0.01181,-0.01909,-0.00591*
1,1,0.01181,-0.01909,0.00591*
%
%ADD25ROUNDEDRECTD25*%
G04:AMPARAMS|DCode=26|XSize=51.18mil|YSize=35.43mil|CornerRadius=8.86mil|HoleSize=0mil|Usage=FLASHONLY|Rotation=270.000|XOffset=0mil|YOffset=0mil|HoleType=Round|Shape=RoundedRectangle|*
%AMROUNDEDRECTD26*
21,1,0.05118,0.01772,0,0,270.0*
21,1,0.03347,0.03543,0,0,270.0*
1,1,0.01772,-0.00886,-0.01673*
1,1,0.01772,-0.00886,0.01673*
1,1,0.01772,0.00886,0.01673*
1,1,0.01772,0.00886,-0.01673*
%
%ADD26ROUNDEDRECTD26*%
G04:AMPARAMS|DCode=27|XSize=20mil|YSize=20mil|CornerRadius=5mil|HoleSize=0mil|Usage=FLASHONLY|Rotation=180.000|XOffset=0mil|YOffset=0mil|HoleType=Round|Shape=RoundedRectangle|*
%AMROUNDEDRECTD27*
21,1,0.02000,0.01000,0,0,180.0*
21,1,0.01000,0.02000,0,0,180.0*
1,1,0.01000,-0.00500,0.00500*
1,1,0.01000,0.00500,0.00500*
1,1,0.01000,0.00500,-0.00500*
1,1,0.01000,-0.00500,-0.00500*
%
%ADD27ROUNDEDRECTD27*%
G04:AMPARAMS|DCode=28|XSize=46mil|YSize=14mil|CornerRadius=3.5mil|HoleSize=0mil|Usage=FLASHONLY|Rotation=0.000|XOffset=0mil|YOffset=0mil|HoleType=Round|Shape=RoundedRectangle|*
%AMROUNDEDRECTD28*
21,1,0.04600,0.00700,0,0,0.0*
21,1,0.03900,0.01400,0,0,0.0*
1,1,0.00700,0.01950,-0.00350*
1,1,0.00700,-0.01950,-0.00350*
1,1,0.00700,-0.01950,0.00350*
1,1,0.00700,0.01950,0.00350*
%
%ADD28ROUNDEDRECTD28*%
G04:AMPARAMS|DCode=29|XSize=30mil|YSize=22mil|CornerRadius=5.5mil|HoleSize=0mil|Usage=FLASHONLY|Rotation=90.000|XOffset=0mil|YOffset=0mil|HoleType=Round|Shape=RoundedRectangle|*
%AMROUNDEDRECTD29*
21,1,0.03000,0.01100,0,0,90.0*
21,1,0.01900,0.02200,0,0,90.0*
1,1,0.01100,0.00550,0.00950*
1,1,0.01100,0.00550,-0.00950*
1,1,0.01100,-0.00550,-0.00950*
1,1,0.01100,-0.00550,0.00950*
%
%ADD29ROUNDEDRECTD29*%
G04:AMPARAMS|DCode=30|XSize=75mil|YSize=70mil|CornerRadius=17.5mil|HoleSize=0mil|Usage=FLASHONLY|Rotation=90.000|XOffset=0mil|YOffset=0mil|HoleType=Round|Shape=RoundedRectangle|*
%AMROUNDEDRECTD30*
21,1,0.07500,0.03500,0,0,90.0*
21,1,0.04000,0.07000,0,0,90.0*
1,1,0.03500,0.01750,0.02000*
1,1,0.03500,0.01750,-0.02000*
1,1,0.03500,-0.01750,-0.02000*
1,1,0.03500,-0.01750,0.02000*
%
%ADD30ROUNDEDRECTD30*%
G04:AMPARAMS|DCode=31|XSize=30mil|YSize=40mil|CornerRadius=7.5mil|HoleSize=0mil|Usage=FLASHONLY|Rotation=180.000|XOffset=0mil|YOffset=0mil|HoleType=Round|Shape=RoundedRectangle|*
%AMROUNDEDRECTD31*
21,1,0.03000,0.02500,0,0,180.0*
21,1,0.01500,0.04000,0,0,180.0*
1,1,0.01500,-0.00750,0.01250*
1,1,0.01500,0.00750,0.01250*
1,1,0.01500,0.00750,-0.01250*
1,1,0.01500,-0.00750,-0.01250*
%
%ADD31ROUNDEDRECTD31*%
G04:AMPARAMS|DCode=32|XSize=30mil|YSize=30mil|CornerRadius=7.5mil|HoleSize=0mil|Usage=FLASHONLY|Rotation=180.000|XOffset=0mil|YOffset=0mil|HoleType=Round|Shape=RoundedRectangle|*
%AMROUNDEDRECTD32*
21,1,0.03000,0.01500,0,0,180.0*
21,1,0.01500,0.03000,0,0,180.0*
1,1,0.01500,-0.00750,0.00750*
1,1,0.01500,0.00750,0.00750*
1,1,0.01500,0.00750,-0.00750*
1,1,0.01500,-0.00750,-0.00750*
%
%ADD32ROUNDEDRECTD32*%
G04:AMPARAMS|DCode=33|XSize=30mil|YSize=40mil|CornerRadius=7.5mil|HoleSize=0mil|Usage=FLASHONLY|Rotation=270.000|XOffset=0mil|YOffset=0mil|HoleType=Round|Shape=RoundedRectangle|*
%AMROUNDEDRECTD33*
21,1,0.03000,0.02500,0,0,270.0*
21,1,0.01500,0.04000,0,0,270.0*
1,1,0.01500,-0.01250,-0.00750*
1,1,0.01500,-0.01250,0.00750*
1,1,0.01500,0.01250,0.00750*
1,1,0.01500,0.01250,-0.00750*
%
%ADD33ROUNDEDRECTD33*%
G04:AMPARAMS|DCode=34|XSize=30mil|YSize=30mil|CornerRadius=7.5mil|HoleSize=0mil|Usage=FLASHONLY|Rotation=270.000|XOffset=0mil|YOffset=0mil|HoleType=Round|Shape=RoundedRectangle|*
%AMROUNDEDRECTD34*
21,1,0.03000,0.01500,0,0,270.0*
21,1,0.01500,0.03000,0,0,270.0*
1,1,0.01500,-0.00750,-0.00750*
1,1,0.01500,-0.00750,0.00750*
1,1,0.01500,0.00750,0.00750*
1,1,0.01500,0.00750,-0.00750*
%
%ADD34ROUNDEDRECTD34*%
G04:AMPARAMS|DCode=35|XSize=39.37mil|YSize=70mil|CornerRadius=9.84mil|HoleSize=0mil|Usage=FLASHONLY|Rotation=270.000|XOffset=0mil|YOffset=0mil|HoleType=Round|Shape=RoundedRectangle|*
%AMROUNDEDRECTD35*
21,1,0.03937,0.05031,0,0,270.0*
21,1,0.01968,0.07000,0,0,270.0*
1,1,0.01968,-0.02516,-0.00984*
1,1,0.01968,-0.02516,0.00984*
1,1,0.01968,0.02516,0.00984*
1,1,0.01968,0.02516,-0.00984*
%
%ADD35ROUNDEDRECTD35*%
G04:AMPARAMS|DCode=36|XSize=106.3mil|YSize=110.24mil|CornerRadius=26.57mil|HoleSize=0mil|Usage=FLASHONLY|Rotation=0.000|XOffset=0mil|YOffset=0mil|HoleType=Round|Shape=RoundedRectangle|*
%AMROUNDEDRECTD36*
21,1,0.10630,0.05709,0,0,0.0*
21,1,0.05315,0.11024,0,0,0.0*
1,1,0.05315,0.02657,-0.02854*
1,1,0.05315,-0.02657,-0.02854*
1,1,0.05315,-0.02657,0.02854*
1,1,0.05315,0.02657,0.02854*
%
%ADD36ROUNDEDRECTD36*%
G04:AMPARAMS|DCode=37|XSize=11.81mil|YSize=23.62mil|CornerRadius=2.95mil|HoleSize=0mil|Usage=FLASHONLY|Rotation=90.000|XOffset=0mil|YOffset=0mil|HoleType=Round|Shape=RoundedRectangle|*
%AMROUNDEDRECTD37*
21,1,0.01181,0.01772,0,0,90.0*
21,1,0.00591,0.02362,0,0,90.0*
1,1,0.00591,0.00886,0.00295*
1,1,0.00591,0.00886,-0.00295*
1,1,0.00591,-0.00886,-0.00295*
1,1,0.00591,-0.00886,0.00295*
%
%ADD37ROUNDEDRECTD37*%
G04:AMPARAMS|DCode=38|XSize=11.81mil|YSize=23.62mil|CornerRadius=2.95mil|HoleSize=0mil|Usage=FLASHONLY|Rotation=180.000|XOffset=0mil|YOffset=0mil|HoleType=Round|Shape=RoundedRectangle|*
%AMROUNDEDRECTD38*
21,1,0.01181,0.01772,0,0,180.0*
21,1,0.00591,0.02362,0,0,180.0*
1,1,0.00591,-0.00295,0.00886*
1,1,0.00591,0.00295,0.00886*
1,1,0.00591,0.00295,-0.00886*
1,1,0.00591,-0.00295,-0.00886*
%
%ADD38ROUNDEDRECTD38*%
G04:AMPARAMS|DCode=39|XSize=50mil|YSize=10mil|CornerRadius=2.5mil|HoleSize=0mil|Usage=FLASHONLY|Rotation=0.000|XOffset=0mil|YOffset=0mil|HoleType=Round|Shape=RoundedRectangle|*
%AMROUNDEDRECTD39*
21,1,0.05000,0.00500,0,0,0.0*
21,1,0.04500,0.01000,0,0,0.0*
1,1,0.00500,0.02250,-0.00250*
1,1,0.00500,-0.02250,-0.00250*
1,1,0.00500,-0.02250,0.00250*
1,1,0.00500,0.02250,0.00250*
%
%ADD39ROUNDEDRECTD39*%
G04:AMPARAMS|DCode=40|XSize=86mil|YSize=72mil|CornerRadius=18mil|HoleSize=0mil|Usage=FLASHONLY|Rotation=180.000|XOffset=0mil|YOffset=0mil|HoleType=Round|Shape=RoundedRectangle|*
%AMROUNDEDRECTD40*
21,1,0.08600,0.03600,0,0,180.0*
21,1,0.05000,0.07200,0,0,180.0*
1,1,0.03600,-0.02500,0.01800*
1,1,0.03600,0.02500,0.01800*
1,1,0.03600,0.02500,-0.01800*
1,1,0.03600,-0.02500,-0.01800*
%
%ADD40ROUNDEDRECTD40*%
G04:AMPARAMS|DCode=41|XSize=70mil|YSize=72mil|CornerRadius=17.5mil|HoleSize=0mil|Usage=FLASHONLY|Rotation=180.000|XOffset=0mil|YOffset=0mil|HoleType=Round|Shape=RoundedRectangle|*
%AMROUNDEDRECTD41*
21,1,0.07000,0.03700,0,0,180.0*
21,1,0.03500,0.07200,0,0,180.0*
1,1,0.03500,-0.01750,0.01850*
1,1,0.03500,0.01750,0.01850*
1,1,0.03500,0.01750,-0.01850*
1,1,0.03500,-0.01750,-0.01850*
%
%ADD41ROUNDEDRECTD41*%
%ADD68C,0.01575*%
%ADD69C,0.01400*%
%ADD70R,0.08517X0.02400*%
%ADD71O,0.03150X0.11811*%
%ADD72C,0.02000*%
%ADD73C,0.02362*%
G36*
X44402Y153880D02*
X44411Y153776D01*
X44426Y153676D01*
X44447Y153581D01*
X44475Y153491D01*
X44509Y153406D01*
X44550Y153325D01*
X44597Y153250D01*
X44651Y153179D01*
X44711Y153113D01*
X44287Y152689D01*
X44221Y152749D01*
X44150Y152803D01*
X44075Y152850D01*
X43994Y152891D01*
X43909Y152925D01*
X43819Y152953D01*
X43724Y152974D01*
X43624Y152989D01*
X43520Y152998D01*
X43410Y153000D01*
X44400Y153990D01*
X44402Y153880D01*
D02*
G37*
G36*
X30000Y152573D02*
X29500Y152283D01*
X29100Y152362D01*
X28554Y152253D01*
X28091Y151944D01*
X27781Y151481D01*
X27774Y151443D01*
X27231Y151278D01*
X26005Y152505D01*
X25773Y152659D01*
X25500Y152714D01*
X20200D01*
X19927Y152659D01*
X19695Y152505D01*
X16295Y149105D01*
X16141Y148873D01*
X16086Y148600D01*
Y147351D01*
X16067Y147308D01*
X16064Y147201D01*
X16058Y147122D01*
X16049Y147068D01*
X15949Y147048D01*
X15651Y146849D01*
X15452Y146551D01*
X15382Y146200D01*
Y145200D01*
X15452Y144849D01*
X15651Y144551D01*
X15949Y144352D01*
X16300Y144282D01*
X16980D01*
X17188Y143782D01*
X17119Y143714D01*
X17100Y143718D01*
X16100D01*
X15749Y143648D01*
X15451Y143449D01*
X15252Y143151D01*
X15182Y142800D01*
Y141800D01*
X15252Y141449D01*
X15451Y141151D01*
X15749Y140952D01*
X16100Y140882D01*
X17100D01*
X17451Y140952D01*
X17749Y141151D01*
X17948Y141449D01*
X18018Y141800D01*
Y142085D01*
X18036Y142125D01*
X18067Y142179D01*
X18108Y142239D01*
X18246Y142406D01*
X18334Y142498D01*
X18345Y142527D01*
X18372Y142543D01*
X18378Y142569D01*
X19979Y144170D01*
X20435Y144140D01*
X20481Y144092D01*
X20595Y143820D01*
X20559Y143767D01*
X20505Y143495D01*
Y142905D01*
X20559Y142633D01*
X20713Y142403D01*
Y141997D01*
X20559Y141767D01*
X20505Y141495D01*
Y140905D01*
X20559Y140633D01*
X20653Y140492D01*
X20666Y140375D01*
X20562Y140197D01*
X20344Y139933D01*
X20318Y139933D01*
X20274Y139914D01*
X19000D01*
X18727Y139859D01*
X18495Y139705D01*
X18195Y139405D01*
X17749Y139449D01*
X17451Y139648D01*
X17100Y139718D01*
X16100D01*
X15749Y139648D01*
X15451Y139449D01*
X15252Y139151D01*
X15232Y139050D01*
X15178Y139042D01*
X15099Y139035D01*
X14992Y139033D01*
X14949Y139014D01*
X14651D01*
X14608Y139033D01*
X14501Y139035D01*
X14422Y139042D01*
X14368Y139050D01*
X14348Y139151D01*
X14149Y139449D01*
X13851Y139648D01*
X13500Y139718D01*
X12500D01*
X12149Y139648D01*
X11851Y139449D01*
X11652Y139151D01*
X11582Y138800D01*
Y137800D01*
X11652Y137449D01*
X11851Y137151D01*
X12149Y136952D01*
X12500Y136882D01*
X13500D01*
X13851Y136952D01*
X14149Y137151D01*
X14348Y137449D01*
X14368Y137549D01*
X14422Y137558D01*
X14501Y137565D01*
X14608Y137567D01*
X14651Y137586D01*
X14949D01*
X14992Y137567D01*
X15099Y137565D01*
X15178Y137558D01*
X15232Y137549D01*
X15252Y137449D01*
X15451Y137151D01*
X15749Y136952D01*
X16100Y136882D01*
X17100D01*
X17451Y136952D01*
X17749Y137151D01*
X17948Y137449D01*
X17970Y137560D01*
X18028Y137566D01*
X18109Y137567D01*
X18196Y137605D01*
X18373Y137641D01*
X18605Y137795D01*
X19296Y138486D01*
X20268D01*
X20309Y138467D01*
X20344Y138466D01*
X20666Y138030D01*
X20653Y137908D01*
X20559Y137767D01*
X20505Y137495D01*
Y136905D01*
X20559Y136633D01*
X20713Y136404D01*
Y135996D01*
X20559Y135767D01*
X20505Y135495D01*
Y134905D01*
X20559Y134633D01*
X20713Y134404D01*
Y133996D01*
X20559Y133767D01*
X20505Y133495D01*
Y132905D01*
X20559Y132633D01*
X20713Y132404D01*
Y131997D01*
X20559Y131767D01*
X20505Y131495D01*
Y130905D01*
X20543Y130714D01*
X20541Y130710D01*
X20524Y130683D01*
X20436Y130575D01*
X20375Y130511D01*
X20358Y130467D01*
X18704Y128814D01*
X13796D01*
X13514Y129096D01*
Y129649D01*
X13533Y129692D01*
X13535Y129799D01*
X13542Y129878D01*
X13551Y129932D01*
X13651Y129952D01*
X13949Y130151D01*
X14148Y130449D01*
X14218Y130800D01*
Y131800D01*
X14148Y132151D01*
X13977Y132406D01*
X14366Y132725D01*
X15057Y132033D01*
X15073Y131991D01*
X15281Y131767D01*
X15347Y131685D01*
X15382Y131634D01*
Y131451D01*
X15382Y131449D01*
X15382Y131447D01*
Y130800D01*
X15452Y130449D01*
X15651Y130151D01*
X15949Y129952D01*
X16300Y129882D01*
X17300D01*
X17651Y129952D01*
X17949Y130151D01*
X18148Y130449D01*
X18218Y130800D01*
Y131800D01*
X18148Y132151D01*
X17949Y132449D01*
X17651Y132648D01*
X17300Y132718D01*
X16653D01*
X16651Y132719D01*
X16649Y132718D01*
X16465D01*
X16420Y132750D01*
X16227Y132913D01*
X16115Y133021D01*
X16071Y133039D01*
X14705Y134405D01*
X14473Y134559D01*
X14200Y134614D01*
X7851D01*
X7808Y134633D01*
X7701Y134635D01*
X7622Y134642D01*
X7568Y134651D01*
X7548Y134751D01*
X7349Y135049D01*
X7051Y135248D01*
X6700Y135318D01*
X6306D01*
Y154000D01*
X-10500D01*
Y108464D01*
X6270D01*
X6306Y108500D01*
Y132482D01*
X6700D01*
X7051Y132552D01*
X7349Y132751D01*
X7548Y133049D01*
X7568Y133150D01*
X7622Y133158D01*
X7701Y133165D01*
X7808Y133167D01*
X7851Y133186D01*
X12093D01*
X12142Y132686D01*
X11949Y132648D01*
X11651Y132449D01*
X11452Y132151D01*
X11382Y131800D01*
Y130800D01*
X11452Y130449D01*
X11651Y130151D01*
X11949Y129952D01*
X12049Y129932D01*
X12058Y129878D01*
X12065Y129799D01*
X12067Y129692D01*
X12086Y129649D01*
Y128800D01*
X12141Y128527D01*
X12295Y128295D01*
X12995Y127595D01*
X13227Y127441D01*
X13500Y127386D01*
X19000D01*
X19273Y127441D01*
X19505Y127595D01*
X21770Y129861D01*
X21814Y129878D01*
X21815Y129878D01*
X21815Y129879D01*
X21902Y129962D01*
X21942Y129996D01*
X22044Y130017D01*
X22198Y129994D01*
X22380Y129620D01*
X22383Y129594D01*
X22342Y129430D01*
X15295Y122384D01*
X15141Y122152D01*
X15086Y121879D01*
Y107900D01*
X15141Y107627D01*
X15295Y107395D01*
X25486Y97204D01*
Y96814D01*
X25468Y96773D01*
X25464Y96704D01*
X25458Y96655D01*
X25446Y96606D01*
X25430Y96557D01*
X25409Y96506D01*
X25381Y96454D01*
X25346Y96399D01*
X25304Y96342D01*
X25255Y96284D01*
X25188Y96214D01*
X25180Y96193D01*
X25006Y95933D01*
X24475Y96039D01*
X24474Y96048D01*
X24319Y96280D01*
X14514Y106085D01*
Y122286D01*
X14533Y122327D01*
X14536Y122396D01*
X14542Y122445D01*
X14554Y122494D01*
X14570Y122543D01*
X14591Y122594D01*
X14619Y122646D01*
X14654Y122701D01*
X14695Y122758D01*
X14745Y122816D01*
X14812Y122886D01*
X14820Y122907D01*
X15119Y123354D01*
X15227Y123900D01*
X15119Y124446D01*
X14809Y124909D01*
X14346Y125219D01*
X13800Y125327D01*
X13254Y125219D01*
X12791Y124909D01*
X12481Y124446D01*
X12373Y123900D01*
X12481Y123354D01*
X12780Y122907D01*
X12788Y122886D01*
X12855Y122816D01*
X12904Y122758D01*
X12946Y122701D01*
X12981Y122646D01*
X13009Y122594D01*
X13030Y122543D01*
X13046Y122494D01*
X13058Y122445D01*
X13064Y122396D01*
X13068Y122327D01*
X13086Y122286D01*
Y113562D01*
X12624Y113371D01*
X11814Y114181D01*
Y119986D01*
X11833Y120027D01*
X11836Y120096D01*
X11842Y120145D01*
X11853Y120194D01*
X11870Y120243D01*
X11891Y120294D01*
X11919Y120346D01*
X11954Y120401D01*
X11996Y120458D01*
X12045Y120516D01*
X12112Y120586D01*
X12120Y120607D01*
X12419Y121054D01*
X12527Y121600D01*
X12419Y122146D01*
X12109Y122609D01*
X11646Y122919D01*
X11100Y123027D01*
X10554Y122919D01*
X10091Y122609D01*
X9781Y122146D01*
X9673Y121600D01*
X9781Y121054D01*
X10080Y120607D01*
X10088Y120586D01*
X10155Y120516D01*
X10204Y120458D01*
X10246Y120401D01*
X10281Y120346D01*
X10309Y120294D01*
X10330Y120243D01*
X10346Y120194D01*
X10358Y120145D01*
X10364Y120096D01*
X10368Y120027D01*
X10386Y119986D01*
Y113886D01*
X10441Y113613D01*
X10595Y113381D01*
X12086Y111890D01*
Y105375D01*
X12141Y105102D01*
X12295Y104870D01*
X19786Y97379D01*
Y94296D01*
X13749Y88258D01*
X13707Y88243D01*
X13656Y88196D01*
X13616Y88166D01*
X13574Y88140D01*
X13528Y88116D01*
X13476Y88095D01*
X13420Y88078D01*
X13356Y88064D01*
X13287Y88053D01*
X13210Y88047D01*
X13114Y88045D01*
X13093Y88036D01*
X12566Y87931D01*
X12103Y87622D01*
X11794Y87159D01*
X11685Y86612D01*
X11794Y86066D01*
X12103Y85603D01*
X12566Y85294D01*
X13112Y85185D01*
X13658Y85294D01*
X14122Y85603D01*
X14431Y86066D01*
X14536Y86593D01*
X14545Y86614D01*
X14547Y86710D01*
X14553Y86787D01*
X14564Y86857D01*
X14578Y86920D01*
X14595Y86976D01*
X14616Y87028D01*
X14640Y87074D01*
X14666Y87116D01*
X14696Y87156D01*
X14743Y87207D01*
X14758Y87249D01*
X21005Y93495D01*
X21159Y93727D01*
X21214Y94000D01*
Y96713D01*
X21676Y96904D01*
X23100Y95480D01*
Y80814D01*
X23082Y80773D01*
X23079Y80704D01*
X23072Y80655D01*
X23061Y80606D01*
X23044Y80557D01*
X23023Y80506D01*
X22995Y80454D01*
X22961Y80399D01*
X22919Y80342D01*
X22869Y80284D01*
X22802Y80214D01*
X22794Y80193D01*
X22495Y79746D01*
X22387Y79200D01*
X22495Y78654D01*
X22805Y78191D01*
X23268Y77881D01*
X23814Y77773D01*
X24361Y77881D01*
X24824Y78191D01*
X25133Y78654D01*
X25242Y79200D01*
X25133Y79746D01*
X24835Y80193D01*
X24826Y80214D01*
X24759Y80284D01*
X24710Y80342D01*
X24668Y80399D01*
X24633Y80454D01*
X24606Y80506D01*
X24584Y80557D01*
X24568Y80606D01*
X24556Y80655D01*
X24550Y80704D01*
X24547Y80773D01*
X24528Y80814D01*
Y94283D01*
X25028Y94434D01*
X25191Y94191D01*
X25654Y93881D01*
X26200Y93773D01*
X26746Y93881D01*
X27209Y94191D01*
X27519Y94654D01*
X27627Y95200D01*
X27519Y95746D01*
X27220Y96193D01*
X27212Y96214D01*
X27145Y96284D01*
X27095Y96342D01*
X27054Y96399D01*
X27019Y96454D01*
X26991Y96506D01*
X26970Y96557D01*
X26954Y96606D01*
X26942Y96655D01*
X26936Y96704D01*
X26932Y96773D01*
X26914Y96814D01*
Y97500D01*
X26859Y97773D01*
X26705Y98005D01*
X16514Y108196D01*
Y121551D01*
X16830Y121809D01*
X17286Y121611D01*
Y114800D01*
X17341Y114527D01*
X17495Y114295D01*
X21265Y110525D01*
X21264Y110504D01*
X21258Y110455D01*
X21246Y110406D01*
X21230Y110357D01*
X21209Y110306D01*
X21181Y110254D01*
X21146Y110199D01*
X21104Y110142D01*
X21055Y110084D01*
X20988Y110014D01*
X20980Y109993D01*
X20681Y109546D01*
X20573Y109000D01*
X20681Y108454D01*
X20991Y107991D01*
X21454Y107681D01*
X22000Y107573D01*
X22546Y107681D01*
X23009Y107991D01*
X23319Y108454D01*
X23427Y109000D01*
X23319Y109546D01*
X23020Y109993D01*
X23012Y110014D01*
X22945Y110084D01*
X22896Y110142D01*
X22854Y110199D01*
X22819Y110254D01*
X22791Y110306D01*
X22770Y110357D01*
X22754Y110406D01*
X22742Y110455D01*
X22736Y110504D01*
X22733Y110573D01*
X22714Y110614D01*
Y110800D01*
X22659Y111073D01*
X22505Y111305D01*
X21623Y112186D01*
X21830Y112686D01*
X22304D01*
X24954Y110036D01*
X24970Y109995D01*
X25016Y109943D01*
X25046Y109904D01*
X25073Y109862D01*
X25096Y109815D01*
X25117Y109764D01*
X25134Y109707D01*
X25149Y109644D01*
X25159Y109574D01*
X25165Y109498D01*
X25167Y109402D01*
X25177Y109380D01*
X25281Y108854D01*
X25591Y108391D01*
X26054Y108081D01*
X26600Y107973D01*
X27146Y108081D01*
X27609Y108391D01*
X27622Y108409D01*
X28302Y108527D01*
X28386Y108464D01*
Y87300D01*
X28441Y87027D01*
X28595Y86795D01*
X30000Y85391D01*
Y77241D01*
X29932Y77168D01*
X29916Y77126D01*
X28536Y75746D01*
X28495Y75731D01*
X28443Y75684D01*
X28404Y75654D01*
X28362Y75627D01*
X28315Y75604D01*
X28264Y75583D01*
X28207Y75566D01*
X28144Y75551D01*
X28074Y75541D01*
X27998Y75535D01*
X27902Y75533D01*
X27880Y75524D01*
X27354Y75419D01*
X26907Y75120D01*
X26886Y75112D01*
X26816Y75045D01*
X26758Y74996D01*
X26701Y74954D01*
X26646Y74919D01*
X26594Y74891D01*
X26543Y74870D01*
X26494Y74854D01*
X26445Y74842D01*
X26396Y74836D01*
X26327Y74832D01*
X26286Y74814D01*
X20596D01*
X11446Y83964D01*
X11430Y84005D01*
X11384Y84057D01*
X11354Y84096D01*
X11327Y84138D01*
X11304Y84185D01*
X11283Y84236D01*
X11266Y84293D01*
X11251Y84356D01*
X11241Y84426D01*
X11235Y84502D01*
X11233Y84598D01*
X11224Y84620D01*
X11119Y85146D01*
X10809Y85609D01*
X10346Y85919D01*
X9800Y86027D01*
X9254Y85919D01*
X8791Y85609D01*
X8481Y85146D01*
X8373Y84600D01*
X8481Y84054D01*
X8791Y83591D01*
X9254Y83281D01*
X9780Y83176D01*
X9802Y83167D01*
X9898Y83165D01*
X9974Y83159D01*
X10044Y83149D01*
X10107Y83134D01*
X10164Y83117D01*
X10215Y83096D01*
X10262Y83073D01*
X10304Y83046D01*
X10343Y83016D01*
X10395Y82969D01*
X10436Y82954D01*
X19795Y73595D01*
X20027Y73441D01*
X20300Y73386D01*
X26286D01*
X26327Y73368D01*
X26396Y73364D01*
X26445Y73358D01*
X26494Y73347D01*
X26543Y73330D01*
X26594Y73309D01*
X26646Y73281D01*
X26701Y73246D01*
X26758Y73204D01*
X26816Y73155D01*
X26886Y73088D01*
X26907Y73080D01*
X27354Y72781D01*
X27900Y72673D01*
X28446Y72781D01*
X28909Y73091D01*
X29219Y73554D01*
X29324Y74080D01*
X29333Y74102D01*
X29335Y74198D01*
X29341Y74274D01*
X29345Y74300D01*
X29500Y74416D01*
X29724Y74363D01*
X29860Y74282D01*
X30000Y74111D01*
Y68045D01*
X9465D01*
X6491Y71019D01*
X6473Y71063D01*
X6376Y71164D01*
X6306Y71245D01*
X6300Y71252D01*
X6333Y71301D01*
X6423Y71750D01*
Y73250D01*
X6333Y73699D01*
X6079Y74079D01*
X5699Y74333D01*
X5250Y74423D01*
X2750D01*
X2301Y74333D01*
X1921Y74079D01*
X1714Y73769D01*
X1425Y73781D01*
X1214Y73852D01*
Y79904D01*
X4505Y83195D01*
X4659Y83427D01*
X4714Y83700D01*
Y84343D01*
X4733Y84386D01*
X4735Y84490D01*
X4742Y84564D01*
X4744Y84578D01*
X5250D01*
X5699Y84667D01*
X6079Y84921D01*
X6333Y85301D01*
X6423Y85750D01*
Y87250D01*
X6333Y87699D01*
X6079Y88079D01*
X5699Y88333D01*
X5262Y88420D01*
X5200Y88514D01*
X5072Y88750D01*
X5200Y88986D01*
X5262Y89080D01*
X5699Y89167D01*
X6079Y89421D01*
X6333Y89801D01*
X6423Y90250D01*
Y91750D01*
X6333Y92199D01*
X6079Y92579D01*
X5699Y92833D01*
X5250Y92923D01*
X2750D01*
X2301Y92833D01*
X1921Y92579D01*
X1667Y92199D01*
X1578Y91750D01*
Y90250D01*
X1667Y89801D01*
X1921Y89421D01*
X2301Y89167D01*
X2738Y89080D01*
X2800Y88986D01*
X2928Y88750D01*
X2800Y88514D01*
X2738Y88420D01*
X2301Y88333D01*
X1921Y88079D01*
X1667Y87699D01*
X1578Y87250D01*
Y85750D01*
X1667Y85301D01*
X1921Y84921D01*
X2301Y84667D01*
X2750Y84578D01*
X3256D01*
X3258Y84564D01*
X3264Y84490D01*
X3267Y84386D01*
X3286Y84343D01*
Y83996D01*
X-5Y80705D01*
X-159Y80473D01*
X-214Y80200D01*
Y78246D01*
X-714Y78094D01*
X-791Y78209D01*
X-1254Y78519D01*
X-1800Y78627D01*
X-2346Y78519D01*
X-2773Y78234D01*
X-3050Y78289D01*
X-3153Y78332D01*
X-3223Y78380D01*
X-3293Y78451D01*
X-3297Y78457D01*
X-3380Y78876D01*
X-3686Y79334D01*
X-4144Y79640D01*
X-4684Y79748D01*
X-9716D01*
X-10256Y79640D01*
X-10714Y79334D01*
X-10882Y79082D01*
X-11382Y79233D01*
Y83344D01*
X-10882Y83496D01*
X-10714Y83244D01*
X-10256Y82938D01*
X-9716Y82830D01*
X-4684D01*
X-4144Y82938D01*
X-3686Y83244D01*
X-3380Y83702D01*
X-3273Y84242D01*
Y86210D01*
X-3380Y86750D01*
X-3686Y87208D01*
X-3733Y87684D01*
X918Y92335D01*
X1073Y92567D01*
X1127Y92840D01*
Y100784D01*
X1073Y101057D01*
X918Y101289D01*
X443Y101764D01*
X428Y101805D01*
X381Y101857D01*
X351Y101896D01*
X325Y101938D01*
X301Y101985D01*
X281Y102036D01*
X263Y102093D01*
X249Y102156D01*
X239Y102226D01*
X232Y102302D01*
X231Y102398D01*
X221Y102420D01*
X117Y102946D01*
X-193Y103409D01*
X-656Y103719D01*
X-1202Y103827D01*
X-1749Y103719D01*
X-2212Y103409D01*
X-2521Y102946D01*
X-2630Y102400D01*
X-2521Y101854D01*
X-2212Y101391D01*
X-1749Y101081D01*
X-1222Y100977D01*
X-1201Y100967D01*
X-1104Y100965D01*
X-1028Y100959D01*
X-958Y100949D01*
X-895Y100934D01*
X-838Y100917D01*
X-787Y100896D01*
X-741Y100873D01*
X-698Y100846D01*
X-659Y100816D01*
X-608Y100769D01*
X-566Y100754D01*
X-300Y100488D01*
Y99904D01*
X-417Y99815D01*
X-800Y99682D01*
X-1154Y99919D01*
X-1700Y100027D01*
X-2246Y99919D01*
X-2709Y99609D01*
X-3019Y99146D01*
X-3124Y98620D01*
X-3133Y98598D01*
X-3135Y98502D01*
X-3141Y98426D01*
X-3151Y98356D01*
X-3166Y98293D01*
X-3183Y98236D01*
X-3204Y98185D01*
X-3227Y98138D01*
X-3254Y98096D01*
X-3284Y98057D01*
X-3331Y98005D01*
X-3346Y97964D01*
X-5479Y95830D01*
X-5523Y95813D01*
X-5604Y95736D01*
X-5675Y95675D01*
X-5741Y95625D01*
X-5802Y95584D01*
X-5859Y95552D01*
X-5909Y95529D01*
X-5954Y95512D01*
X-5994Y95503D01*
X-6028Y95498D01*
X-6084Y95496D01*
X-6086Y95496D01*
X-9716D01*
X-10256Y95388D01*
X-10714Y95082D01*
X-10882Y94830D01*
X-11382Y94982D01*
Y155082D01*
X30000D01*
Y152573D01*
D02*
G37*
G36*
X32788Y150817D02*
X32744Y150871D01*
X32695Y150919D01*
X32640Y150961D01*
X32580Y150998D01*
X32514Y151029D01*
X32443Y151055D01*
X32365Y151075D01*
X32283Y151089D01*
X32194Y151097D01*
X32100Y151100D01*
Y151700D01*
X32194Y151703D01*
X32283Y151711D01*
X32365Y151725D01*
X32443Y151745D01*
X32514Y151771D01*
X32580Y151802D01*
X32640Y151839D01*
X32695Y151881D01*
X32744Y151929D01*
X32788Y151983D01*
Y150817D01*
D02*
G37*
G36*
X26185Y150306D02*
X26145Y149853D01*
X25767Y149674D01*
X25667Y149741D01*
X25395Y149795D01*
X24805D01*
X24533Y149741D01*
X24304Y149587D01*
X24150Y149357D01*
X24096Y149086D01*
Y147314D01*
X24150Y147043D01*
X24304Y146813D01*
X24533Y146659D01*
X24805Y146605D01*
X25395D01*
X25667Y146659D01*
X25896Y146813D01*
X26303D01*
X26533Y146659D01*
X26805Y146605D01*
X27395D01*
X27667Y146659D01*
X27896Y146813D01*
X28304D01*
X28533Y146659D01*
X28805Y146605D01*
X29395D01*
X29500Y146626D01*
X29915Y146378D01*
X30000Y146281D01*
Y131914D01*
X27498D01*
X27465Y131931D01*
X27452Y131927D01*
X27440Y131933D01*
X27338Y131936D01*
X27256Y131945D01*
X27178Y131960D01*
X27105Y131981D01*
X27034Y132006D01*
X26966Y132038D01*
X26899Y132076D01*
X26834Y132120D01*
X26770Y132172D01*
X26695Y132241D01*
X26652Y132257D01*
X25614Y133296D01*
Y138127D01*
X25631Y138160D01*
X25614Y138216D01*
Y144300D01*
X25559Y144573D01*
X25405Y144805D01*
X24505Y145705D01*
X24273Y145859D01*
X24000Y145914D01*
X23932D01*
X23891Y145933D01*
X23703Y145940D01*
X23642Y145947D01*
X23589Y145956D01*
X23550Y145966D01*
X23525Y145974D01*
X23517Y145978D01*
X23504Y145989D01*
X23503Y145989D01*
X23496Y146006D01*
X23436Y146030D01*
X23257Y146150D01*
X22986Y146204D01*
X21214D01*
X20943Y146150D01*
X20764Y146030D01*
X20704Y146006D01*
X20697Y145989D01*
X20696Y145989D01*
X20683Y145978D01*
X20675Y145974D01*
X20650Y145966D01*
X20611Y145956D01*
X20564Y145948D01*
X20410Y145935D01*
X20318Y145933D01*
X20274Y145914D01*
X20000D01*
X19727Y145859D01*
X19495Y145705D01*
X18662Y144871D01*
X18201Y145118D01*
X18218Y145200D01*
Y146200D01*
X18148Y146551D01*
X17949Y146849D01*
X17651Y147048D01*
X17551Y147068D01*
X17542Y147122D01*
X17536Y147201D01*
X17533Y147308D01*
X17514Y147351D01*
Y148304D01*
X20496Y151286D01*
X25204D01*
X26185Y150306D01*
D02*
G37*
G36*
X42624Y150142D02*
X42556Y150061D01*
X42496Y149980D01*
X42444Y149898D01*
X42400Y149814D01*
X42364Y149730D01*
X42336Y149644D01*
X42316Y149558D01*
X42304Y149470D01*
X42300Y149381D01*
X41700D01*
X41696Y149470D01*
X41684Y149558D01*
X41664Y149644D01*
X41636Y149730D01*
X41600Y149814D01*
X41556Y149898D01*
X41504Y149980D01*
X41444Y150061D01*
X41376Y150142D01*
X41300Y150221D01*
X42700D01*
X42624Y150142D01*
D02*
G37*
G36*
X31402Y149868D02*
X31418Y149681D01*
X31432Y149600D01*
X31450Y149528D01*
X31472Y149463D01*
X31498Y149408D01*
X31528Y149360D01*
X31562Y149321D01*
X31600Y149290D01*
X30601D01*
X30638Y149321D01*
X30672Y149360D01*
X30702Y149408D01*
X30728Y149463D01*
X30750Y149528D01*
X30768Y149600D01*
X30782Y149681D01*
X30792Y149770D01*
X30800Y149974D01*
X31400D01*
X31402Y149868D01*
D02*
G37*
G36*
X29724Y150142D02*
X29656Y150061D01*
X29596Y149980D01*
X29544Y149898D01*
X29500Y149814D01*
X29464Y149730D01*
X29436Y149644D01*
X29429Y149615D01*
X29432Y149600D01*
X29450Y149528D01*
X29472Y149463D01*
X29498Y149408D01*
X29528Y149360D01*
X29562Y149321D01*
X29599Y149290D01*
X28600D01*
X28638Y149321D01*
X28672Y149360D01*
X28702Y149408D01*
X28728Y149463D01*
X28750Y149528D01*
X28768Y149600D01*
X28771Y149615D01*
X28764Y149644D01*
X28736Y149730D01*
X28700Y149814D01*
X28656Y149898D01*
X28604Y149980D01*
X28544Y150061D01*
X28476Y150142D01*
X28400Y150221D01*
X29800D01*
X29724Y150142D01*
D02*
G37*
G36*
X27402Y149868D02*
X27418Y149681D01*
X27432Y149600D01*
X27450Y149528D01*
X27472Y149463D01*
X27498Y149408D01*
X27528Y149360D01*
X27562Y149321D01*
X27599Y149290D01*
X26601D01*
X26638Y149321D01*
X26672Y149360D01*
X26702Y149408D01*
X26728Y149463D01*
X26750Y149528D01*
X26768Y149600D01*
X26782Y149681D01*
X26792Y149770D01*
X26800Y149974D01*
X27400D01*
X27402Y149868D01*
D02*
G37*
G36*
X17103Y147178D02*
X17112Y147070D01*
X17127Y146975D01*
X17148Y146893D01*
X17174Y146824D01*
X17207Y146767D01*
X17246Y146723D01*
X17290Y146691D01*
X17341Y146672D01*
X17398Y146666D01*
X16202D01*
X16259Y146672D01*
X16309Y146691D01*
X16354Y146723D01*
X16393Y146767D01*
X16426Y146824D01*
X16452Y146893D01*
X16473Y146975D01*
X16488Y147070D01*
X16497Y147178D01*
X16500Y147298D01*
X17100D01*
X17103Y147178D01*
D02*
G37*
G36*
X42303Y146268D02*
X42312Y146164D01*
X42327Y146072D01*
X42348Y145992D01*
X42375Y145925D01*
X42408Y145870D01*
X42447Y145827D01*
X42492Y145797D01*
X42543Y145778D01*
X42600Y145772D01*
X41400D01*
X41457Y145778D01*
X41508Y145797D01*
X41553Y145827D01*
X41592Y145870D01*
X41625Y145925D01*
X41652Y145992D01*
X41673Y146072D01*
X41688Y146164D01*
X41697Y146268D01*
X41700Y146384D01*
X42300D01*
X42303Y146268D01*
D02*
G37*
G36*
X23221Y145662D02*
X23260Y145628D01*
X23308Y145598D01*
X23363Y145572D01*
X23428Y145550D01*
X23500Y145532D01*
X23581Y145518D01*
X23670Y145508D01*
X23874Y145500D01*
Y144900D01*
X23768Y144898D01*
X23581Y144882D01*
X23500Y144868D01*
X23428Y144850D01*
X23363Y144828D01*
X23308Y144802D01*
X23260Y144772D01*
X23221Y144738D01*
X23190Y144701D01*
Y145700D01*
X23221Y145662D01*
D02*
G37*
G36*
X21010Y144701D02*
X20979Y144738D01*
X20940Y144772D01*
X20892Y144802D01*
X20837Y144828D01*
X20772Y144850D01*
X20700Y144868D01*
X20619Y144882D01*
X20530Y144892D01*
X20326Y144900D01*
Y145500D01*
X20432Y145502D01*
X20619Y145518D01*
X20700Y145532D01*
X20772Y145550D01*
X20837Y145572D01*
X20892Y145598D01*
X20940Y145628D01*
X20979Y145662D01*
X21010Y145700D01*
Y144701D01*
D02*
G37*
G36*
X18022Y142798D02*
X17923Y142694D01*
X17762Y142500D01*
X17700Y142409D01*
X17650Y142323D01*
X17612Y142240D01*
X17587Y142161D01*
X17574Y142086D01*
X17574Y142016D01*
X17586Y141949D01*
X17222Y143261D01*
X17245Y143205D01*
X17278Y143168D01*
X17321Y143149D01*
X17375Y143148D01*
X17438Y143166D01*
X17512Y143202D01*
X17595Y143257D01*
X17689Y143330D01*
X17793Y143421D01*
X17906Y143531D01*
X18022Y142798D01*
D02*
G37*
G36*
X43120Y143662D02*
X43157Y143628D01*
X43201Y143598D01*
X43252Y143572D01*
X43309Y143550D01*
X43374Y143532D01*
X43445Y143518D01*
X43523Y143508D01*
X43608Y143502D01*
X43700Y143500D01*
Y142900D01*
X43608Y142898D01*
X43445Y142882D01*
X43374Y142868D01*
X43309Y142850D01*
X43252Y142828D01*
X43201Y142802D01*
X43157Y142772D01*
X43120Y142738D01*
X43090Y142701D01*
Y143700D01*
X43120Y143662D01*
D02*
G37*
G36*
X21010Y138700D02*
X20979Y138738D01*
X20940Y138772D01*
X20892Y138802D01*
X20837Y138828D01*
X20772Y138850D01*
X20700Y138868D01*
X20619Y138882D01*
X20530Y138892D01*
X20326Y138900D01*
Y139500D01*
X20432Y139502D01*
X20619Y139518D01*
X20700Y139532D01*
X20772Y139550D01*
X20837Y139572D01*
X20892Y139598D01*
X20940Y139628D01*
X20979Y139662D01*
X21010Y139699D01*
Y138700D01*
D02*
G37*
G36*
X17591Y138762D02*
X17606Y138728D01*
X17632Y138698D01*
X17668Y138672D01*
X17714Y138650D01*
X17771Y138632D01*
X17838Y138618D01*
X17915Y138608D01*
X18002Y138602D01*
X18100Y138600D01*
Y138000D01*
X18002Y137998D01*
X17838Y137982D01*
X17771Y137968D01*
X17714Y137950D01*
X17668Y137928D01*
X17632Y137902D01*
X17606Y137872D01*
X17591Y137838D01*
X17585Y137800D01*
Y138800D01*
X17591Y138762D01*
D02*
G37*
G36*
X15634Y137702D02*
X15628Y137759D01*
X15609Y137810D01*
X15577Y137854D01*
X15533Y137893D01*
X15476Y137926D01*
X15407Y137952D01*
X15325Y137973D01*
X15230Y137988D01*
X15123Y137997D01*
X15002Y138000D01*
Y138600D01*
X15123Y138603D01*
X15230Y138612D01*
X15325Y138627D01*
X15407Y138648D01*
X15476Y138674D01*
X15533Y138707D01*
X15577Y138746D01*
X15609Y138791D01*
X15628Y138841D01*
X15634Y138898D01*
Y137702D01*
D02*
G37*
G36*
X13972Y138841D02*
X13991Y138791D01*
X14023Y138746D01*
X14067Y138707D01*
X14124Y138674D01*
X14193Y138648D01*
X14275Y138627D01*
X14370Y138612D01*
X14478Y138603D01*
X14598Y138600D01*
Y138000D01*
X14478Y137997D01*
X14370Y137988D01*
X14275Y137973D01*
X14193Y137952D01*
X14124Y137926D01*
X14067Y137893D01*
X14023Y137854D01*
X13991Y137810D01*
X13972Y137759D01*
X13966Y137702D01*
Y138898D01*
X13972Y138841D01*
D02*
G37*
G36*
X25200Y138200D02*
X24600Y136876D01*
X24596Y136986D01*
X24583Y137075D01*
X24562Y137144D01*
X24532Y137192D01*
X24494Y137220D01*
X24447Y137227D01*
X24392Y137214D01*
X24329Y137180D01*
X24256Y137126D01*
X24176Y137051D01*
Y137900D01*
X24256Y137987D01*
X24329Y138077D01*
X24392Y138170D01*
X24447Y138268D01*
X24494Y138368D01*
X24532Y138472D01*
X24562Y138580D01*
X24583Y138691D01*
X24596Y138806D01*
X24600Y138924D01*
X25200Y138200D01*
D02*
G37*
G36*
X23221Y137662D02*
X23260Y137628D01*
X23308Y137598D01*
X23363Y137572D01*
X23428Y137550D01*
X23500Y137532D01*
X23581Y137518D01*
X23670Y137508D01*
X23874Y137500D01*
Y136900D01*
X23768Y136898D01*
X23581Y136882D01*
X23500Y136868D01*
X23428Y136850D01*
X23363Y136828D01*
X23308Y136802D01*
X23260Y136772D01*
X23221Y136738D01*
X23190Y136700D01*
Y137699D01*
X23221Y137662D01*
D02*
G37*
G36*
X7172Y134441D02*
X7191Y134390D01*
X7223Y134346D01*
X7267Y134307D01*
X7324Y134274D01*
X7393Y134248D01*
X7475Y134227D01*
X7570Y134212D01*
X7677Y134203D01*
X7798Y134200D01*
Y133600D01*
X7677Y133597D01*
X7570Y133588D01*
X7475Y133573D01*
X7393Y133552D01*
X7324Y133526D01*
X7267Y133493D01*
X7223Y133454D01*
X7191Y133410D01*
X7172Y133359D01*
X7166Y133302D01*
Y134498D01*
X7172Y134441D01*
D02*
G37*
G36*
X43121Y133662D02*
X43160Y133628D01*
X43208Y133598D01*
X43263Y133572D01*
X43328Y133550D01*
X43400Y133532D01*
X43481Y133518D01*
X43570Y133508D01*
X43774Y133500D01*
Y132900D01*
X43668Y132898D01*
X43481Y132882D01*
X43400Y132868D01*
X43328Y132850D01*
X43263Y132828D01*
X43208Y132802D01*
X43160Y132772D01*
X43121Y132738D01*
X43090Y132701D01*
Y133700D01*
X43121Y133662D01*
D02*
G37*
G36*
X15936Y132592D02*
X16155Y132407D01*
X16251Y132339D01*
X16339Y132289D01*
X16418Y132255D01*
X16489Y132237D01*
X16552Y132237D01*
X16605Y132253D01*
X16651Y132286D01*
X15814Y131449D01*
X15847Y131494D01*
X15863Y131549D01*
X15863Y131611D01*
X15845Y131682D01*
X15811Y131761D01*
X15761Y131849D01*
X15693Y131945D01*
X15609Y132050D01*
X15390Y132285D01*
X15815Y132710D01*
X15936Y132592D01*
D02*
G37*
G36*
X26487Y131844D02*
X26577Y131772D01*
X26670Y131708D01*
X26768Y131653D01*
X26868Y131606D01*
X26972Y131568D01*
X27080Y131538D01*
X27191Y131517D01*
X27306Y131504D01*
X27424Y131500D01*
X26700Y130900D01*
X25376Y131500D01*
X25486Y131504D01*
X25575Y131517D01*
X25644Y131538D01*
X25692Y131568D01*
X25720Y131606D01*
X25727Y131653D01*
X25714Y131708D01*
X25680Y131772D01*
X25626Y131844D01*
X25552Y131924D01*
X26400D01*
X26487Y131844D01*
D02*
G37*
G36*
X40910Y130701D02*
X40879Y130738D01*
X40840Y130772D01*
X40792Y130802D01*
X40737Y130828D01*
X40672Y130850D01*
X40600Y130868D01*
X40519Y130882D01*
X40430Y130892D01*
X40226Y130900D01*
Y131500D01*
X40332Y131502D01*
X40519Y131518D01*
X40600Y131532D01*
X40672Y131550D01*
X40737Y131572D01*
X40792Y131598D01*
X40840Y131628D01*
X40879Y131662D01*
X40910Y131700D01*
Y130701D01*
D02*
G37*
G36*
X22364Y130628D02*
X22289Y130631D01*
X22212Y130624D01*
X22133Y130607D01*
X22052Y130579D01*
X21968Y130541D01*
X21882Y130492D01*
X21794Y130432D01*
X21703Y130363D01*
X21611Y130282D01*
X21516Y130192D01*
X20688Y130212D01*
X20760Y130288D01*
X20874Y130428D01*
X20916Y130492D01*
X20947Y130552D01*
X20968Y130608D01*
X20978Y130661D01*
X20978Y130709D01*
X20968Y130754D01*
X20947Y130794D01*
X22364Y130628D01*
D02*
G37*
G36*
X13341Y130328D02*
X13291Y130309D01*
X13246Y130277D01*
X13207Y130233D01*
X13174Y130176D01*
X13148Y130107D01*
X13127Y130025D01*
X13112Y129930D01*
X13103Y129823D01*
X13100Y129702D01*
X12500D01*
X12497Y129823D01*
X12488Y129930D01*
X12473Y130025D01*
X12452Y130107D01*
X12426Y130176D01*
X12393Y130233D01*
X12354Y130277D01*
X12309Y130309D01*
X12259Y130328D01*
X12202Y130334D01*
X13398D01*
X13341Y130328D01*
D02*
G37*
G36*
X37562Y127079D02*
X37528Y127040D01*
X37498Y126992D01*
X37472Y126937D01*
X37450Y126872D01*
X37432Y126800D01*
X37418Y126719D01*
X37408Y126630D01*
X37400Y126426D01*
X36800D01*
X36798Y126532D01*
X36782Y126719D01*
X36768Y126800D01*
X36750Y126872D01*
X36728Y126937D01*
X36702Y126992D01*
X36672Y127040D01*
X36638Y127079D01*
X36601Y127110D01*
X37600D01*
X37562Y127079D01*
D02*
G37*
G36*
X35562D02*
X35528Y127040D01*
X35498Y126992D01*
X35472Y126937D01*
X35450Y126872D01*
X35432Y126800D01*
X35418Y126719D01*
X35408Y126630D01*
X35400Y126426D01*
X34800D01*
X34798Y126532D01*
X34782Y126719D01*
X34768Y126800D01*
X34750Y126872D01*
X34728Y126937D01*
X34702Y126992D01*
X34672Y127040D01*
X34638Y127079D01*
X34600Y127110D01*
X35599D01*
X35562Y127079D01*
D02*
G37*
G36*
X33562D02*
X33528Y127040D01*
X33498Y126992D01*
X33472Y126937D01*
X33450Y126872D01*
X33432Y126800D01*
X33418Y126719D01*
X33408Y126630D01*
X33400Y126426D01*
X32800D01*
X32798Y126532D01*
X32782Y126719D01*
X32768Y126800D01*
X32750Y126872D01*
X32728Y126937D01*
X32702Y126992D01*
X32672Y127040D01*
X32638Y127079D01*
X32601Y127110D01*
X33599D01*
X33562Y127079D01*
D02*
G37*
G36*
X31562D02*
X31528Y127040D01*
X31498Y126992D01*
X31472Y126937D01*
X31450Y126872D01*
X31432Y126800D01*
X31418Y126719D01*
X31408Y126630D01*
X31400Y126426D01*
X30800D01*
X30798Y126532D01*
X30782Y126719D01*
X30768Y126800D01*
X30750Y126872D01*
X30728Y126937D01*
X30702Y126992D01*
X30672Y127040D01*
X30638Y127079D01*
X30601Y127110D01*
X31600D01*
X31562Y127079D01*
D02*
G37*
G36*
X29562D02*
X29528Y127040D01*
X29498Y126992D01*
X29472Y126937D01*
X29450Y126872D01*
X29432Y126800D01*
X29418Y126719D01*
X29408Y126630D01*
X29400Y126426D01*
X28800D01*
X28798Y126532D01*
X28782Y126719D01*
X28768Y126800D01*
X28750Y126872D01*
X28728Y126937D01*
X28702Y126992D01*
X28672Y127040D01*
X28638Y127079D01*
X28600Y127110D01*
X29599D01*
X29562Y127079D01*
D02*
G37*
G36*
X27562D02*
X27528Y127040D01*
X27498Y126992D01*
X27472Y126937D01*
X27450Y126872D01*
X27432Y126800D01*
X27418Y126719D01*
X27408Y126630D01*
X27400Y126426D01*
X26800D01*
X26798Y126532D01*
X26782Y126719D01*
X26768Y126800D01*
X26750Y126872D01*
X26728Y126937D01*
X26702Y126992D01*
X26672Y127040D01*
X26638Y127079D01*
X26601Y127110D01*
X27599D01*
X27562Y127079D01*
D02*
G37*
G36*
X25562D02*
X25528Y127040D01*
X25498Y126992D01*
X25472Y126937D01*
X25450Y126872D01*
X25432Y126800D01*
X25418Y126719D01*
X25408Y126630D01*
X25400Y126426D01*
X24800D01*
X24798Y126532D01*
X24782Y126719D01*
X24768Y126800D01*
X24750Y126872D01*
X24728Y126937D01*
X24702Y126992D01*
X24672Y127040D01*
X24638Y127079D01*
X24600Y127110D01*
X25600D01*
X25562Y127079D01*
D02*
G37*
G36*
X77364Y128078D02*
X77457Y127917D01*
X77561Y127761D01*
X77676Y127608D01*
X77802Y127459D01*
X77940Y127315D01*
X78089Y127175D01*
X78420Y126907D01*
X78602Y126779D01*
X76414Y126362D01*
X76418Y126424D01*
X76410Y126505D01*
X76389Y126606D01*
X76356Y126727D01*
X76252Y127029D01*
X76003Y127631D01*
X75896Y127872D01*
X77283Y128244D01*
X77364Y128078D01*
D02*
G37*
G36*
X41786Y123900D02*
X41743Y123938D01*
X41693Y123972D01*
X41636Y124002D01*
X41572Y124028D01*
X41500Y124050D01*
X41421Y124068D01*
X41335Y124082D01*
X41242Y124092D01*
X41034Y124100D01*
Y125100D01*
X41142Y125102D01*
X41335Y125118D01*
X41421Y125132D01*
X41500Y125150D01*
X41572Y125172D01*
X41636Y125198D01*
X41693Y125228D01*
X41743Y125262D01*
X41786Y125300D01*
Y123900D01*
D02*
G37*
G36*
X40257Y125262D02*
X40307Y125228D01*
X40364Y125198D01*
X40429Y125172D01*
X40500Y125150D01*
X40579Y125132D01*
X40665Y125118D01*
X40758Y125108D01*
X40966Y125100D01*
Y124100D01*
X40858Y124098D01*
X40665Y124082D01*
X40579Y124068D01*
X40500Y124050D01*
X40429Y124028D01*
X40364Y124002D01*
X40307Y123972D01*
X40257Y123938D01*
X40214Y123900D01*
Y125300D01*
X40257Y125262D01*
D02*
G37*
G36*
X43503Y124533D02*
X43515Y124474D01*
X43534Y124412D01*
X43561Y124348D01*
X43596Y124282D01*
X43639Y124213D01*
X43690Y124143D01*
X43749Y124070D01*
X43890Y123917D01*
X43183Y123210D01*
X43106Y123284D01*
X42957Y123410D01*
X42887Y123461D01*
X42818Y123504D01*
X42752Y123539D01*
X42688Y123566D01*
X42627Y123585D01*
X42567Y123597D01*
X42510Y123600D01*
X43500Y124590D01*
X43503Y124533D01*
D02*
G37*
G36*
X14424Y123107D02*
X14356Y123027D01*
X14296Y122946D01*
X14244Y122863D01*
X14200Y122780D01*
X14164Y122695D01*
X14136Y122610D01*
X14116Y122523D01*
X14104Y122435D01*
X14100Y122346D01*
X13500D01*
X13496Y122435D01*
X13484Y122523D01*
X13464Y122610D01*
X13436Y122695D01*
X13400Y122780D01*
X13356Y122863D01*
X13304Y122946D01*
X13244Y123027D01*
X13176Y123107D01*
X13100Y123186D01*
X14500D01*
X14424Y123107D01*
D02*
G37*
G36*
X40502Y121380D02*
X40511Y121276D01*
X40526Y121176D01*
X40547Y121081D01*
X40575Y120991D01*
X40609Y120906D01*
X40650Y120825D01*
X40697Y120750D01*
X40751Y120679D01*
X40811Y120613D01*
X40387Y120189D01*
X40321Y120249D01*
X40250Y120303D01*
X40175Y120350D01*
X40094Y120391D01*
X40009Y120425D01*
X39919Y120453D01*
X39824Y120474D01*
X39724Y120489D01*
X39620Y120498D01*
X39510Y120500D01*
X40500Y121490D01*
X40502Y121380D01*
D02*
G37*
G36*
X11724Y120807D02*
X11656Y120727D01*
X11596Y120646D01*
X11544Y120563D01*
X11500Y120480D01*
X11464Y120395D01*
X11436Y120310D01*
X11416Y120223D01*
X11404Y120135D01*
X11400Y120046D01*
X10800D01*
X10796Y120135D01*
X10784Y120223D01*
X10764Y120310D01*
X10736Y120395D01*
X10700Y120480D01*
X10656Y120563D01*
X10604Y120646D01*
X10544Y120727D01*
X10476Y120807D01*
X10400Y120886D01*
X11800D01*
X11724Y120807D01*
D02*
G37*
G36*
X96364Y121277D02*
X96290Y121134D01*
X96224Y120982D01*
X96168Y120820D01*
X96120Y120651D01*
X96081Y120472D01*
X96050Y120284D01*
X96015Y119883D01*
X96011Y119670D01*
X94611D01*
X94607Y119883D01*
X94572Y120284D01*
X94541Y120472D01*
X94502Y120651D01*
X94454Y120820D01*
X94398Y120982D01*
X94332Y121134D01*
X94258Y121277D01*
X94175Y121412D01*
X96447D01*
X96364Y121277D01*
D02*
G37*
G36*
X90468Y121290D02*
X90402Y121154D01*
X90344Y121005D01*
X90294Y120842D01*
X90252Y120666D01*
X90217Y120475D01*
X90171Y120055D01*
X90159Y119824D01*
X90156Y119580D01*
X88656D01*
X88652Y119824D01*
X88621Y120272D01*
X88594Y120475D01*
X88517Y120842D01*
X88467Y121005D01*
X88409Y121154D01*
X88343Y121290D01*
X88270Y121412D01*
X90541D01*
X90468Y121290D01*
D02*
G37*
G36*
X72751D02*
X72686Y121154D01*
X72628Y121005D01*
X72578Y120842D01*
X72535Y120666D01*
X72501Y120475D01*
X72454Y120055D01*
X72443Y119824D01*
X72439Y119580D01*
X70939D01*
X70935Y119824D01*
X70904Y120272D01*
X70877Y120475D01*
X70800Y120842D01*
X70750Y121005D01*
X70692Y121154D01*
X70627Y121290D01*
X70553Y121412D01*
X72825D01*
X72751Y121290D01*
D02*
G37*
G36*
X96012Y117838D02*
X96043Y117421D01*
X96057Y117345D01*
X96073Y117280D01*
X96092Y117227D01*
X96114Y117185D01*
X96138Y117155D01*
X94484D01*
X94508Y117185D01*
X94530Y117227D01*
X94549Y117280D01*
X94565Y117345D01*
X94579Y117421D01*
X94600Y117607D01*
X94610Y117838D01*
X94611Y117971D01*
X96011D01*
X96012Y117838D01*
D02*
G37*
G36*
X40502Y117280D02*
X40511Y117176D01*
X40526Y117076D01*
X40547Y116981D01*
X40575Y116891D01*
X40609Y116806D01*
X40650Y116725D01*
X40697Y116650D01*
X40751Y116579D01*
X40811Y116513D01*
X40387Y116089D01*
X40321Y116149D01*
X40250Y116203D01*
X40175Y116250D01*
X40094Y116291D01*
X40009Y116325D01*
X39919Y116353D01*
X39824Y116374D01*
X39724Y116389D01*
X39620Y116398D01*
X39510Y116400D01*
X40500Y117390D01*
X40502Y117280D01*
D02*
G37*
G36*
X28386Y126134D02*
Y110336D01*
X28302Y110274D01*
X27622Y110391D01*
X27609Y110409D01*
X27146Y110719D01*
X26620Y110824D01*
X26598Y110833D01*
X26502Y110835D01*
X26425Y110841D01*
X26356Y110851D01*
X26293Y110866D01*
X26236Y110883D01*
X26185Y110904D01*
X26138Y110927D01*
X26096Y110954D01*
X26057Y110984D01*
X26005Y111030D01*
X25964Y111046D01*
X23105Y113905D01*
X22873Y114059D01*
X22600Y114114D01*
X21596D01*
X19914Y115796D01*
Y121704D01*
X21296Y123086D01*
X26100D01*
X26373Y123141D01*
X26605Y123295D01*
X27605Y124295D01*
X27759Y124527D01*
X27814Y124800D01*
Y126211D01*
X28061Y126352D01*
X28386Y126134D01*
D02*
G37*
G36*
X22304Y110465D02*
X22316Y110377D01*
X22336Y110290D01*
X22364Y110205D01*
X22400Y110120D01*
X22444Y110037D01*
X22496Y109954D01*
X22556Y109873D01*
X22624Y109793D01*
X22700Y109714D01*
X21300D01*
X21376Y109793D01*
X21444Y109873D01*
X21504Y109954D01*
X21556Y110037D01*
X21600Y110120D01*
X21636Y110205D01*
X21664Y110290D01*
X21684Y110377D01*
X21696Y110465D01*
X21700Y110554D01*
X22300D01*
X22304Y110465D01*
D02*
G37*
G36*
X25779Y110651D02*
X25850Y110597D01*
X25925Y110550D01*
X26006Y110509D01*
X26091Y110475D01*
X26181Y110447D01*
X26276Y110426D01*
X26376Y110411D01*
X26480Y110402D01*
X26590Y110400D01*
X25600Y109410D01*
X25598Y109520D01*
X25589Y109624D01*
X25574Y109724D01*
X25553Y109819D01*
X25525Y109909D01*
X25491Y109994D01*
X25450Y110075D01*
X25403Y110150D01*
X25349Y110221D01*
X25289Y110287D01*
X25713Y110711D01*
X25779Y110651D01*
D02*
G37*
G36*
X39346Y109076D02*
X39373Y109054D01*
X39410Y109034D01*
X39458Y109017D01*
X39517Y109002D01*
X39586Y108991D01*
X39666Y108981D01*
X39858Y108971D01*
X39969Y108969D01*
Y108369D01*
X39858Y108368D01*
X39586Y108348D01*
X39517Y108336D01*
X39458Y108322D01*
X39410Y108305D01*
X39373Y108285D01*
X39346Y108262D01*
X39330Y108237D01*
Y109101D01*
X39346Y109076D01*
D02*
G37*
G36*
X47504Y108322D02*
X47532Y108012D01*
X47556Y107877D01*
X47588Y107756D01*
X47627Y107648D01*
X47672Y107554D01*
X47725Y107473D01*
X47785Y107406D01*
X47852Y107352D01*
X46148D01*
X46215Y107406D01*
X46275Y107473D01*
X46328Y107554D01*
X46373Y107648D01*
X46412Y107756D01*
X46444Y107877D01*
X46468Y108012D01*
X46486Y108160D01*
X46496Y108322D01*
X46500Y108498D01*
X47500D01*
X47504Y108322D01*
D02*
G37*
G36*
X39346Y107108D02*
X39373Y107085D01*
X39412Y107066D01*
X39461Y107048D01*
X39521Y107034D01*
X39592Y107022D01*
X39674Y107013D01*
X39870Y107002D01*
X39985Y107001D01*
Y106401D01*
X39870Y106400D01*
X39592Y106380D01*
X39521Y106368D01*
X39461Y106353D01*
X39412Y106336D01*
X39373Y106316D01*
X39346Y106294D01*
X39330Y106269D01*
Y107133D01*
X39346Y107108D01*
D02*
G37*
G36*
X47904Y107285D02*
X47968Y107225D01*
X48043Y107172D01*
X48128Y107127D01*
X48225Y107088D01*
X48333Y107056D01*
X48452Y107032D01*
X48582Y107014D01*
X48723Y107003D01*
X48875Y107000D01*
Y106000D01*
X48723Y105997D01*
X48452Y105968D01*
X48333Y105944D01*
X48225Y105912D01*
X48128Y105873D01*
X48043Y105828D01*
X47968Y105775D01*
X47904Y105715D01*
X47852Y105648D01*
Y107352D01*
X47904Y107285D01*
D02*
G37*
G36*
X43948Y106210D02*
X43928Y106160D01*
X43925Y106101D01*
X43940Y106033D01*
X43972Y105955D01*
X44021Y105869D01*
X44088Y105773D01*
X44172Y105668D01*
X44393Y105431D01*
X43898Y105078D01*
X43778Y105194D01*
X43562Y105377D01*
X43465Y105445D01*
X43376Y105496D01*
X43296Y105532D01*
X43222Y105551D01*
X43157Y105555D01*
X43099Y105543D01*
X43049Y105514D01*
X43986Y106251D01*
X43948Y106210D01*
D02*
G37*
G36*
X39346Y105139D02*
X39373Y105117D01*
X39412Y105097D01*
X39461Y105080D01*
X39521Y105065D01*
X39592Y105053D01*
X39674Y105044D01*
X39870Y105034D01*
X39985Y105032D01*
Y104432D01*
X39870Y104431D01*
X39592Y104411D01*
X39521Y104399D01*
X39461Y104385D01*
X39412Y104368D01*
X39373Y104348D01*
X39346Y104325D01*
X39330Y104300D01*
Y105165D01*
X39346Y105139D01*
D02*
G37*
G36*
X92756Y105258D02*
X92805Y104781D01*
X92848Y104557D01*
X92904Y104343D01*
X92971Y104139D01*
X93051Y103944D01*
X93144Y103759D01*
X93248Y103584D01*
X93365Y103419D01*
X90635D01*
X90752Y103584D01*
X90856Y103759D01*
X90949Y103944D01*
X91029Y104139D01*
X91096Y104343D01*
X91152Y104557D01*
X91195Y104781D01*
X91225Y105015D01*
X91244Y105258D01*
X91250Y105512D01*
X92750D01*
X92756Y105258D01*
D02*
G37*
G36*
X46136Y103692D02*
X46355Y103507D01*
X46451Y103439D01*
X46539Y103389D01*
X46618Y103355D01*
X46689Y103337D01*
X46751Y103337D01*
X46806Y103353D01*
X46851Y103386D01*
X46014Y102549D01*
X46047Y102594D01*
X46063Y102648D01*
X46063Y102711D01*
X46046Y102782D01*
X46011Y102861D01*
X45961Y102949D01*
X45893Y103045D01*
X45809Y103150D01*
X45590Y103385D01*
X46015Y103810D01*
X46136Y103692D01*
D02*
G37*
G36*
X42136D02*
X42355Y103507D01*
X42451Y103439D01*
X42539Y103389D01*
X42618Y103355D01*
X42689Y103337D01*
X42752Y103337D01*
X42805Y103353D01*
X42851Y103386D01*
X42014Y102549D01*
X42047Y102594D01*
X42063Y102648D01*
X42063Y102711D01*
X42046Y102782D01*
X42011Y102861D01*
X41961Y102949D01*
X41893Y103045D01*
X41809Y103150D01*
X41590Y103385D01*
X42015Y103810D01*
X42136Y103692D01*
D02*
G37*
G36*
X39346Y103171D02*
X39373Y103148D01*
X39412Y103129D01*
X39461Y103111D01*
X39521Y103097D01*
X39592Y103085D01*
X39674Y103076D01*
X39870Y103065D01*
X39985Y103064D01*
Y102464D01*
X39870Y102462D01*
X39592Y102443D01*
X39521Y102431D01*
X39461Y102416D01*
X39412Y102399D01*
X39373Y102379D01*
X39346Y102357D01*
X39330Y102332D01*
Y103196D01*
X39346Y103171D01*
D02*
G37*
G36*
X-200Y102280D02*
X-192Y102176D01*
X-177Y102076D01*
X-155Y101981D01*
X-127Y101891D01*
X-93Y101806D01*
X-52Y101725D01*
X-5Y101650D01*
X48Y101579D01*
X109Y101513D01*
X-316Y101089D01*
X-381Y101149D01*
X-452Y101203D01*
X-527Y101250D01*
X-608Y101291D01*
X-693Y101325D01*
X-783Y101353D01*
X-878Y101374D01*
X-978Y101389D01*
X-1083Y101398D01*
X-1192Y101400D01*
X-202Y102390D01*
X-200Y102280D01*
D02*
G37*
G36*
X42136Y99592D02*
X42355Y99407D01*
X42451Y99339D01*
X42539Y99288D01*
X42618Y99255D01*
X42689Y99237D01*
X42752Y99237D01*
X42805Y99253D01*
X42851Y99286D01*
X42014Y98449D01*
X42047Y98494D01*
X42063Y98549D01*
X42063Y98611D01*
X42046Y98682D01*
X42011Y98761D01*
X41961Y98849D01*
X41893Y98945D01*
X41809Y99050D01*
X41590Y99285D01*
X42015Y99710D01*
X42136Y99592D01*
D02*
G37*
G36*
X47884Y99040D02*
X47912Y98989D01*
X47958Y98945D01*
X48023Y98906D01*
X48106Y98874D01*
X48208Y98847D01*
X48328Y98827D01*
X48467Y98812D01*
X48800Y98800D01*
Y97800D01*
X48624Y97797D01*
X48328Y97773D01*
X48208Y97753D01*
X48106Y97726D01*
X48023Y97694D01*
X47958Y97655D01*
X47912Y97611D01*
X47884Y97560D01*
X47875Y97504D01*
Y99096D01*
X47884Y99040D01*
D02*
G37*
G36*
X47417Y97314D02*
X47340Y97370D01*
X47249Y97397D01*
X47143Y97396D01*
X47024Y97366D01*
X46889Y97308D01*
X46741Y97222D01*
X46578Y97108D01*
X46400Y96965D01*
X46002Y96595D01*
X45295Y97302D01*
X45494Y97509D01*
X45808Y97878D01*
X45922Y98041D01*
X46008Y98189D01*
X46066Y98324D01*
X46096Y98443D01*
X46097Y98549D01*
X46070Y98640D01*
X46014Y98717D01*
X47417Y97314D01*
D02*
G37*
G36*
X-1710Y97600D02*
X-1820Y97598D01*
X-1924Y97589D01*
X-2024Y97574D01*
X-2119Y97553D01*
X-2209Y97525D01*
X-2294Y97491D01*
X-2375Y97450D01*
X-2450Y97403D01*
X-2521Y97349D01*
X-2587Y97289D01*
X-3011Y97713D01*
X-2951Y97779D01*
X-2897Y97850D01*
X-2850Y97925D01*
X-2809Y98006D01*
X-2775Y98091D01*
X-2747Y98181D01*
X-2726Y98276D01*
X-2711Y98376D01*
X-2702Y98480D01*
X-2700Y98590D01*
X-1710Y97600D01*
D02*
G37*
G36*
X39161Y97364D02*
X39194Y97363D01*
X40166Y97358D01*
Y96358D01*
X39148Y96351D01*
Y97366D01*
X39161Y97364D01*
D02*
G37*
G36*
X26504Y96665D02*
X26516Y96577D01*
X26536Y96490D01*
X26564Y96405D01*
X26600Y96320D01*
X26644Y96237D01*
X26696Y96154D01*
X26756Y96073D01*
X26824Y95993D01*
X26900Y95914D01*
X25500D01*
X25576Y95993D01*
X25644Y96073D01*
X25704Y96154D01*
X25756Y96237D01*
X25800Y96320D01*
X25836Y96405D01*
X25864Y96490D01*
X25884Y96577D01*
X25896Y96665D01*
X25900Y96754D01*
X26500D01*
X26504Y96665D01*
D02*
G37*
G36*
X-4462Y95410D02*
X-4530Y95329D01*
X-4580Y95257D01*
X-4612Y95194D01*
X-4626Y95141D01*
X-4623Y95097D01*
X-4601Y95062D01*
X-4562Y95036D01*
X-4505Y95020D01*
X-4429Y95013D01*
X-6073Y95064D01*
X-5993Y95066D01*
X-5911Y95077D01*
X-5829Y95098D01*
X-5745Y95127D01*
X-5661Y95166D01*
X-5576Y95215D01*
X-5489Y95272D01*
X-5402Y95339D01*
X-5314Y95415D01*
X-5224Y95500D01*
X-4376D01*
X-4462Y95410D01*
D02*
G37*
G36*
X39346Y95297D02*
X39373Y95274D01*
X39412Y95255D01*
X39461Y95237D01*
X39521Y95223D01*
X39592Y95211D01*
X39674Y95202D01*
X39870Y95191D01*
X39985Y95190D01*
Y94590D01*
X39870Y94589D01*
X39592Y94569D01*
X39521Y94557D01*
X39461Y94542D01*
X39412Y94525D01*
X39373Y94505D01*
X39346Y94483D01*
X39330Y94458D01*
Y95322D01*
X39346Y95297D01*
D02*
G37*
G36*
X34466Y92489D02*
X34449Y92514D01*
X34422Y92537D01*
X34384Y92557D01*
X34334Y92574D01*
X34274Y92588D01*
X34203Y92600D01*
X34122Y92609D01*
X33925Y92620D01*
X33811Y92621D01*
Y93221D01*
X33925Y93223D01*
X34203Y93243D01*
X34274Y93254D01*
X34334Y93269D01*
X34384Y93286D01*
X34422Y93306D01*
X34449Y93328D01*
X34466Y93353D01*
Y92489D01*
D02*
G37*
G36*
X118048Y93016D02*
X117944Y92841D01*
X117851Y92656D01*
X117771Y92462D01*
X117704Y92257D01*
X117648Y92043D01*
X117605Y91819D01*
X117575Y91585D01*
X117556Y91342D01*
X117550Y91088D01*
X116050D01*
X116044Y91342D01*
X115995Y91819D01*
X115952Y92043D01*
X115896Y92257D01*
X115829Y92462D01*
X115749Y92656D01*
X115656Y92841D01*
X115552Y93016D01*
X115435Y93181D01*
X118165D01*
X118048Y93016D01*
D02*
G37*
G36*
X43380Y92195D02*
X43421Y92173D01*
X43475Y92154D01*
X43539Y92138D01*
X43615Y92124D01*
X43801Y92103D01*
X44033Y92093D01*
X44166Y92092D01*
Y90692D01*
X44033Y90691D01*
X43615Y90660D01*
X43539Y90646D01*
X43475Y90630D01*
X43421Y90611D01*
X43380Y90589D01*
X43349Y90565D01*
Y92219D01*
X43380Y92195D01*
D02*
G37*
G36*
X34466Y90521D02*
X34449Y90546D01*
X34422Y90568D01*
X34384Y90588D01*
X34334Y90605D01*
X34274Y90620D01*
X34203Y90632D01*
X34122Y90641D01*
X33925Y90652D01*
X33811Y90653D01*
Y91253D01*
X33925Y91254D01*
X34203Y91274D01*
X34274Y91286D01*
X34334Y91300D01*
X34384Y91318D01*
X34422Y91337D01*
X34449Y91360D01*
X34466Y91385D01*
Y90521D01*
D02*
G37*
G36*
X4543Y89503D02*
X4492Y89485D01*
X4447Y89455D01*
X4408Y89412D01*
X4375Y89356D01*
X4348Y89289D01*
X4327Y89210D01*
X4312Y89118D01*
X4303Y89014D01*
X4300Y88898D01*
X3700D01*
X3697Y89014D01*
X3688Y89118D01*
X3673Y89210D01*
X3652Y89289D01*
X3625Y89356D01*
X3592Y89412D01*
X3553Y89455D01*
X3508Y89485D01*
X3457Y89503D01*
X3400Y89509D01*
X4600D01*
X4543Y89503D01*
D02*
G37*
G36*
X34466Y88552D02*
X34449Y88577D01*
X34422Y88600D01*
X34384Y88620D01*
X34334Y88637D01*
X34274Y88651D01*
X34203Y88663D01*
X34122Y88672D01*
X33925Y88683D01*
X33811Y88684D01*
Y89284D01*
X33925Y89286D01*
X34203Y89306D01*
X34274Y89317D01*
X34334Y89332D01*
X34384Y89349D01*
X34422Y89369D01*
X34449Y89391D01*
X34466Y89416D01*
Y88552D01*
D02*
G37*
G36*
X4303Y88486D02*
X4312Y88382D01*
X4327Y88290D01*
X4348Y88211D01*
X4375Y88143D01*
X4408Y88088D01*
X4447Y88046D01*
X4492Y88015D01*
X4543Y87997D01*
X4600Y87990D01*
X3400D01*
X3457Y87997D01*
X3508Y88015D01*
X3553Y88046D01*
X3592Y88088D01*
X3625Y88143D01*
X3652Y88211D01*
X3673Y88290D01*
X3688Y88382D01*
X3697Y88486D01*
X3700Y88603D01*
X4300D01*
X4303Y88486D01*
D02*
G37*
G36*
X-4462Y87536D02*
X-4530Y87455D01*
X-4580Y87383D01*
X-4612Y87320D01*
X-4626Y87267D01*
X-4623Y87223D01*
X-4601Y87188D01*
X-4562Y87162D01*
X-4505Y87146D01*
X-4429Y87139D01*
X-6073Y87190D01*
X-5993Y87192D01*
X-5911Y87203D01*
X-5829Y87224D01*
X-5745Y87253D01*
X-5661Y87292D01*
X-5576Y87341D01*
X-5489Y87398D01*
X-5402Y87465D01*
X-5314Y87541D01*
X-5224Y87626D01*
X-4376D01*
X-4462Y87536D01*
D02*
G37*
G36*
X14423Y87499D02*
X14363Y87433D01*
X14310Y87363D01*
X14262Y87287D01*
X14221Y87207D01*
X14187Y87121D01*
X14159Y87031D01*
X14138Y86936D01*
X14123Y86837D01*
X14114Y86732D01*
X14112Y86622D01*
X13122Y87612D01*
X13232Y87614D01*
X13337Y87623D01*
X13436Y87638D01*
X13531Y87659D01*
X13622Y87687D01*
X13707Y87722D01*
X13787Y87762D01*
X13863Y87809D01*
X13933Y87863D01*
X13999Y87923D01*
X14423Y87499D01*
D02*
G37*
G36*
X34466Y86584D02*
X34449Y86609D01*
X34422Y86631D01*
X34384Y86651D01*
X34334Y86668D01*
X34274Y86683D01*
X34203Y86695D01*
X34122Y86704D01*
X33925Y86715D01*
X33811Y86716D01*
Y87316D01*
X33925Y87317D01*
X34203Y87337D01*
X34274Y87349D01*
X34334Y87363D01*
X34384Y87381D01*
X34422Y87400D01*
X34449Y87423D01*
X34466Y87448D01*
Y86584D01*
D02*
G37*
G36*
Y84615D02*
X34449Y84640D01*
X34422Y84663D01*
X34384Y84683D01*
X34334Y84700D01*
X34274Y84714D01*
X34203Y84726D01*
X34122Y84735D01*
X33925Y84746D01*
X33811Y84747D01*
Y85347D01*
X33925Y85349D01*
X34203Y85369D01*
X34274Y85380D01*
X34334Y85395D01*
X34384Y85412D01*
X34422Y85432D01*
X34449Y85454D01*
X34466Y85479D01*
Y84615D01*
D02*
G37*
G36*
X4543Y85003D02*
X4492Y84985D01*
X4447Y84955D01*
X4408Y84912D01*
X4375Y84856D01*
X4348Y84789D01*
X4327Y84710D01*
X4312Y84618D01*
X4303Y84514D01*
X4300Y84398D01*
X3700D01*
X3697Y84514D01*
X3688Y84618D01*
X3673Y84710D01*
X3652Y84789D01*
X3625Y84856D01*
X3592Y84912D01*
X3553Y84955D01*
X3508Y84985D01*
X3457Y85003D01*
X3400Y85009D01*
X4600D01*
X4543Y85003D01*
D02*
G37*
G36*
X10802Y84480D02*
X10811Y84376D01*
X10826Y84276D01*
X10847Y84181D01*
X10875Y84091D01*
X10909Y84006D01*
X10950Y83925D01*
X10997Y83850D01*
X11051Y83779D01*
X11111Y83713D01*
X10687Y83289D01*
X10621Y83349D01*
X10550Y83403D01*
X10475Y83450D01*
X10394Y83491D01*
X10309Y83525D01*
X10219Y83553D01*
X10124Y83574D01*
X10024Y83589D01*
X9920Y83598D01*
X9810Y83600D01*
X10800Y84590D01*
X10802Y84480D01*
D02*
G37*
G36*
X117556Y83458D02*
X117605Y82981D01*
X117648Y82757D01*
X117704Y82543D01*
X117771Y82339D01*
X117851Y82144D01*
X117944Y81959D01*
X118048Y81784D01*
X118165Y81619D01*
X115435D01*
X115552Y81784D01*
X115656Y81959D01*
X115749Y82144D01*
X115829Y82339D01*
X115896Y82543D01*
X115952Y82757D01*
X115995Y82981D01*
X116025Y83215D01*
X116044Y83458D01*
X116050Y83712D01*
X117550D01*
X117556Y83458D01*
D02*
G37*
G36*
X37441Y82577D02*
X37390Y82559D01*
X37345Y82528D01*
X37306Y82485D01*
X37273Y82430D01*
X37246Y82363D01*
X37225Y82283D01*
X37210Y82191D01*
X37201Y82095D01*
X37210Y81998D01*
X37225Y81906D01*
X37246Y81826D01*
X37273Y81759D01*
X37306Y81704D01*
X37345Y81661D01*
X37390Y81630D01*
X37441Y81612D01*
X37498Y81606D01*
X36298D01*
X36355Y81612D01*
X36406Y81630D01*
X36451Y81661D01*
X36490Y81704D01*
X36523Y81759D01*
X36550Y81826D01*
X36571Y81906D01*
X36586Y81998D01*
X36594Y82095D01*
X36586Y82191D01*
X36571Y82283D01*
X36550Y82363D01*
X36523Y82430D01*
X36490Y82485D01*
X36451Y82528D01*
X36406Y82559D01*
X36355Y82577D01*
X36298Y82583D01*
X37498D01*
X37441Y82577D01*
D02*
G37*
G36*
X43948Y83126D02*
X43976Y83120D01*
X44017Y83114D01*
X44140Y83104D01*
X44545Y83095D01*
X44680Y83095D01*
Y81520D01*
X43934Y81480D01*
Y83134D01*
X43948Y83126D01*
D02*
G37*
G36*
X34466Y80678D02*
X34449Y80703D01*
X34422Y80726D01*
X34384Y80746D01*
X34334Y80763D01*
X34274Y80777D01*
X34203Y80789D01*
X34122Y80798D01*
X33925Y80809D01*
X33811Y80810D01*
Y81410D01*
X33925Y81412D01*
X34203Y81432D01*
X34274Y81443D01*
X34334Y81458D01*
X34384Y81475D01*
X34422Y81495D01*
X34449Y81517D01*
X34466Y81542D01*
Y80678D01*
D02*
G37*
G36*
X24118Y80665D02*
X24130Y80577D01*
X24150Y80490D01*
X24178Y80405D01*
X24214Y80320D01*
X24258Y80237D01*
X24310Y80154D01*
X24370Y80073D01*
X24438Y79993D01*
X24514Y79914D01*
X23114D01*
X23190Y79993D01*
X23258Y80073D01*
X23318Y80154D01*
X23370Y80237D01*
X23414Y80320D01*
X23450Y80405D01*
X23478Y80490D01*
X23498Y80577D01*
X23510Y80665D01*
X23514Y80754D01*
X24114D01*
X24118Y80665D01*
D02*
G37*
G36*
X41791Y80559D02*
X42649Y80501D01*
X42840Y80500D01*
Y79500D01*
X42643Y79493D01*
X42451Y79472D01*
X42266Y79436D01*
X42086Y79387D01*
X41913Y79323D01*
X41745Y79245D01*
X41583Y79154D01*
X41427Y79048D01*
X41277Y78927D01*
X41132Y78793D01*
X41632Y80000D01*
X41767Y80572D01*
X41791Y80559D01*
D02*
G37*
G36*
X39161Y79648D02*
X39194Y79647D01*
X40166Y79642D01*
Y78642D01*
X39148Y78634D01*
Y79649D01*
X39161Y79648D01*
D02*
G37*
G36*
X-2514Y76500D02*
X-2593Y76576D01*
X-2673Y76644D01*
X-2754Y76704D01*
X-2837Y76756D01*
X-2920Y76800D01*
X-3005Y76836D01*
X-3090Y76864D01*
X-3177Y76884D01*
X-3248Y76894D01*
X-3313Y76888D01*
X-3405Y76873D01*
X-3485Y76852D01*
X-3552Y76825D01*
X-3607Y76792D01*
X-3650Y76753D01*
X-3681Y76708D01*
X-3699Y76657D01*
X-3705Y76600D01*
Y77800D01*
X-3699Y77743D01*
X-3681Y77692D01*
X-3650Y77647D01*
X-3607Y77608D01*
X-3552Y77575D01*
X-3485Y77548D01*
X-3405Y77527D01*
X-3313Y77512D01*
X-3248Y77506D01*
X-3177Y77516D01*
X-3090Y77536D01*
X-3005Y77564D01*
X-2920Y77600D01*
X-2837Y77644D01*
X-2754Y77696D01*
X-2673Y77756D01*
X-2593Y77824D01*
X-2514Y77900D01*
Y76500D01*
D02*
G37*
G36*
X46459Y79405D02*
X46828Y79092D01*
X46991Y78978D01*
X47139Y78892D01*
X47274Y78834D01*
X47393Y78804D01*
X47499Y78803D01*
X47590Y78830D01*
X47667Y78886D01*
X46264Y77483D01*
X46320Y77560D01*
X46347Y77651D01*
X46346Y77757D01*
X46316Y77876D01*
X46258Y78011D01*
X46172Y78159D01*
X46058Y78322D01*
X45915Y78500D01*
X45545Y78898D01*
X46252Y79605D01*
X46459Y79405D01*
D02*
G37*
G36*
X42284Y77302D02*
X42278Y77359D01*
X42259Y77409D01*
X42227Y77454D01*
X42183Y77493D01*
X42126Y77526D01*
X42057Y77552D01*
X41975Y77573D01*
X41880Y77588D01*
X41772Y77597D01*
X41652Y77600D01*
Y78200D01*
X41772Y78203D01*
X41880Y78212D01*
X41975Y78227D01*
X42057Y78248D01*
X42126Y78274D01*
X42183Y78307D01*
X42227Y78346D01*
X42259Y78391D01*
X42278Y78441D01*
X42284Y78498D01*
Y77302D01*
D02*
G37*
G36*
X39346Y77580D02*
X39373Y77558D01*
X39412Y77538D01*
X39461Y77521D01*
X39521Y77506D01*
X39592Y77495D01*
X39674Y77485D01*
X39870Y77475D01*
X39985Y77473D01*
Y76873D01*
X39870Y76872D01*
X39592Y76852D01*
X39521Y76840D01*
X39461Y76826D01*
X39412Y76809D01*
X39373Y76789D01*
X39346Y76766D01*
X39330Y76741D01*
Y77605D01*
X39346Y77580D01*
D02*
G37*
G36*
X34466Y76741D02*
X34449Y76766D01*
X34422Y76789D01*
X34384Y76809D01*
X34334Y76826D01*
X34274Y76840D01*
X34203Y76852D01*
X34122Y76861D01*
X33925Y76872D01*
X33811Y76873D01*
Y77473D01*
X33925Y77475D01*
X34203Y77495D01*
X34274Y77506D01*
X34334Y77521D01*
X34384Y77538D01*
X34422Y77558D01*
X34449Y77580D01*
X34466Y77605D01*
Y76741D01*
D02*
G37*
G36*
X31279Y77959D02*
X31297Y77857D01*
X31327Y77767D01*
X31369Y77689D01*
X31423Y77623D01*
X31489Y77569D01*
X31567Y77527D01*
X31657Y77497D01*
X31759Y77479D01*
X31873Y77473D01*
X31698Y76873D01*
X31579Y76869D01*
X31465Y76856D01*
X31353Y76835D01*
X31246Y76805D01*
X31141Y76767D01*
X31041Y76721D01*
X30944Y76665D01*
X30850Y76602D01*
X30760Y76530D01*
X30673Y76449D01*
X30249Y76873D01*
X30330Y76960D01*
X30402Y77050D01*
X30465Y77144D01*
X30521Y77241D01*
X30567Y77342D01*
X30605Y77446D01*
X30635Y77553D01*
X30656Y77665D01*
X30669Y77779D01*
X30673Y77898D01*
X31273Y78073D01*
X31279Y77959D01*
D02*
G37*
G36*
X-214Y76154D02*
Y65800D01*
X-159Y65527D01*
X-5Y65295D01*
X7986Y57304D01*
Y57051D01*
X7967Y57008D01*
X7965Y56901D01*
X7958Y56822D01*
X7949Y56768D01*
X7849Y56748D01*
X7551Y56549D01*
X7352Y56251D01*
X7282Y55900D01*
Y54900D01*
X7352Y54549D01*
X7551Y54251D01*
X7849Y54052D01*
X8200Y53982D01*
X9200D01*
X9551Y54052D01*
X9849Y54251D01*
X10048Y54549D01*
X10118Y54900D01*
Y55900D01*
X10048Y56251D01*
X9849Y56549D01*
X9551Y56748D01*
X9450Y56768D01*
X9442Y56822D01*
X9436Y56901D01*
X9433Y57008D01*
X9414Y57051D01*
Y57600D01*
X9359Y57873D01*
X9205Y58105D01*
X1214Y66096D01*
Y71148D01*
X1425Y71219D01*
X1714Y71231D01*
X1921Y70921D01*
X2301Y70667D01*
X2750Y70578D01*
X4798D01*
X4823Y70566D01*
X4877Y70535D01*
X4938Y70494D01*
X5108Y70352D01*
X5203Y70261D01*
X5247Y70244D01*
X5280Y70210D01*
X5293Y70194D01*
X5297Y70194D01*
X8664Y66826D01*
X8896Y66671D01*
X9169Y66617D01*
X30000D01*
Y49963D01*
X29538Y49771D01*
X26805Y52505D01*
X26573Y52659D01*
X26300Y52714D01*
X12900D01*
X12627Y52659D01*
X12395Y52505D01*
X9865Y49974D01*
X9367Y50023D01*
X9309Y50109D01*
X8846Y50419D01*
X8300Y50527D01*
X6300D01*
X5754Y50419D01*
X5291Y50109D01*
X5278Y50091D01*
X4598Y49973D01*
X4514Y50036D01*
Y51004D01*
X5205Y51695D01*
X5359Y51927D01*
X5414Y52200D01*
Y53749D01*
X5433Y53792D01*
X5435Y53899D01*
X5442Y53978D01*
X5451Y54032D01*
X5551Y54052D01*
X5849Y54251D01*
X6048Y54549D01*
X6118Y54900D01*
Y55900D01*
X6048Y56251D01*
X5849Y56549D01*
X5551Y56748D01*
X5200Y56818D01*
X4200D01*
X3914Y56761D01*
X3757Y56813D01*
X3414Y57058D01*
Y59800D01*
X3359Y60073D01*
X3205Y60305D01*
X-6486Y69996D01*
Y74722D01*
X-6467Y74765D01*
X-6464Y74869D01*
X-6458Y74943D01*
X-6456Y74956D01*
X-4684D01*
X-4144Y75064D01*
X-3686Y75370D01*
X-3380Y75828D01*
X-3353Y75967D01*
X-3352Y75969D01*
X-3350Y75973D01*
X-3336Y75998D01*
X-3313Y76030D01*
X-3275Y76068D01*
X-3219Y76108D01*
X-3157Y76135D01*
X-2817Y76188D01*
X-2800Y76182D01*
X-2793Y76180D01*
X-2346Y75881D01*
X-1800Y75773D01*
X-1254Y75881D01*
X-791Y76191D01*
X-714Y76306D01*
X-214Y76154D01*
D02*
G37*
G36*
X48035Y76994D02*
X47975Y76927D01*
X47922Y76846D01*
X47877Y76752D01*
X47838Y76644D01*
X47806Y76523D01*
X47782Y76388D01*
X47764Y76240D01*
X47754Y76078D01*
X47753Y76060D01*
X47754Y76042D01*
X47782Y75732D01*
X47806Y75597D01*
X47838Y75476D01*
X47877Y75368D01*
X47922Y75274D01*
X47975Y75193D01*
X48035Y75126D01*
X48102Y75072D01*
X46398D01*
X46465Y75126D01*
X46525Y75193D01*
X46578Y75274D01*
X46623Y75368D01*
X46662Y75476D01*
X46694Y75597D01*
X46718Y75732D01*
X46736Y75880D01*
X46747Y76042D01*
X46747Y76060D01*
X46747Y76078D01*
X46718Y76388D01*
X46694Y76523D01*
X46662Y76644D01*
X46623Y76752D01*
X46578Y76846D01*
X46525Y76927D01*
X46465Y76994D01*
X46398Y77048D01*
X48102D01*
X48035Y76994D01*
D02*
G37*
G36*
X-6657Y75382D02*
X-6708Y75364D01*
X-6753Y75333D01*
X-6792Y75291D01*
X-6825Y75235D01*
X-6852Y75168D01*
X-6873Y75089D01*
X-6888Y74997D01*
X-6897Y74893D01*
X-6900Y74776D01*
X-7500D01*
X-7503Y74893D01*
X-7512Y74997D01*
X-7527Y75089D01*
X-7548Y75168D01*
X-7575Y75235D01*
X-7608Y75291D01*
X-7647Y75333D01*
X-7692Y75364D01*
X-7743Y75382D01*
X-7800Y75388D01*
X-6600D01*
X-6657Y75382D01*
D02*
G37*
G36*
X39346Y75612D02*
X39373Y75589D01*
X39412Y75570D01*
X39461Y75552D01*
X39521Y75538D01*
X39592Y75526D01*
X39674Y75517D01*
X39870Y75506D01*
X39985Y75505D01*
Y74905D01*
X39870Y74904D01*
X39592Y74884D01*
X39521Y74872D01*
X39461Y74857D01*
X39412Y74840D01*
X39373Y74820D01*
X39346Y74798D01*
X39330Y74773D01*
Y75637D01*
X39346Y75612D01*
D02*
G37*
G36*
X29211Y74987D02*
X29151Y74921D01*
X29097Y74850D01*
X29050Y74775D01*
X29009Y74694D01*
X28975Y74609D01*
X28947Y74519D01*
X28926Y74424D01*
X28911Y74324D01*
X28902Y74220D01*
X28900Y74110D01*
X27910Y75100D01*
X28020Y75102D01*
X28124Y75111D01*
X28224Y75126D01*
X28319Y75147D01*
X28409Y75175D01*
X28494Y75209D01*
X28575Y75250D01*
X28650Y75297D01*
X28721Y75351D01*
X28787Y75411D01*
X29211Y74987D01*
D02*
G37*
G36*
X42284Y73622D02*
X42278Y73679D01*
X42259Y73729D01*
X42227Y73774D01*
X42183Y73813D01*
X42126Y73846D01*
X42057Y73872D01*
X41975Y73893D01*
X41880Y73908D01*
X41772Y73917D01*
X41652Y73920D01*
Y74520D01*
X41772Y74523D01*
X41880Y74532D01*
X41975Y74547D01*
X42057Y74568D01*
X42126Y74594D01*
X42183Y74627D01*
X42227Y74666D01*
X42259Y74711D01*
X42278Y74761D01*
X42284Y74818D01*
Y73622D01*
D02*
G37*
G36*
X71999Y74303D02*
X72034Y74132D01*
X72076Y73981D01*
X72126Y73850D01*
X72183Y73739D01*
X72248Y73649D01*
X72321Y73579D01*
X72402Y73528D01*
X72490Y73498D01*
X72586Y73488D01*
X70573D01*
X70667Y73498D01*
X70749Y73528D01*
X70818Y73578D01*
X70875Y73649D01*
X70920Y73739D01*
X70952Y73850D01*
X70972Y73980D01*
X70980Y74131D01*
X70976Y74302D01*
X70959Y74492D01*
X71972Y74494D01*
X71999Y74303D01*
D02*
G37*
G36*
X27186Y73400D02*
X27107Y73476D01*
X27027Y73544D01*
X26946Y73604D01*
X26863Y73656D01*
X26780Y73700D01*
X26695Y73736D01*
X26610Y73764D01*
X26523Y73784D01*
X26435Y73796D01*
X26346Y73800D01*
Y74400D01*
X26435Y74404D01*
X26523Y74416D01*
X26610Y74436D01*
X26695Y74464D01*
X26780Y74500D01*
X26863Y74544D01*
X26946Y74596D01*
X27027Y74656D01*
X27107Y74724D01*
X27186Y74800D01*
Y73400D01*
D02*
G37*
G36*
X39346Y73643D02*
X39373Y73621D01*
X39412Y73601D01*
X39461Y73584D01*
X39521Y73569D01*
X39592Y73558D01*
X39674Y73548D01*
X39870Y73538D01*
X39985Y73536D01*
Y72936D01*
X39870Y72935D01*
X39592Y72915D01*
X39521Y72903D01*
X39461Y72889D01*
X39412Y72872D01*
X39373Y72852D01*
X39346Y72829D01*
X39330Y72804D01*
Y73668D01*
X39346Y73643D01*
D02*
G37*
G36*
X48035Y73314D02*
X47975Y73247D01*
X47922Y73166D01*
X47877Y73072D01*
X47838Y72964D01*
X47806Y72843D01*
X47782Y72708D01*
X47764Y72560D01*
X47754Y72398D01*
X47753Y72380D01*
X47754Y72362D01*
X47782Y72052D01*
X47806Y71917D01*
X47838Y71796D01*
X47877Y71688D01*
X47922Y71594D01*
X47975Y71513D01*
X48035Y71446D01*
X48102Y71392D01*
X46398D01*
X46465Y71446D01*
X46525Y71513D01*
X46578Y71594D01*
X46623Y71688D01*
X46662Y71796D01*
X46694Y71917D01*
X46718Y72052D01*
X46736Y72200D01*
X46747Y72362D01*
X46747Y72380D01*
X46747Y72398D01*
X46718Y72708D01*
X46694Y72843D01*
X46662Y72964D01*
X46623Y73072D01*
X46578Y73166D01*
X46525Y73247D01*
X46465Y73314D01*
X46398Y73368D01*
X48102D01*
X48035Y73314D01*
D02*
G37*
G36*
X32780Y71056D02*
X32715Y70986D01*
X32658Y70917D01*
X32609Y70847D01*
X32568Y70777D01*
X32535Y70706D01*
X32510Y70635D01*
X32493Y70564D01*
X32483Y70492D01*
X32482Y70420D01*
X32489Y70347D01*
X31647Y71189D01*
X31720Y71182D01*
X31792Y71183D01*
X31864Y71193D01*
X31935Y71210D01*
X32006Y71235D01*
X32077Y71268D01*
X32147Y71309D01*
X32217Y71358D01*
X32287Y71415D01*
X32356Y71480D01*
X32780Y71056D01*
D02*
G37*
G36*
X34466Y70836D02*
X34449Y70861D01*
X34422Y70883D01*
X34384Y70903D01*
X34334Y70920D01*
X34274Y70935D01*
X34203Y70947D01*
X34122Y70956D01*
X33925Y70967D01*
X33811Y70968D01*
Y71568D01*
X33925Y71569D01*
X34203Y71589D01*
X34274Y71601D01*
X34334Y71615D01*
X34384Y71633D01*
X34422Y71652D01*
X34449Y71675D01*
X34466Y71700D01*
Y70836D01*
D02*
G37*
G36*
X5858Y71408D02*
X5821Y71373D01*
X5802Y71329D01*
X5801Y71275D01*
X5817Y71213D01*
X5850Y71141D01*
X5902Y71061D01*
X5971Y70971D01*
X6057Y70872D01*
X6161Y70763D01*
X5503Y70573D01*
X5397Y70675D01*
X5199Y70839D01*
X5107Y70902D01*
X5020Y70952D01*
X4938Y70990D01*
X4860Y71014D01*
X4786Y71025D01*
X4718Y71024D01*
X4654Y71009D01*
X5912Y71434D01*
X5858Y71408D01*
D02*
G37*
G36*
X42062Y71667D02*
X42260Y71501D01*
X42344Y71446D01*
X42418Y71410D01*
X42482Y71392D01*
X42536Y71392D01*
X42579Y71410D01*
X42613Y71447D01*
X42636Y71503D01*
X42264Y70199D01*
X42276Y70265D01*
X42276Y70336D01*
X42264Y70410D01*
X42239Y70489D01*
X42201Y70572D01*
X42151Y70658D01*
X42089Y70749D01*
X42015Y70845D01*
X41927Y70944D01*
X41828Y71048D01*
X41948Y71777D01*
X42062Y71667D01*
D02*
G37*
G36*
X118048Y71216D02*
X117944Y71041D01*
X117851Y70856D01*
X117771Y70661D01*
X117704Y70457D01*
X117648Y70243D01*
X117605Y70019D01*
X117575Y69785D01*
X117556Y69542D01*
X117550Y69288D01*
X116050D01*
X116044Y69542D01*
X115995Y70019D01*
X115952Y70243D01*
X115896Y70457D01*
X115829Y70661D01*
X115749Y70856D01*
X115656Y71041D01*
X115552Y71216D01*
X115435Y71381D01*
X118165D01*
X118048Y71216D01*
D02*
G37*
G36*
X39346Y69706D02*
X39373Y69684D01*
X39412Y69664D01*
X39461Y69647D01*
X39521Y69632D01*
X39592Y69621D01*
X39674Y69611D01*
X39870Y69601D01*
X39985Y69599D01*
Y68999D01*
X39870Y68998D01*
X39592Y68978D01*
X39521Y68966D01*
X39461Y68952D01*
X39412Y68935D01*
X39373Y68915D01*
X39346Y68892D01*
X39330Y68867D01*
Y69731D01*
X39346Y69706D01*
D02*
G37*
G36*
X158095Y69043D02*
X158114Y68992D01*
X158144Y68947D01*
X158187Y68908D01*
X158242Y68875D01*
X158310Y68848D01*
X158389Y68827D01*
X158481Y68812D01*
X158585Y68803D01*
X158701Y68800D01*
Y68200D01*
X158585Y68197D01*
X158481Y68188D01*
X158389Y68173D01*
X158310Y68152D01*
X158242Y68125D01*
X158187Y68092D01*
X158144Y68053D01*
X158114Y68008D01*
X158095Y67957D01*
X158089Y67900D01*
Y69100D01*
X158095Y69043D01*
D02*
G37*
G36*
X48035Y69634D02*
X47975Y69567D01*
X47922Y69486D01*
X47877Y69392D01*
X47838Y69284D01*
X47806Y69163D01*
X47782Y69028D01*
X47764Y68880D01*
X47754Y68718D01*
X47753Y68700D01*
X47754Y68682D01*
X47782Y68372D01*
X47806Y68237D01*
X47838Y68116D01*
X47877Y68008D01*
X47922Y67914D01*
X47975Y67833D01*
X48035Y67766D01*
X48102Y67712D01*
X46398D01*
X46465Y67766D01*
X46525Y67833D01*
X46578Y67914D01*
X46623Y68008D01*
X46662Y68116D01*
X46694Y68237D01*
X46718Y68372D01*
X46736Y68520D01*
X46747Y68682D01*
X46747Y68700D01*
X46747Y68718D01*
X46718Y69028D01*
X46694Y69163D01*
X46662Y69284D01*
X46623Y69392D01*
X46578Y69486D01*
X46525Y69567D01*
X46465Y69634D01*
X46398Y69688D01*
X48102D01*
X48035Y69634D01*
D02*
G37*
G36*
X42386Y68152D02*
X42605Y67967D01*
X42701Y67899D01*
X42789Y67848D01*
X42868Y67814D01*
X42939Y67797D01*
X43001Y67797D01*
X43055Y67813D01*
X43101Y67846D01*
X42264Y67009D01*
X42297Y67054D01*
X42313Y67109D01*
X42313Y67171D01*
X42296Y67242D01*
X42261Y67321D01*
X42211Y67409D01*
X42143Y67505D01*
X42059Y67610D01*
X41840Y67845D01*
X42265Y68270D01*
X42386Y68152D01*
D02*
G37*
G36*
X39346Y67738D02*
X39372Y67715D01*
X39408Y67696D01*
X39454Y67678D01*
X39510Y67664D01*
X39577Y67652D01*
X39653Y67643D01*
X39836Y67632D01*
X39942Y67631D01*
Y67031D01*
X39836Y67030D01*
X39577Y67010D01*
X39510Y66998D01*
X39454Y66983D01*
X39408Y66966D01*
X39372Y66946D01*
X39346Y66924D01*
X39330Y66899D01*
Y67763D01*
X39346Y67738D01*
D02*
G37*
G36*
X34466Y66899D02*
X34449Y66924D01*
X34422Y66946D01*
X34384Y66966D01*
X34334Y66983D01*
X34274Y66998D01*
X34203Y67010D01*
X34122Y67019D01*
X33925Y67030D01*
X33811Y67031D01*
Y67631D01*
X33925Y67632D01*
X34203Y67652D01*
X34274Y67664D01*
X34334Y67678D01*
X34384Y67696D01*
X34422Y67715D01*
X34449Y67738D01*
X34466Y67763D01*
Y66899D01*
D02*
G37*
G36*
X37441Y64861D02*
X37390Y64842D01*
X37345Y64812D01*
X37306Y64769D01*
X37273Y64714D01*
X37246Y64646D01*
X37225Y64567D01*
X37210Y64475D01*
X37201Y64371D01*
X37198Y64255D01*
X36598D01*
X36595Y64371D01*
X36586Y64475D01*
X36571Y64567D01*
X36550Y64646D01*
X36523Y64714D01*
X36490Y64769D01*
X36451Y64812D01*
X36406Y64842D01*
X36355Y64861D01*
X36298Y64867D01*
X37498D01*
X37441Y64861D01*
D02*
G37*
G36*
X48035Y65954D02*
X47975Y65887D01*
X47922Y65806D01*
X47877Y65712D01*
X47838Y65604D01*
X47806Y65483D01*
X47782Y65348D01*
X47764Y65200D01*
X47754Y65038D01*
X47753Y65020D01*
X47754Y65002D01*
X47782Y64692D01*
X47806Y64557D01*
X47838Y64436D01*
X47877Y64328D01*
X47922Y64234D01*
X47975Y64153D01*
X48035Y64086D01*
X48102Y64032D01*
X46398D01*
X46465Y64086D01*
X46525Y64153D01*
X46578Y64234D01*
X46623Y64328D01*
X46662Y64436D01*
X46694Y64557D01*
X46718Y64692D01*
X46736Y64840D01*
X46747Y65002D01*
X46747Y65020D01*
X46747Y65038D01*
X46718Y65348D01*
X46694Y65483D01*
X46662Y65604D01*
X46623Y65712D01*
X46578Y65806D01*
X46525Y65887D01*
X46465Y65954D01*
X46398Y66008D01*
X48102D01*
X48035Y65954D01*
D02*
G37*
G36*
X42386Y64472D02*
X42605Y64287D01*
X42701Y64219D01*
X42789Y64169D01*
X42868Y64135D01*
X42939Y64117D01*
X43001Y64117D01*
X43055Y64133D01*
X43101Y64166D01*
X42264Y63329D01*
X42297Y63375D01*
X42313Y63428D01*
X42313Y63491D01*
X42296Y63562D01*
X42261Y63641D01*
X42211Y63729D01*
X42143Y63825D01*
X42059Y63930D01*
X41840Y64165D01*
X42265Y64590D01*
X42386Y64472D01*
D02*
G37*
G36*
X48035Y62274D02*
X47975Y62207D01*
X47922Y62126D01*
X47877Y62032D01*
X47838Y61924D01*
X47806Y61803D01*
X47782Y61668D01*
X47764Y61520D01*
X47754Y61358D01*
X47753Y61340D01*
X47754Y61322D01*
X47782Y61012D01*
X47806Y60877D01*
X47838Y60756D01*
X47877Y60648D01*
X47922Y60554D01*
X47975Y60473D01*
X48035Y60406D01*
X48102Y60352D01*
X46398D01*
X46465Y60406D01*
X46525Y60473D01*
X46578Y60554D01*
X46623Y60648D01*
X46662Y60756D01*
X46694Y60877D01*
X46718Y61012D01*
X46736Y61160D01*
X46747Y61322D01*
X46747Y61340D01*
X46747Y61358D01*
X46718Y61668D01*
X46694Y61803D01*
X46662Y61924D01*
X46623Y62032D01*
X46578Y62126D01*
X46525Y62207D01*
X46465Y62274D01*
X46398Y62328D01*
X48102D01*
X48035Y62274D01*
D02*
G37*
G36*
X42284Y58902D02*
X42278Y58959D01*
X42259Y59009D01*
X42227Y59054D01*
X42183Y59093D01*
X42126Y59126D01*
X42057Y59152D01*
X41975Y59173D01*
X41880Y59188D01*
X41772Y59197D01*
X41652Y59200D01*
Y59800D01*
X41772Y59803D01*
X41880Y59812D01*
X41975Y59827D01*
X42057Y59848D01*
X42126Y59874D01*
X42183Y59907D01*
X42227Y59946D01*
X42259Y59991D01*
X42278Y60041D01*
X42284Y60098D01*
Y58902D01*
D02*
G37*
G36*
X48035Y58594D02*
X47975Y58527D01*
X47922Y58446D01*
X47877Y58352D01*
X47838Y58244D01*
X47806Y58123D01*
X47782Y57988D01*
X47764Y57840D01*
X47754Y57678D01*
X47750Y57502D01*
X46750D01*
X46747Y57678D01*
X46718Y57988D01*
X46694Y58123D01*
X46662Y58244D01*
X46623Y58352D01*
X46578Y58446D01*
X46525Y58527D01*
X46465Y58594D01*
X46398Y58648D01*
X48102D01*
X48035Y58594D01*
D02*
G37*
G36*
X9003Y56877D02*
X9012Y56770D01*
X9027Y56675D01*
X9048Y56593D01*
X9074Y56524D01*
X9107Y56467D01*
X9146Y56423D01*
X9190Y56391D01*
X9241Y56372D01*
X9298Y56366D01*
X8102D01*
X8159Y56372D01*
X8209Y56391D01*
X8254Y56423D01*
X8293Y56467D01*
X8326Y56524D01*
X8352Y56593D01*
X8373Y56675D01*
X8388Y56770D01*
X8397Y56877D01*
X8400Y56998D01*
X9000D01*
X9003Y56877D01*
D02*
G37*
G36*
X5241Y54428D02*
X5190Y54409D01*
X5146Y54377D01*
X5107Y54333D01*
X5074Y54276D01*
X5048Y54207D01*
X5027Y54125D01*
X5012Y54030D01*
X5003Y53922D01*
X5000Y53802D01*
X4400D01*
X4397Y53922D01*
X4388Y54030D01*
X4373Y54125D01*
X4352Y54207D01*
X4326Y54276D01*
X4293Y54333D01*
X4254Y54377D01*
X4210Y54409D01*
X4159Y54428D01*
X4102Y54434D01*
X5298D01*
X5241Y54428D01*
D02*
G37*
G36*
X35502Y53980D02*
X35511Y53876D01*
X35526Y53776D01*
X35547Y53681D01*
X35575Y53591D01*
X35609Y53506D01*
X35650Y53425D01*
X35697Y53350D01*
X35751Y53279D01*
X35811Y53213D01*
X35387Y52789D01*
X35321Y52849D01*
X35250Y52903D01*
X35175Y52950D01*
X35094Y52991D01*
X35009Y53025D01*
X34919Y53053D01*
X34824Y53074D01*
X34724Y53089D01*
X34620Y53098D01*
X34510Y53100D01*
X35500Y54090D01*
X35502Y53980D01*
D02*
G37*
G36*
X9732Y48407D02*
X9648Y48319D01*
X9506Y48145D01*
X9449Y48059D01*
X9401Y47974D01*
X9362Y47890D01*
X9332Y47806D01*
X9311Y47723D01*
X9299Y47640D01*
X9295Y47559D01*
X9270Y49228D01*
X9275Y49151D01*
X9290Y49092D01*
X9314Y49051D01*
X9347Y49027D01*
X9388Y49021D01*
X9439Y49033D01*
X9499Y49062D01*
X9567Y49109D01*
X9645Y49174D01*
X9732Y49256D01*
Y48407D01*
D02*
G37*
G36*
X38103Y48886D02*
X38112Y48782D01*
X38127Y48690D01*
X38148Y48611D01*
X38175Y48544D01*
X38208Y48488D01*
X38247Y48445D01*
X38292Y48415D01*
X38343Y48397D01*
X38400Y48390D01*
X37200D01*
X37257Y48397D01*
X37308Y48415D01*
X37353Y48445D01*
X37392Y48488D01*
X37425Y48544D01*
X37452Y48611D01*
X37473Y48690D01*
X37488Y48782D01*
X37497Y48886D01*
X37500Y49003D01*
X38100D01*
X38103Y48886D01*
D02*
G37*
G36*
X25297Y47443D02*
X25315Y47392D01*
X25346Y47347D01*
X25388Y47308D01*
X25444Y47275D01*
X25511Y47248D01*
X25590Y47227D01*
X25682Y47212D01*
X25786Y47203D01*
X25903Y47200D01*
Y46600D01*
X25786Y46597D01*
X25682Y46588D01*
X25590Y46573D01*
X25511Y46552D01*
X25444Y46525D01*
X25388Y46492D01*
X25346Y46453D01*
X25315Y46408D01*
X25297Y46357D01*
X25291Y46300D01*
Y47500D01*
X25297Y47443D01*
D02*
G37*
G36*
X22309Y46300D02*
X22303Y46357D01*
X22285Y46408D01*
X22254Y46453D01*
X22212Y46492D01*
X22156Y46525D01*
X22089Y46552D01*
X22010Y46573D01*
X21918Y46588D01*
X21814Y46597D01*
X21698Y46600D01*
Y47200D01*
X21814Y47203D01*
X21918Y47212D01*
X22010Y47227D01*
X22089Y47248D01*
X22156Y47275D01*
X22212Y47308D01*
X22254Y47347D01*
X22285Y47392D01*
X22303Y47443D01*
X22309Y47500D01*
Y46300D01*
D02*
G37*
G36*
X20597Y47443D02*
X20616Y47392D01*
X20646Y47347D01*
X20689Y47308D01*
X20744Y47275D01*
X20811Y47248D01*
X20891Y47227D01*
X20983Y47212D01*
X21087Y47203D01*
X21203Y47200D01*
Y46600D01*
X21087Y46597D01*
X20983Y46588D01*
X20891Y46573D01*
X20811Y46552D01*
X20744Y46525D01*
X20689Y46492D01*
X20646Y46453D01*
X20616Y46408D01*
X20597Y46357D01*
X20591Y46300D01*
Y47500D01*
X20597Y47443D01*
D02*
G37*
G36*
X13609Y44949D02*
X13605Y45027D01*
X13592Y45088D01*
X13570Y45132D01*
X13539Y45158D01*
X13500Y45167D01*
X13452Y45158D01*
X13395Y45132D01*
X13330Y45088D01*
X13256Y45027D01*
X13173Y44949D01*
Y45797D01*
X13256Y45884D01*
X13330Y45970D01*
X13395Y46057D01*
X13452Y46142D01*
X13500Y46227D01*
X13539Y46312D01*
X13570Y46396D01*
X13592Y46480D01*
X13605Y46563D01*
X13609Y46646D01*
Y44949D01*
D02*
G37*
G36*
X-6301Y45160D02*
X-6289Y45077D01*
X-6268Y44994D01*
X-6238Y44910D01*
X-6199Y44826D01*
X-6151Y44741D01*
X-6094Y44655D01*
X-6027Y44568D01*
X-5952Y44481D01*
X-5868Y44393D01*
Y43544D01*
X-5955Y43626D01*
X-6033Y43691D01*
X-6101Y43738D01*
X-6161Y43767D01*
X-6211Y43779D01*
X-6253Y43773D01*
X-6286Y43749D01*
X-6310Y43708D01*
X-6324Y43649D01*
X-6330Y43572D01*
X-6305Y45241D01*
X-6301Y45160D01*
D02*
G37*
G36*
X34104Y42431D02*
X34117Y42274D01*
X34139Y42129D01*
X34170Y41996D01*
X34209Y41874D01*
X34258Y41764D01*
X34315Y41665D01*
X34380Y41578D01*
X34455Y41502D01*
X34538Y41438D01*
X32662D01*
X32745Y41502D01*
X32820Y41578D01*
X32885Y41665D01*
X32942Y41764D01*
X32991Y41874D01*
X33030Y41996D01*
X33061Y42129D01*
X33083Y42274D01*
X33096Y42431D01*
X33100Y42599D01*
X34100D01*
X34104Y42431D01*
D02*
G37*
G36*
X26513Y39500D02*
X26507Y39557D01*
X26489Y39608D01*
X26458Y39653D01*
X26416Y39692D01*
X26360Y39725D01*
X26293Y39752D01*
X26214Y39773D01*
X26122Y39788D01*
X26018Y39797D01*
X25901Y39800D01*
Y40400D01*
X26018Y40403D01*
X26122Y40412D01*
X26214Y40427D01*
X26293Y40448D01*
X26360Y40475D01*
X26416Y40508D01*
X26458Y40547D01*
X26489Y40592D01*
X26507Y40643D01*
X26513Y40700D01*
Y39500D01*
D02*
G37*
G36*
X24857Y40724D02*
X24937Y40656D01*
X25018Y40596D01*
X25100Y40544D01*
X25184Y40500D01*
X25269Y40464D01*
X25354Y40436D01*
X25441Y40416D01*
X25529Y40404D01*
X25618Y40400D01*
Y39800D01*
X25529Y39796D01*
X25441Y39784D01*
X25354Y39764D01*
X25269Y39736D01*
X25184Y39700D01*
X25100Y39656D01*
X25018Y39604D01*
X24937Y39544D01*
X24857Y39476D01*
X24778Y39400D01*
Y40800D01*
X24857Y40724D01*
D02*
G37*
G36*
X23350Y39400D02*
X23271Y39476D01*
X23191Y39544D01*
X23109Y39604D01*
X23027Y39656D01*
X22944Y39700D01*
X22859Y39736D01*
X22773Y39764D01*
X22687Y39784D01*
X22599Y39796D01*
X22510Y39800D01*
Y40400D01*
X22599Y40404D01*
X22687Y40416D01*
X22773Y40436D01*
X22859Y40464D01*
X22944Y40500D01*
X23027Y40544D01*
X23109Y40596D01*
X23191Y40656D01*
X23271Y40724D01*
X23350Y40800D01*
Y39400D01*
D02*
G37*
G36*
X10086Y39000D02*
X10007Y39076D01*
X9927Y39144D01*
X9846Y39204D01*
X9763Y39256D01*
X9680Y39300D01*
X9595Y39336D01*
X9510Y39364D01*
X9423Y39384D01*
X9335Y39396D01*
X9246Y39400D01*
Y40000D01*
X9335Y40004D01*
X9423Y40016D01*
X9510Y40036D01*
X9595Y40064D01*
X9680Y40100D01*
X9763Y40144D01*
X9846Y40196D01*
X9927Y40256D01*
X10007Y40324D01*
X10086Y40400D01*
Y39000D01*
D02*
G37*
G36*
X-10714Y75370D02*
X-10256Y75064D01*
X-9716Y74956D01*
X-7944D01*
X-7942Y74943D01*
X-7936Y74869D01*
X-7933Y74765D01*
X-7914Y74722D01*
Y69700D01*
X-7859Y69427D01*
X-7705Y69195D01*
X1986Y59504D01*
Y41800D01*
X2041Y41527D01*
X2195Y41295D01*
X4013Y39477D01*
X3991Y39266D01*
X3879Y38904D01*
X3760Y38825D01*
X3700Y38800D01*
X3688Y38771D01*
X3661Y38755D01*
X3635Y38721D01*
X3623Y38709D01*
X3609Y38697D01*
X3590Y38685D01*
X3565Y38673D01*
X3532Y38661D01*
X3489Y38650D01*
X3437Y38641D01*
X3376Y38635D01*
X3292Y38633D01*
X3250Y38614D01*
X950D01*
X908Y38633D01*
X824Y38635D01*
X763Y38641D01*
X711Y38650D01*
X668Y38661D01*
X635Y38673D01*
X610Y38685D01*
X591Y38697D01*
X577Y38709D01*
X565Y38721D01*
X539Y38755D01*
X512Y38771D01*
X500Y38800D01*
X440Y38825D01*
X243Y38956D01*
X-50Y39015D01*
X-1256D01*
X-1258Y39028D01*
X-1264Y39103D01*
X-1267Y39206D01*
X-1286Y39249D01*
Y40100D01*
X-1341Y40373D01*
X-1495Y40605D01*
X-5538Y44647D01*
X-5555Y44691D01*
X-5631Y44771D01*
X-5691Y44841D01*
X-5741Y44906D01*
X-5781Y44967D01*
X-5813Y45024D01*
X-5837Y45075D01*
X-5854Y45121D01*
X-5864Y45163D01*
X-5870Y45200D01*
X-5872Y45258D01*
X-5873Y45259D01*
Y49100D01*
X-5981Y49646D01*
X-6291Y50109D01*
X-6754Y50419D01*
X-7300Y50527D01*
X-9300D01*
X-9846Y50419D01*
X-10309Y50109D01*
X-10619Y49646D01*
X-10727Y49100D01*
Y43700D01*
X-10619Y43154D01*
X-10309Y42691D01*
X-9846Y42381D01*
X-9300Y42273D01*
X-7300D01*
X-6754Y42381D01*
X-6291Y42691D01*
X-6233Y42777D01*
X-5735Y42826D01*
X-2714Y39804D01*
Y39249D01*
X-2733Y39206D01*
X-2736Y39103D01*
X-2742Y39028D01*
X-2744Y39015D01*
X-3950D01*
X-4243Y38956D01*
X-4491Y38791D01*
X-4656Y38543D01*
X-4715Y38250D01*
Y37550D01*
X-4656Y37257D01*
X-4491Y37009D01*
X-4269Y36861D01*
X-4243Y36665D01*
Y36535D01*
X-4269Y36339D01*
X-4440Y36225D01*
X-4500Y36200D01*
X-4512Y36171D01*
X-4539Y36155D01*
X-4565Y36121D01*
X-4577Y36109D01*
X-4591Y36097D01*
X-4610Y36085D01*
X-4635Y36073D01*
X-4668Y36061D01*
X-4711Y36050D01*
X-4763Y36041D01*
X-4824Y36035D01*
X-4908Y36033D01*
X-4950Y36014D01*
X-6100D01*
X-6373Y35959D01*
X-6605Y35805D01*
X-7567Y34843D01*
X-7609Y34827D01*
X-7833Y34619D01*
X-7915Y34553D01*
X-7965Y34518D01*
X-8149D01*
X-8151Y34519D01*
X-8153Y34518D01*
X-8800D01*
X-9151Y34448D01*
X-9449Y34249D01*
X-9648Y33951D01*
X-9718Y33600D01*
Y32600D01*
X-9648Y32249D01*
X-9449Y31951D01*
X-9153Y31753D01*
X-9152Y31748D01*
X-9142Y31685D01*
X-9136Y31602D01*
X-9133Y31492D01*
X-9114Y31449D01*
Y30951D01*
X-9133Y30908D01*
X-9136Y30801D01*
X-9142Y30722D01*
X-9150Y30668D01*
X-9251Y30648D01*
X-9549Y30449D01*
X-9748Y30151D01*
X-9818Y29800D01*
Y28800D01*
X-9748Y28449D01*
X-9549Y28151D01*
X-9251Y27952D01*
X-8900Y27882D01*
X-7900D01*
X-7549Y27952D01*
X-7251Y28151D01*
X-7052Y28449D01*
X-6982Y28800D01*
Y29800D01*
X-7052Y30151D01*
X-7251Y30449D01*
X-7549Y30648D01*
X-7649Y30668D01*
X-7658Y30722D01*
X-7665Y30801D01*
X-7667Y30908D01*
X-7686Y30951D01*
Y31448D01*
X-7667Y31491D01*
X-7665Y31597D01*
X-7658Y31673D01*
X-7652Y31712D01*
X-7449Y31752D01*
X-7151Y31951D01*
X-6952Y32249D01*
X-6882Y32600D01*
Y33247D01*
X-6882Y33249D01*
X-6882Y33251D01*
Y33435D01*
X-6850Y33481D01*
X-6687Y33673D01*
X-6579Y33785D01*
X-6561Y33829D01*
X-5804Y34586D01*
X-4950D01*
X-4908Y34567D01*
X-4824Y34565D01*
X-4763Y34559D01*
X-4711Y34550D01*
X-4668Y34539D01*
X-4635Y34527D01*
X-4610Y34515D01*
X-4591Y34503D01*
X-4577Y34491D01*
X-4565Y34479D01*
X-4539Y34445D01*
X-4512Y34429D01*
X-4500Y34400D01*
X-4440Y34375D01*
X-4243Y34244D01*
X-3950Y34185D01*
X-50D01*
X243Y34244D01*
X491Y34409D01*
X656Y34657D01*
X715Y34950D01*
Y35650D01*
X656Y35943D01*
X491Y36191D01*
X269Y36339D01*
X243Y36535D01*
Y36665D01*
X269Y36861D01*
X440Y36975D01*
X500Y37000D01*
X512Y37029D01*
X539Y37045D01*
X565Y37079D01*
X577Y37091D01*
X591Y37103D01*
X610Y37115D01*
X635Y37127D01*
X668Y37139D01*
X711Y37150D01*
X763Y37159D01*
X824Y37165D01*
X908Y37167D01*
X950Y37186D01*
X1724D01*
X1915Y36724D01*
X1495Y36305D01*
X1341Y36073D01*
X1286Y35800D01*
Y31029D01*
X-304Y29440D01*
X-348Y29422D01*
X-444Y29331D01*
X-475Y29303D01*
X-475Y29303D01*
X-746Y29484D01*
X-1248Y29584D01*
X-3020D01*
X-3521Y29484D01*
X-3947Y29200D01*
X-4231Y28775D01*
X-4331Y28273D01*
Y24927D01*
X-4231Y24425D01*
X-4090Y24214D01*
X-4350Y23714D01*
X-5804D01*
X-6657Y24567D01*
X-6673Y24609D01*
X-6881Y24833D01*
X-6947Y24915D01*
X-6982Y24965D01*
Y25149D01*
X-6982Y25151D01*
X-6982Y25153D01*
Y25800D01*
X-7052Y26151D01*
X-7251Y26449D01*
X-7549Y26648D01*
X-7900Y26718D01*
X-8900D01*
X-9251Y26648D01*
X-9549Y26449D01*
X-9748Y26151D01*
X-9818Y25800D01*
Y24800D01*
X-9748Y24449D01*
X-9549Y24151D01*
X-9251Y23952D01*
X-8900Y23882D01*
X-8253D01*
X-8251Y23881D01*
X-8249Y23882D01*
X-8066D01*
X-8020Y23850D01*
X-7827Y23687D01*
X-7715Y23579D01*
X-7671Y23561D01*
X-7027Y22918D01*
X-7234Y22418D01*
X-11382D01*
Y75470D01*
X-10882Y75622D01*
X-10714Y75370D01*
D02*
G37*
G36*
X-1697Y39078D02*
X-1688Y38974D01*
X-1673Y38882D01*
X-1652Y38803D01*
X-1625Y38736D01*
X-1592Y38680D01*
X-1553Y38638D01*
X-1508Y38607D01*
X-1457Y38589D01*
X-1400Y38583D01*
X-2600D01*
X-2543Y38589D01*
X-2492Y38607D01*
X-2447Y38638D01*
X-2408Y38680D01*
X-2375Y38736D01*
X-2348Y38803D01*
X-2327Y38882D01*
X-2312Y38974D01*
X-2303Y39078D01*
X-2300Y39195D01*
X-1700D01*
X-1697Y39078D01*
D02*
G37*
G36*
X11424Y38907D02*
X11356Y38827D01*
X11296Y38746D01*
X11244Y38663D01*
X11200Y38580D01*
X11164Y38495D01*
X11136Y38410D01*
X11116Y38323D01*
X11104Y38235D01*
X11100Y38146D01*
X10500D01*
X10496Y38235D01*
X10484Y38323D01*
X10464Y38410D01*
X10436Y38495D01*
X10400Y38580D01*
X10356Y38663D01*
X10304Y38746D01*
X10244Y38827D01*
X10176Y38907D01*
X10100Y38986D01*
X11500D01*
X11424Y38907D01*
D02*
G37*
G36*
X236Y38438D02*
X285Y38388D01*
X339Y38344D01*
X400Y38306D01*
X467Y38273D01*
X540Y38247D01*
X620Y38226D01*
X705Y38212D01*
X797Y38203D01*
X895Y38200D01*
Y37600D01*
X797Y37597D01*
X705Y37588D01*
X620Y37574D01*
X540Y37553D01*
X467Y37527D01*
X400Y37494D01*
X339Y37456D01*
X285Y37412D01*
X236Y37362D01*
X194Y37306D01*
Y38494D01*
X236Y38438D01*
D02*
G37*
G36*
X4006Y38106D02*
X4250Y37205D01*
X4180Y37215D01*
X4110Y37217D01*
X4040Y37210D01*
X3970Y37194D01*
X3900Y37171D01*
X3830Y37139D01*
X3761Y37099D01*
X3691Y37050D01*
X3621Y36993D01*
X3552Y36927D01*
X3269Y37493D01*
X3372Y37598D01*
X3305Y37600D01*
Y38200D01*
X3403Y38203D01*
X3495Y38212D01*
X3580Y38226D01*
X3660Y38247D01*
X3733Y38273D01*
X3800Y38306D01*
X3861Y38344D01*
X3915Y38388D01*
X3964Y38438D01*
X4006Y38494D01*
Y38106D01*
D02*
G37*
G36*
X13609Y36072D02*
X13603Y36129D01*
X13585Y36180D01*
X13554Y36225D01*
X13511Y36264D01*
X13456Y36297D01*
X13389Y36324D01*
X13309Y36345D01*
X13217Y36360D01*
X13113Y36369D01*
X12997Y36372D01*
Y36972D01*
X13113Y36975D01*
X13217Y36984D01*
X13309Y36999D01*
X13389Y37020D01*
X13456Y37047D01*
X13511Y37080D01*
X13554Y37119D01*
X13585Y37164D01*
X13603Y37215D01*
X13609Y37272D01*
Y36072D01*
D02*
G37*
G36*
X8436Y35838D02*
X8484Y35788D01*
X8539Y35744D01*
X8600Y35706D01*
X8667Y35673D01*
X8740Y35647D01*
X8820Y35626D01*
X8905Y35612D01*
X8997Y35603D01*
X9095Y35600D01*
Y35000D01*
X8997Y34997D01*
X8905Y34988D01*
X8820Y34974D01*
X8740Y34953D01*
X8667Y34927D01*
X8600Y34894D01*
X8539Y34856D01*
X8484Y34812D01*
X8436Y34762D01*
X8394Y34706D01*
Y35894D01*
X8436Y35838D01*
D02*
G37*
G36*
X-4194Y34706D02*
X-4236Y34762D01*
X-4284Y34812D01*
X-4339Y34856D01*
X-4400Y34894D01*
X-4467Y34927D01*
X-4540Y34953D01*
X-4620Y34974D01*
X-4705Y34988D01*
X-4797Y34997D01*
X-4895Y35000D01*
Y35600D01*
X-4797Y35603D01*
X-4705Y35612D01*
X-4620Y35626D01*
X-4540Y35647D01*
X-4467Y35673D01*
X-4400Y35706D01*
X-4339Y35744D01*
X-4284Y35788D01*
X-4236Y35838D01*
X-4194Y35894D01*
Y34706D01*
D02*
G37*
G36*
X-6890Y34085D02*
X-7008Y33964D01*
X-7193Y33745D01*
X-7261Y33649D01*
X-7311Y33561D01*
X-7345Y33482D01*
X-7363Y33411D01*
X-7363Y33349D01*
X-7347Y33294D01*
X-7314Y33249D01*
X-8151Y34086D01*
X-8106Y34053D01*
X-8052Y34037D01*
X-7989Y34037D01*
X-7918Y34054D01*
X-7839Y34089D01*
X-7751Y34139D01*
X-7655Y34207D01*
X-7550Y34291D01*
X-7315Y34510D01*
X-6890Y34085D01*
D02*
G37*
G36*
X22490Y39367D02*
X22560Y39364D01*
X22609Y39358D01*
X22657Y39346D01*
X22707Y39330D01*
X22758Y39309D01*
X22810Y39281D01*
X22865Y39246D01*
X22921Y39204D01*
X22980Y39155D01*
X23049Y39088D01*
X23071Y39080D01*
X23517Y38781D01*
X24064Y38673D01*
X24610Y38781D01*
X25057Y39080D01*
X25078Y39088D01*
X25147Y39155D01*
X25206Y39204D01*
X25263Y39246D01*
X25317Y39281D01*
X25370Y39309D01*
X25421Y39330D01*
X25470Y39346D01*
X25519Y39358D01*
X25568Y39364D01*
X25585Y39365D01*
X25705Y39334D01*
X25991Y39194D01*
X26082Y39145D01*
X26155Y38779D01*
X26365Y38465D01*
X26679Y38255D01*
X27050Y38181D01*
X28150D01*
X28486Y38248D01*
X28535Y38246D01*
X28986Y37965D01*
Y36406D01*
X29041Y36132D01*
X29195Y35901D01*
X30000Y35096D01*
Y32580D01*
X29500Y32335D01*
X29163Y32402D01*
X28961Y32711D01*
X28923Y32862D01*
X28920Y32938D01*
X28937Y32963D01*
X29014Y33350D01*
Y34531D01*
X28937Y34917D01*
X28718Y35245D01*
X28390Y35464D01*
X28004Y35541D01*
X24185D01*
X23799Y35464D01*
X23471Y35245D01*
X23252Y34917D01*
X23175Y34531D01*
Y33350D01*
X23252Y32963D01*
X23471Y32636D01*
X23499Y32354D01*
X22059Y30914D01*
X20451D01*
X20408Y30933D01*
X20301Y30935D01*
X20222Y30942D01*
X20168Y30950D01*
X20148Y31051D01*
X19949Y31349D01*
X19651Y31548D01*
X19300Y31618D01*
X18300D01*
X17949Y31548D01*
X17651Y31349D01*
X17452Y31051D01*
X17382Y30700D01*
Y29700D01*
X17452Y29349D01*
X17651Y29051D01*
X17949Y28852D01*
X18300Y28782D01*
X19300D01*
X19651Y28852D01*
X19949Y29051D01*
X20148Y29349D01*
X20168Y29449D01*
X20222Y29458D01*
X20301Y29465D01*
X20408Y29467D01*
X20451Y29486D01*
X22354D01*
X22627Y29541D01*
X22859Y29695D01*
X25169Y32005D01*
X25213Y32022D01*
X25292Y32098D01*
X25362Y32157D01*
X25427Y32207D01*
X25488Y32248D01*
X25544Y32280D01*
X25596Y32303D01*
X25643Y32320D01*
X25684Y32331D01*
X25722Y32337D01*
X25781Y32339D01*
X25782Y32340D01*
X26407D01*
X26408Y32339D01*
X26467Y32337D01*
X26504Y32331D01*
X26546Y32320D01*
X26593Y32303D01*
X26645Y32280D01*
X26701Y32248D01*
X26757Y32211D01*
X26901Y32094D01*
X26976Y32022D01*
X27020Y32005D01*
X27389Y31636D01*
X27404Y31595D01*
X27451Y31543D01*
X27481Y31504D01*
X27507Y31462D01*
X27531Y31415D01*
X27551Y31364D01*
X27569Y31307D01*
X27583Y31244D01*
X27594Y31174D01*
X27600Y31098D01*
X27602Y31002D01*
X27611Y30980D01*
X27716Y30454D01*
X28025Y29991D01*
X28488Y29681D01*
X29035Y29573D01*
X29500Y29665D01*
X30000Y29420D01*
Y27202D01*
X29956Y27196D01*
X29886Y27192D01*
X29846Y27174D01*
X29248D01*
X29205Y27193D01*
X29101Y27195D01*
X29026Y27202D01*
X28982Y27209D01*
X28937Y27437D01*
X28718Y27765D01*
X28390Y27983D01*
X28004Y28060D01*
X24185D01*
X23799Y27983D01*
X23471Y27765D01*
X23252Y27437D01*
X23175Y27050D01*
Y26943D01*
X23169Y26942D01*
X23091Y26935D01*
X22984Y26933D01*
X22941Y26914D01*
X20451D01*
X20408Y26933D01*
X20301Y26935D01*
X20222Y26942D01*
X20168Y26950D01*
X20148Y27051D01*
X19949Y27349D01*
X19651Y27548D01*
X19300Y27618D01*
X18300D01*
X17949Y27548D01*
X17651Y27349D01*
X17452Y27051D01*
X17382Y26700D01*
Y25700D01*
X17452Y25349D01*
X17651Y25051D01*
X17949Y24852D01*
X18300Y24782D01*
X19300D01*
X19651Y24852D01*
X19949Y25051D01*
X20148Y25349D01*
X20168Y25449D01*
X20222Y25458D01*
X20301Y25464D01*
X20408Y25467D01*
X20451Y25486D01*
X22942D01*
X22985Y25467D01*
X23100Y25464D01*
X23188Y25458D01*
X23256Y25448D01*
X23279Y25442D01*
X23471Y25155D01*
X23799Y24936D01*
X24185Y24859D01*
X28004D01*
X28390Y24936D01*
X28718Y25155D01*
X28937Y25483D01*
X28982Y25711D01*
X29026Y25718D01*
X29101Y25724D01*
X29205Y25727D01*
X29248Y25746D01*
X29846D01*
X29886Y25727D01*
X29956Y25724D01*
X30000Y25718D01*
Y22418D01*
X2234D01*
X2027Y22918D01*
X2505Y23395D01*
X2659Y23627D01*
X2714Y23900D01*
Y28204D01*
X3740Y29231D01*
X4128Y28912D01*
X4037Y28775D01*
X3937Y28273D01*
Y24927D01*
X4037Y24425D01*
X4321Y24000D01*
X4746Y23716D01*
X5248Y23616D01*
X7020D01*
X7521Y23716D01*
X7947Y24000D01*
X8231Y24425D01*
X8331Y24927D01*
Y25856D01*
X8344Y25858D01*
X8419Y25864D01*
X8522Y25867D01*
X8565Y25886D01*
X10000D01*
X10273Y25941D01*
X10505Y26095D01*
X12605Y28195D01*
X12759Y28427D01*
X12814Y28700D01*
Y33600D01*
X12759Y33873D01*
X12605Y34105D01*
X10905Y35805D01*
X10673Y35959D01*
X10400Y36014D01*
X9150D01*
X9108Y36033D01*
X9024Y36035D01*
X8963Y36041D01*
X8911Y36050D01*
X8868Y36061D01*
X8835Y36073D01*
X8810Y36085D01*
X8791Y36097D01*
X8777Y36109D01*
X8765Y36121D01*
X8739Y36155D01*
X8712Y36171D01*
X8700Y36200D01*
X8640Y36225D01*
X8469Y36339D01*
X8443Y36535D01*
Y36665D01*
X8469Y36861D01*
X8691Y37009D01*
X8856Y37257D01*
X8915Y37550D01*
Y38250D01*
X8868Y38486D01*
X8897Y38601D01*
X9159Y38982D01*
X9604Y38844D01*
X9658Y38805D01*
X9716Y38755D01*
X9786Y38688D01*
X9787Y38687D01*
X9788Y38686D01*
X9855Y38616D01*
X9904Y38558D01*
X9946Y38501D01*
X9981Y38446D01*
X10009Y38394D01*
X10030Y38343D01*
X10046Y38294D01*
X10058Y38245D01*
X10064Y38196D01*
X10068Y38127D01*
X10086Y38086D01*
Y38072D01*
X10141Y37799D01*
X10295Y37568D01*
X11695Y36168D01*
X11927Y36013D01*
X12200Y35959D01*
X12943D01*
X12986Y35940D01*
X13089Y35937D01*
X13158Y35931D01*
Y35572D01*
X13325Y34734D01*
X13800Y34022D01*
X14511Y33547D01*
X15350Y33380D01*
X18850D01*
X19689Y33547D01*
X20400Y34022D01*
X20875Y34734D01*
X21042Y35572D01*
Y39386D01*
X22450D01*
X22490Y39367D01*
D02*
G37*
G36*
X28024Y32786D02*
X27965Y32772D01*
X27923Y32748D01*
X27899Y32716D01*
X27893Y32675D01*
X27904Y32625D01*
X27932Y32566D01*
X27978Y32498D01*
X28042Y32421D01*
X28124Y32335D01*
X27275D01*
X27187Y32419D01*
X27013Y32560D01*
X26928Y32617D01*
X26842Y32665D01*
X26758Y32704D01*
X26674Y32735D01*
X26591Y32756D01*
X26508Y32768D01*
X26426Y32772D01*
X28101Y32791D01*
X28024Y32786D01*
D02*
G37*
G36*
X25763Y32772D02*
X25681Y32768D01*
X25598Y32756D01*
X25515Y32735D01*
X25431Y32704D01*
X25347Y32665D01*
X25262Y32617D01*
X25176Y32560D01*
X25089Y32494D01*
X25002Y32419D01*
X24914Y32335D01*
X24066D01*
X24147Y32421D01*
X24211Y32498D01*
X24257Y32566D01*
X24285Y32625D01*
X24296Y32675D01*
X24290Y32716D01*
X24266Y32748D01*
X24224Y32772D01*
X24165Y32786D01*
X24088Y32791D01*
X25763Y32772D01*
D02*
G37*
G36*
X6271Y32013D02*
X6188Y32000D01*
X6104Y31978D01*
X6020Y31948D01*
X5936Y31908D01*
X5850Y31860D01*
X5765Y31804D01*
X5679Y31738D01*
X5592Y31664D01*
X5505Y31581D01*
X4657D01*
X4735Y31664D01*
X4797Y31738D01*
X4840Y31804D01*
X4866Y31860D01*
X4875Y31908D01*
X4866Y31948D01*
X4840Y31978D01*
X4797Y32000D01*
X4735Y32013D01*
X4657Y32017D01*
X6354D01*
X6271Y32013D01*
D02*
G37*
G36*
X-7800Y32114D02*
X-7857Y32110D01*
X-7908Y32093D01*
X-7953Y32064D01*
X-7992Y32022D01*
X-8025Y31967D01*
X-8052Y31899D01*
X-8073Y31819D01*
X-8088Y31726D01*
X-8097Y31621D01*
X-8100Y31502D01*
X-8700D01*
X-8703Y31625D01*
X-8712Y31735D01*
X-8726Y31832D01*
X-8747Y31916D01*
X-8773Y31988D01*
X-8806Y32047D01*
X-8844Y32094D01*
X-8888Y32127D01*
X-8938Y32148D01*
X-8993Y32157D01*
X-7800Y32114D01*
D02*
G37*
G36*
X34813Y31721D02*
X34987Y31580D01*
X35072Y31523D01*
X35158Y31475D01*
X35242Y31436D01*
X35326Y31406D01*
X35409Y31384D01*
X35492Y31372D01*
X35574Y31368D01*
X33899Y31349D01*
X33976Y31354D01*
X34035Y31369D01*
X34077Y31392D01*
X34101Y31424D01*
X34108Y31465D01*
X34097Y31515D01*
X34068Y31574D01*
X34022Y31642D01*
X33958Y31719D01*
X33876Y31805D01*
X34725D01*
X34813Y31721D01*
D02*
G37*
G36*
X28214Y32251D02*
X28284Y32197D01*
X28360Y32150D01*
X28440Y32109D01*
X28525Y32075D01*
X28615Y32047D01*
X28710Y32026D01*
X28810Y32011D01*
X28915Y32002D01*
X29025Y32000D01*
X28035Y31010D01*
X28033Y31120D01*
X28024Y31224D01*
X28009Y31324D01*
X27988Y31419D01*
X27960Y31509D01*
X27925Y31594D01*
X27885Y31675D01*
X27837Y31750D01*
X27784Y31821D01*
X27724Y31887D01*
X28148Y32311D01*
X28214Y32251D01*
D02*
G37*
G36*
X8445Y32713D02*
X8426Y32662D01*
X8425Y32602D01*
X8441Y32532D01*
X8476Y32452D01*
X8528Y32362D01*
X8598Y32264D01*
X8653Y32195D01*
X8725Y32150D01*
X8806Y32109D01*
X8891Y32075D01*
X8981Y32047D01*
X9076Y32026D01*
X9176Y32011D01*
X9280Y32002D01*
X9390Y32000D01*
X8400Y31010D01*
X8398Y31120D01*
X8389Y31224D01*
X8374Y31324D01*
X8353Y31419D01*
X8325Y31509D01*
X8291Y31594D01*
X8250Y31675D01*
X8203Y31750D01*
X8187Y31771D01*
X8059Y31880D01*
X7962Y31947D01*
X7874Y31999D01*
X7793Y32035D01*
X7719Y32054D01*
X7654Y32058D01*
X7596Y32046D01*
X7546Y32017D01*
X8483Y32754D01*
X8445Y32713D01*
D02*
G37*
G36*
X-8097Y30777D02*
X-8088Y30670D01*
X-8073Y30575D01*
X-8052Y30493D01*
X-8026Y30424D01*
X-7993Y30367D01*
X-7954Y30323D01*
X-7909Y30291D01*
X-7859Y30272D01*
X-7802Y30266D01*
X-8998D01*
X-8941Y30272D01*
X-8890Y30291D01*
X-8846Y30323D01*
X-8807Y30367D01*
X-8774Y30424D01*
X-8748Y30493D01*
X-8727Y30575D01*
X-8712Y30670D01*
X-8703Y30777D01*
X-8700Y30898D01*
X-8100D01*
X-8097Y30777D01*
D02*
G37*
G36*
X19772Y30741D02*
X19791Y30691D01*
X19823Y30646D01*
X19867Y30607D01*
X19924Y30574D01*
X19993Y30548D01*
X20075Y30527D01*
X20170Y30512D01*
X20278Y30503D01*
X20398Y30500D01*
Y29900D01*
X20278Y29897D01*
X20170Y29888D01*
X20075Y29873D01*
X19993Y29852D01*
X19924Y29826D01*
X19867Y29793D01*
X19823Y29754D01*
X19791Y29710D01*
X19772Y29659D01*
X19766Y29602D01*
Y30798D01*
X19772Y30741D01*
D02*
G37*
G36*
X67Y28377D02*
X-29Y28277D01*
X-185Y28087D01*
X-246Y27997D01*
X-296Y27911D01*
X-334Y27828D01*
X-360Y27748D01*
X-375Y27671D01*
X-378Y27598D01*
X-369Y27528D01*
X-661Y28918D01*
X-642Y28857D01*
X-613Y28814D01*
X-575Y28789D01*
X-528Y28782D01*
X-471Y28792D01*
X-406Y28820D01*
X-330Y28866D01*
X-246Y28929D01*
X-152Y29011D01*
X-48Y29110D01*
X67Y28377D01*
D02*
G37*
G36*
X7905Y27143D02*
X7923Y27092D01*
X7954Y27047D01*
X7997Y27008D01*
X8052Y26975D01*
X8119Y26948D01*
X8198Y26927D01*
X8290Y26912D01*
X8394Y26903D01*
X8511Y26900D01*
Y26300D01*
X8394Y26297D01*
X8290Y26288D01*
X8198Y26273D01*
X8119Y26252D01*
X8052Y26225D01*
X7997Y26192D01*
X7954Y26153D01*
X7923Y26108D01*
X7905Y26057D01*
X7899Y26000D01*
Y27200D01*
X7905Y27143D01*
D02*
G37*
G36*
X28586Y27001D02*
X28605Y26950D01*
X28635Y26906D01*
X28678Y26867D01*
X28734Y26834D01*
X28801Y26807D01*
X28881Y26787D01*
X28973Y26772D01*
X29077Y26763D01*
X29194Y26760D01*
Y26160D01*
X29077Y26157D01*
X28973Y26148D01*
X28881Y26133D01*
X28801Y26112D01*
X28734Y26085D01*
X28678Y26053D01*
X28635Y26014D01*
X28605Y25969D01*
X28586Y25919D01*
X28580Y25862D01*
Y27057D01*
X28586Y27001D01*
D02*
G37*
G36*
X30746Y25760D02*
X30667Y25836D01*
X30587Y25904D01*
X30505Y25964D01*
X30423Y26016D01*
X30340Y26060D01*
X30255Y26096D01*
X30169Y26124D01*
X30083Y26144D01*
X29995Y26156D01*
X29906Y26160D01*
Y26760D01*
X29995Y26764D01*
X30083Y26776D01*
X30169Y26796D01*
X30255Y26824D01*
X30340Y26860D01*
X30423Y26904D01*
X30505Y26956D01*
X30587Y27016D01*
X30667Y27084D01*
X30746Y27160D01*
Y25760D01*
D02*
G37*
G36*
X23679Y25607D02*
X23669Y25662D01*
X23646Y25712D01*
X23610Y25756D01*
X23561Y25794D01*
X23499Y25827D01*
X23424Y25853D01*
X23337Y25874D01*
X23236Y25888D01*
X23122Y25897D01*
X22995Y25900D01*
Y26500D01*
X23115Y26503D01*
X23221Y26512D01*
X23315Y26527D01*
X23395Y26548D01*
X23463Y26575D01*
X23518Y26608D01*
X23560Y26647D01*
X23588Y26692D01*
X23604Y26743D01*
X23607Y26800D01*
X23679Y25607D01*
D02*
G37*
G36*
X19772Y26741D02*
X19791Y26691D01*
X19823Y26646D01*
X19867Y26607D01*
X19924Y26574D01*
X19993Y26548D01*
X20075Y26527D01*
X20170Y26512D01*
X20278Y26503D01*
X20398Y26500D01*
Y25900D01*
X20278Y25897D01*
X20170Y25888D01*
X20075Y25873D01*
X19993Y25852D01*
X19924Y25826D01*
X19867Y25793D01*
X19823Y25754D01*
X19791Y25710D01*
X19772Y25659D01*
X19766Y25602D01*
Y26798D01*
X19772Y26741D01*
D02*
G37*
G36*
X-7447Y25106D02*
X-7463Y25052D01*
X-7463Y24989D01*
X-7446Y24918D01*
X-7412Y24839D01*
X-7361Y24751D01*
X-7293Y24655D01*
X-7209Y24550D01*
X-6990Y24315D01*
X-7415Y23890D01*
X-7536Y24008D01*
X-7755Y24193D01*
X-7851Y24261D01*
X-7939Y24311D01*
X-8018Y24345D01*
X-8089Y24363D01*
X-8152Y24363D01*
X-8206Y24347D01*
X-8251Y24314D01*
X-7414Y25151D01*
X-7447Y25106D01*
D02*
G37*
G36*
X4316Y149315D02*
X-6234D01*
Y142874D01*
X-8400D01*
Y151907D01*
X4316D01*
Y149315D01*
D02*
G37*
G36*
X-2514Y136506D02*
X-4976D01*
Y141338D01*
X-2514D01*
Y136506D01*
D02*
G37*
G36*
X892Y127862D02*
X-478D01*
X-459Y127844D01*
X-404Y127807D01*
X-330Y127733D01*
X-237Y127640D01*
X-108Y127529D01*
X22Y127381D01*
X170Y127214D01*
X318Y127029D01*
X448Y126826D01*
X596Y126585D01*
X725Y126344D01*
X855Y126067D01*
X948Y125771D01*
X1022Y125474D01*
X1077Y125141D01*
X1096Y124808D01*
Y124679D01*
X1077Y124512D01*
X1059Y124308D01*
X1022Y124086D01*
X966Y123846D01*
X892Y123586D01*
X800Y123327D01*
X781Y123290D01*
X744Y123216D01*
X688Y123087D01*
X596Y122939D01*
X485Y122772D01*
X355Y122605D01*
X207Y122439D01*
X41Y122291D01*
X22Y122272D01*
X-33Y122235D01*
X-126Y122180D01*
X-256Y122106D01*
X-404Y122013D01*
X-589Y121939D01*
X-774Y121865D01*
X-996Y121809D01*
X-1015D01*
X-1107Y121791D01*
X-1237Y121754D01*
X-1422Y121735D01*
X-1644Y121698D01*
X-1940Y121680D01*
X-2255Y121661D01*
X-2643D01*
X-8400D01*
Y124123D01*
X-3680D01*
X-3661D01*
X-3606D01*
X-3532D01*
X-3439D01*
X-3310D01*
X-3180D01*
X-2866Y124142D01*
X-2551Y124160D01*
X-2218Y124197D01*
X-1940Y124234D01*
X-1829Y124253D01*
X-1736Y124290D01*
X-1718D01*
X-1662Y124327D01*
X-1588Y124364D01*
X-1477Y124419D01*
X-1255Y124586D01*
X-1144Y124679D01*
X-1051Y124808D01*
X-1033Y124827D01*
X-1015Y124864D01*
X-977Y124938D01*
X-922Y125049D01*
X-866Y125178D01*
X-829Y125308D01*
X-811Y125474D01*
X-792Y125660D01*
Y125771D01*
X-811Y125882D01*
X-829Y126030D01*
X-885Y126215D01*
X-941Y126400D01*
X-1033Y126603D01*
X-1144Y126807D01*
X-1163Y126826D01*
X-1200Y126881D01*
X-1292Y126974D01*
X-1385Y127085D01*
X-1533Y127196D01*
X-1681Y127307D01*
X-1884Y127418D01*
X-2088Y127492D01*
X-2107D01*
X-2199Y127529D01*
X-2347Y127548D01*
X-2569Y127585D01*
X-2699Y127603D01*
X-2866Y127622D01*
X-3032Y127640D01*
X-3236D01*
X-3439Y127659D01*
X-3680Y127677D01*
X-3939D01*
X-4217D01*
X-8400D01*
Y130139D01*
X892D01*
Y127862D01*
D02*
G37*
G36*
X4409Y116793D02*
X-2384D01*
X892Y113924D01*
Y110907D01*
X-2514Y114091D01*
X-8400Y110685D01*
Y113332D01*
X-4235Y115683D01*
X-5438Y116793D01*
X-8400D01*
Y119255D01*
X4409D01*
Y116793D01*
D02*
G37*
%LPC*%
G36*
X-500Y51735D02*
X-1202Y51596D01*
X-1798Y51198D01*
X-2196Y50602D01*
X-2335Y49900D01*
X-2196Y49198D01*
X-1798Y48602D01*
X-1202Y48204D01*
X-500Y48065D01*
X202Y48204D01*
X798Y48602D01*
X1196Y49198D01*
X1335Y49900D01*
X1196Y50602D01*
X798Y51198D01*
X202Y51596D01*
X-500Y51735D01*
D02*
G37*
G36*
Y44735D02*
X-1202Y44596D01*
X-1798Y44198D01*
X-2196Y43602D01*
X-2335Y42900D01*
X-2196Y42198D01*
X-1798Y41602D01*
X-1202Y41204D01*
X-500Y41065D01*
X202Y41204D01*
X798Y41602D01*
X1196Y42198D01*
X1335Y42900D01*
X1196Y43602D01*
X798Y44198D01*
X202Y44596D01*
X-500Y44735D01*
D02*
G37*
%LPD*%
D11*
X168700Y63500D02*
G03*
X163700Y68500I-5000J0D01*
G01*
X168000Y25200D02*
G03*
X168700Y26890I-1690J1690D01*
G01*
X164862Y23900D02*
G03*
X168000Y25200I0J4439D01*
G01*
X40774Y26311D02*
G03*
X41400Y24800I2137J0D01*
G01*
D02*
G03*
X43573Y23900I2173J2173D01*
G01*
X40324Y32476D02*
G03*
X39300Y32900I-1024J-1024D01*
G01*
X40774Y31389D02*
G03*
X40324Y32476I-1536J0D01*
G01*
X14200Y133900D02*
X16800Y131300D01*
X6200Y133900D02*
X14200D01*
X-1202Y102400D02*
X414Y100784D01*
Y92840D02*
Y100784D01*
X168700Y26890D02*
Y63500D01*
X152600Y68500D02*
X163700D01*
X44400Y23900D02*
X164862Y23900D01*
X43573Y23900D02*
X44400D01*
X35700Y32900D02*
X39300D01*
X40774Y26311D02*
Y31389D01*
X3800Y42700D02*
Y51300D01*
X4700Y52200D01*
Y55400D01*
X500Y65800D02*
Y80200D01*
Y65800D02*
X8700Y57600D01*
Y55400D02*
Y57600D01*
X4000Y86500D02*
Y91000D01*
Y83700D02*
Y86500D01*
X-7200Y69700D02*
X2700Y59800D01*
X500Y80200D02*
X4000Y83700D01*
X31200Y37400D02*
X35700Y32900D01*
X31200Y37400D02*
Y47100D01*
X26300Y52000D02*
X31200Y47100D01*
X12900Y52000D02*
X26300D01*
X7300Y46400D02*
X12900Y52000D01*
X26800Y46900D02*
X29700Y44000D01*
Y36406D02*
Y44000D01*
Y36406D02*
X35906Y30200D01*
X23800Y46900D02*
X26800D01*
X4100Y37900D02*
X6200D01*
X-2000D02*
X4100D01*
X-2134Y26600D02*
X2000Y30734D01*
Y35800D01*
X4100Y37900D01*
X-2000D02*
Y40100D01*
X-8300Y46400D02*
X-2000Y40100D01*
X17100Y36672D02*
X20527Y40100D01*
X12200Y36672D02*
X17100D01*
X2700Y41800D02*
Y59800D01*
Y41800D02*
X4800Y39700D01*
X3800Y42700D02*
X5100Y41400D01*
X4800Y39700D02*
X10800D01*
X5100Y41400D02*
X9200D01*
X14428Y46628D01*
X17100D01*
X-7200Y69700D02*
Y77352D01*
X17100Y46628D02*
X17372Y46900D01*
X10800Y38072D02*
X12200Y36672D01*
X10800Y38072D02*
Y39700D01*
X32568Y71268D02*
X36898D01*
X31500Y70200D02*
X32568Y71268D01*
X43900Y110500D02*
Y117100D01*
X39500Y121500D02*
X43900Y117100D01*
X42300Y111000D02*
Y114600D01*
X39500Y117400D02*
X42300Y114600D01*
X44300Y133200D02*
X49500Y128000D01*
Y112446D02*
Y128000D01*
Y112446D02*
X52000Y109946D01*
X36898Y94890D02*
X50002D01*
X52000Y96888D02*
Y109946D01*
X50002Y94890D02*
X52000Y96888D01*
X30973Y79735D02*
X32348Y81110D01*
X30973Y77173D02*
Y79735D01*
Y77173D02*
X36898D01*
X27900Y74100D02*
X30973Y77173D01*
X32348Y81110D02*
X36898D01*
X25500Y152000D02*
X27100Y150400D01*
X20200Y152000D02*
X25500D01*
X16800Y148600D02*
X20200Y152000D01*
X31100Y150400D02*
X32100Y151400D01*
X33600D01*
X1100Y23000D02*
X2000Y23900D01*
X-6100Y23000D02*
X1100D01*
X-8400Y25300D02*
X-6100Y23000D01*
X24064Y40100D02*
X27600D01*
X20527D02*
X24064D01*
X36898Y81110D02*
Y83079D01*
X20300Y74100D02*
X27900D01*
X9800Y84600D02*
X20300Y74100D01*
X19200Y122000D02*
X21000Y123800D01*
X19200Y115500D02*
Y122000D01*
Y115500D02*
X21300Y113400D01*
X26100Y123800D02*
X27100Y124800D01*
X21000Y123800D02*
X26100D01*
X15800Y107900D02*
Y121879D01*
X20400Y125000D02*
X24100D01*
X18000Y122600D02*
X20400Y125000D01*
X18000Y114800D02*
Y122600D01*
X15800Y107900D02*
X26200Y97500D01*
Y95200D02*
Y97500D01*
X20500Y94000D02*
Y97675D01*
X12800Y105375D02*
X20500Y97675D01*
X13800Y105789D02*
X23814Y95775D01*
X13800Y105789D02*
Y123900D01*
X12800Y105375D02*
Y112186D01*
X23814Y79200D02*
Y95775D01*
X11100Y113886D02*
X12800Y112186D01*
X11100Y113886D02*
Y121600D01*
X15800Y121879D02*
X25121Y131200D01*
X26700D01*
X19000Y128100D02*
X22100Y131200D01*
X13500Y128100D02*
X19000D01*
X13112Y86612D02*
X20500Y94000D01*
X22600Y113400D02*
X26600Y109400D01*
X21300Y113400D02*
X22600D01*
X22000Y109000D02*
Y110800D01*
X18000Y114800D02*
X22000Y110800D01*
X24100Y125000D02*
X25100Y126000D01*
Y128200D01*
X27100Y124800D02*
Y128200D01*
X42000Y133200D02*
X44300D01*
X31100Y123043D02*
Y128200D01*
X30100Y122043D02*
X31100Y123043D01*
X30100Y89000D02*
Y122043D01*
X33100Y123628D02*
Y128200D01*
X31100Y121628D02*
X33100Y123628D01*
X31100Y90592D02*
Y121628D01*
X35100Y124214D02*
Y128200D01*
X32100Y121214D02*
X35100Y124214D01*
X32100Y92100D02*
Y121214D01*
X37100Y124800D02*
Y128200D01*
X33100Y120800D02*
X37100Y124800D01*
X33100Y93400D02*
Y120800D01*
X40101Y106701D02*
X43900Y110500D01*
X39969Y108669D02*
X42300Y111000D01*
X26700Y131200D02*
X42000D01*
X24900Y133000D02*
X26700Y131200D01*
X24900Y133000D02*
Y138200D01*
X12800Y128800D02*
X13500Y128100D01*
X12800Y128800D02*
Y131300D01*
X16600Y138300D02*
X18100D01*
X13000D02*
X16600D01*
X19000Y139200D02*
X22100D01*
X18100Y138300D02*
X19000Y139200D01*
X22100Y137200D02*
X23900D01*
X24900Y138200D01*
Y144300D01*
X24000Y145200D02*
X24900Y144300D01*
X22100Y145200D02*
X24000D01*
X16600Y142300D02*
X17100D01*
X20000Y145200D01*
X22100D01*
X31100Y148200D02*
Y150400D01*
X29100Y148200D02*
Y150935D01*
X27100Y148200D02*
Y150400D01*
X16800Y145700D02*
Y148600D01*
X43400Y154000D02*
X44900Y152500D01*
Y144400D02*
Y152500D01*
X43700Y143200D02*
X44900Y144400D01*
X42000Y143200D02*
X43700D01*
X42000Y145200D02*
Y150935D01*
X-7200Y85226D02*
X414Y92840D01*
X-7200Y93100D02*
X-1700Y98600D01*
X36898Y108669D02*
X39969D01*
X36898Y106701D02*
X40101D01*
X43000Y106400D02*
X47000Y102400D01*
X26094Y26460D02*
X31460D01*
X26094Y33940D02*
X29035Y31000D01*
X43000Y106400D02*
Y106500D01*
X40668Y104732D02*
X43000Y102400D01*
X36898Y104732D02*
X40668D01*
X40036Y102764D02*
X40811Y101989D01*
X36898Y102764D02*
X40036D01*
X40811Y100489D02*
X43000Y98300D01*
X40811Y100489D02*
Y101989D01*
X33100Y93400D02*
X33579Y92921D01*
X32100Y92100D02*
X33247Y90953D01*
X31100Y90592D02*
X32708Y88984D01*
X30100Y89000D02*
X32084Y87016D01*
X29100Y87300D02*
Y128200D01*
Y87300D02*
X31353Y85047D01*
X36898D01*
X32084Y87016D02*
X36898D01*
X32708Y88984D02*
X36898D01*
X33247Y90953D02*
X36898D01*
X33579Y92921D02*
X36898D01*
X-7048Y77200D02*
X-1800D01*
X34500Y54100D02*
X37800Y50800D01*
Y46900D02*
Y50800D01*
X4000Y72500D02*
X9169Y67331D01*
X36898D01*
X39769Y59500D02*
X43250D01*
X36898Y62371D02*
X39769Y59500D01*
X36898Y62371D02*
Y65362D01*
X40900Y65530D02*
X43250Y63180D01*
X40900Y65530D02*
Y66373D01*
X39942Y67331D02*
X40900Y66373D01*
X36898Y67331D02*
X39942D01*
X40811Y69299D02*
X43250Y66860D01*
X36898Y69299D02*
X40811D01*
X40064Y73236D02*
X42760Y70540D01*
X36898Y73236D02*
X40064D01*
X41380Y74220D02*
X43250D01*
X40395Y75205D02*
X41380Y74220D01*
X36898Y75205D02*
X40395D01*
X41600Y77900D02*
X43250D01*
X40873Y77173D02*
X41600Y77900D01*
X36898Y77173D02*
X40873D01*
X18800Y26200D02*
X25835D01*
X22354Y30200D02*
X26094Y33940D01*
X18800Y30200D02*
X22354D01*
X17372Y46900D02*
X23800D01*
X12100Y28700D02*
Y33600D01*
X10400Y35300D02*
X12100Y33600D01*
X6200Y35300D02*
X10400D01*
X7700Y32700D02*
X9400Y31000D01*
X6200Y32700D02*
X7700D01*
X10000Y26600D02*
X12100Y28700D01*
X6134Y26600D02*
X10000D01*
X2000Y23900D02*
Y28500D01*
X6200Y32700D01*
X-8400Y29300D02*
Y33000D01*
X-8300Y33100D02*
X-6100Y35300D01*
X-2000D01*
D15*
X71600Y72860D02*
G03*
X68671Y79931I-10000J0D01*
G01*
X65031Y83571D02*
G03*
X57960Y86500I-7071J-7071D01*
G01*
X44494D02*
G03*
X41600Y85301I0J-4093D01*
G01*
D02*
G03*
X40549Y82763I2538J-2538D01*
G01*
Y82307D02*
G03*
X41414Y80219I2953J0D01*
G01*
X71600Y68500D02*
Y72860D01*
X65031Y83571D02*
X68671Y79931D01*
X44494Y86500D02*
X57960D01*
X40549Y82307D02*
Y82763D01*
X41414Y80219D02*
X41632Y80000D01*
X47000Y106500D02*
Y120100D01*
X42500Y124600D02*
X47000Y120100D01*
X39500Y124600D02*
X42500D01*
X47000Y98300D02*
X48800D01*
X50000Y99500D01*
Y105375D01*
X48875Y106500D02*
X50000Y105375D01*
X47000Y106500D02*
X48875D01*
X44909Y96209D02*
X47000Y98300D01*
X41197Y96209D02*
X44909D01*
X40549Y96858D02*
X41197Y96209D01*
X36898Y96858D02*
X40549D01*
X45150Y80000D02*
X47250Y77900D01*
X41632Y80000D02*
X45150D01*
X40774Y79142D02*
X41632Y80000D01*
X36898Y79142D02*
X40774D01*
X34898Y60500D02*
X40644Y54754D01*
X31500Y60500D02*
X34898D01*
X28500Y57500D02*
X31500Y60500D01*
X40644Y54754D02*
X44754D01*
X24500Y57500D02*
X28500D01*
X47250Y74220D02*
Y77900D01*
Y70540D02*
Y74220D01*
Y66860D02*
Y70540D01*
Y63180D02*
Y66860D01*
Y59500D02*
Y63180D01*
X44754Y54754D02*
X47250Y57250D01*
Y59500D01*
X24500Y57500D02*
X33600Y48400D01*
Y40100D02*
Y48400D01*
D16*
X71689Y102453D02*
G03*
X74406Y95894I9276J0D01*
G01*
X82600Y83558D02*
G03*
X79671Y90629I-10000J0D01*
G01*
X82600Y83387D02*
G03*
X84500Y78800I6487J0D01*
G01*
D02*
G03*
X90053Y76500I5553J5553D01*
G01*
X108123Y57000D02*
G03*
X114400Y59600I0J8877D01*
G01*
D02*
G03*
X116800Y65394I-5794J5794D01*
G01*
X92000Y108861D02*
G03*
X90700Y112000I-4439J0D01*
G01*
X89406Y115125D02*
G03*
X90700Y112000I4420J0D01*
G01*
X71689Y102453D02*
Y124000D01*
X74406Y95894D02*
X79671Y90629D01*
X82600Y83387D02*
Y83558D01*
X90053Y76500D02*
X92000D01*
X72540Y57000D02*
X108123D01*
X116800Y76500D02*
Y98300D01*
Y65394D02*
Y76500D01*
X92000Y98300D02*
Y108861D01*
X89406Y115125D02*
Y124000D01*
D19*
X83500D02*
D03*
X77595D02*
D03*
X95311D02*
D03*
X89406D02*
D03*
X71689D02*
D03*
X65784D02*
D03*
D20*
X101811Y139142D02*
D03*
X59284D02*
D03*
D21*
X-8300Y46400D02*
D03*
X7300D02*
D03*
D22*
X152600Y68500D02*
D03*
D23*
X71600D02*
D03*
D24*
X8700Y55400D02*
D03*
X4700D02*
D03*
X18800Y26200D02*
D03*
X14800D02*
D03*
X18800Y30200D02*
D03*
X14800D02*
D03*
X47000Y102400D02*
D03*
X43000D02*
D03*
X43250Y77900D02*
D03*
X47250D02*
D03*
X12800Y131300D02*
D03*
X16800D02*
D03*
X12800Y145700D02*
D03*
X16800D02*
D03*
X6200Y133900D02*
D03*
X2200D02*
D03*
X43000Y106500D02*
D03*
X47000D02*
D03*
X43000Y98300D02*
D03*
X47000D02*
D03*
X43250Y74220D02*
D03*
X47250D02*
D03*
X43250Y70540D02*
D03*
X47250D02*
D03*
X43250Y66860D02*
D03*
X47250D02*
D03*
X43250Y63180D02*
D03*
X47250D02*
D03*
X43250Y59500D02*
D03*
X47250D02*
D03*
D25*
X35906Y30200D02*
D03*
X26094Y26460D02*
D03*
Y33940D02*
D03*
D26*
X6134Y26600D02*
D03*
X-2134D02*
D03*
D27*
X-8400Y29300D02*
D03*
Y25300D02*
D03*
X-8300Y37100D02*
D03*
Y33100D02*
D03*
X16600Y142300D02*
D03*
Y138300D02*
D03*
X13000Y142300D02*
D03*
Y138300D02*
D03*
D28*
X-2000Y37900D02*
D03*
Y35300D02*
D03*
Y32700D02*
D03*
X6200D02*
D03*
Y35300D02*
D03*
Y37900D02*
D03*
D29*
X27600Y40100D02*
D03*
X33600D02*
D03*
D30*
X17100Y46628D02*
D03*
Y37572D02*
D03*
D31*
X23800Y46900D02*
D03*
D32*
X37800D02*
D03*
D33*
X4000Y91000D02*
D03*
Y72500D02*
D03*
Y86500D02*
D03*
D34*
Y105000D02*
D03*
D35*
X-7200Y85226D02*
D03*
Y77352D02*
D03*
Y93100D02*
D03*
Y100974D02*
D03*
D36*
X32100Y138200D02*
D03*
D37*
X22100Y131200D02*
D03*
Y133200D02*
D03*
Y135200D02*
D03*
Y137200D02*
D03*
Y139200D02*
D03*
Y141200D02*
D03*
Y145200D02*
D03*
Y143200D02*
D03*
X42000Y145200D02*
D03*
Y143200D02*
D03*
Y141200D02*
D03*
Y139200D02*
D03*
Y137200D02*
D03*
Y135200D02*
D03*
Y131200D02*
D03*
Y133200D02*
D03*
D38*
X39100Y128200D02*
D03*
X37100D02*
D03*
X35100D02*
D03*
X33100D02*
D03*
X31100D02*
D03*
X29100D02*
D03*
X25100D02*
D03*
X27100D02*
D03*
X39100Y148200D02*
D03*
X37100D02*
D03*
X35100D02*
D03*
X33100D02*
D03*
X31100D02*
D03*
X29100D02*
D03*
X25100D02*
D03*
X27100D02*
D03*
D39*
X36898Y65362D02*
D03*
Y67331D02*
D03*
Y69299D02*
D03*
Y71268D02*
D03*
Y73236D02*
D03*
Y75205D02*
D03*
Y77173D02*
D03*
Y79142D02*
D03*
Y81110D02*
D03*
Y83079D02*
D03*
Y85047D02*
D03*
Y87016D02*
D03*
Y88984D02*
D03*
Y90953D02*
D03*
Y92921D02*
D03*
Y94890D02*
D03*
Y96858D02*
D03*
Y98827D02*
D03*
Y100795D02*
D03*
Y102764D02*
D03*
Y104732D02*
D03*
Y106701D02*
D03*
Y108669D02*
D03*
Y110638D02*
D03*
D40*
X24500Y57500D02*
D03*
D41*
Y118500D02*
D03*
D68*
X65469Y59929D02*
G03*
X72540Y57000I7071J7071D01*
G01*
X62300Y67240D02*
G03*
X65229Y60169I10000J0D01*
G01*
X62300Y72158D02*
G03*
X59371Y79229I-10000J0D01*
G01*
X59222Y79378D02*
G03*
X52151Y82307I-7071J-7071D01*
G01*
X43091D02*
X52151D01*
X65229Y60169D02*
X65469Y59929D01*
X59222Y79378D02*
X59371Y79229D01*
X62300Y67240D02*
Y72158D01*
D69*
X75045Y130155D02*
G03*
X69142Y132600I-5903J-5903D01*
G01*
X67492D02*
G03*
X60421Y129671I0J-10000D01*
G01*
X51018Y91392D02*
G03*
X54900Y93000I0J5490D01*
G01*
X60329Y129579D02*
G03*
X57400Y122508I7071J-7071D01*
G01*
X54904Y93004D02*
G03*
X57400Y99036I-6039J6032D01*
G01*
X54900Y93000D02*
G03*
X54904Y93004I-6036J6036D01*
G01*
X77595Y124000D02*
G03*
X75045Y130155I-8704J0D01*
G01*
X95311Y116311D02*
Y124000D01*
X67492Y132600D02*
X69142D01*
X60329Y129579D02*
X60421Y129671D01*
X54904Y93004D02*
X55671Y93771D01*
X54900Y93000D02*
X54904Y93004D01*
X57400Y99036D02*
Y122508D01*
X42505Y91392D02*
X51018D01*
D70*
X-4142Y133900D02*
D03*
D71*
X92000Y76500D02*
D03*
X116800D02*
D03*
Y98300D02*
D03*
X92000D02*
D03*
D72*
X16400Y126000D02*
D03*
X9604Y110904D02*
D03*
X3300Y133900D02*
D03*
X42000Y150935D02*
D03*
X-1202Y102400D02*
D03*
X-1700Y98600D02*
D03*
X10800Y39700D02*
D03*
X12800Y96800D02*
D03*
X-5000Y30700D02*
D03*
X7100Y77451D02*
D03*
X3000D02*
D03*
X31500Y70200D02*
D03*
X21676Y105600D02*
D03*
X42500Y124600D02*
D03*
X39500D02*
D03*
Y121500D02*
D03*
Y117400D02*
D03*
X28000Y138200D02*
D03*
X21500Y121500D02*
D03*
X26500Y113500D02*
D03*
X26000Y102000D02*
D03*
X14500Y32000D02*
D03*
X12000Y24500D02*
D03*
X-4100Y54500D02*
D03*
X-6200Y40400D02*
D03*
X-3500Y46200D02*
D03*
X-7400Y56200D02*
D03*
X15000Y54700D02*
D03*
X11000Y64000D02*
D03*
X15000D02*
D03*
X19000D02*
D03*
X23000D02*
D03*
X24000Y71000D02*
D03*
X12500Y72000D02*
D03*
X4900Y66600D02*
D03*
X13000Y93400D02*
D03*
X28000Y135000D02*
D03*
X21000Y149000D02*
D03*
X14000D02*
D03*
X9000Y132000D02*
D03*
Y136000D02*
D03*
Y140000D02*
D03*
Y144000D02*
D03*
X33600Y151400D02*
D03*
X24064Y40100D02*
D03*
X27900Y74100D02*
D03*
X9800Y84600D02*
D03*
X13800Y123900D02*
D03*
X11100Y121600D02*
D03*
X26200Y95200D02*
D03*
X22000Y109000D02*
D03*
X26600Y109400D02*
D03*
X13112Y86612D02*
D03*
X23814Y79200D02*
D03*
X29100Y150935D02*
D03*
X43400Y154000D02*
D03*
X31460Y26460D02*
D03*
X29035Y31000D02*
D03*
X-1800Y77200D02*
D03*
X34500Y54100D02*
D03*
X9400Y31000D02*
D03*
D73*
X43091Y82307D02*
D03*
X95311Y116311D02*
D03*
X42505Y91392D02*
D03*
M02*
