G04*
G04 #@! TF.GenerationSoftware,Altium Limited,Altium Designer,18.1.7 (191)*
G04*
G04 Layer_Color=128*
%FSLAX25Y25*%
%MOIN*%
G70*
G01*
G75*
%ADD79C,0.00200*%
D79*
X-1900Y42900D02*
X900D01*
X-500Y41500D02*
Y44300D01*
X-1900Y49900D02*
X900D01*
X-500Y48500D02*
Y51300D01*
X86882Y76500D02*
X97118D01*
X92000Y71382D02*
Y81618D01*
X111682Y76500D02*
X121918D01*
X116800Y71382D02*
Y81618D01*
X111682Y98300D02*
X121918D01*
X116800Y93182D02*
Y103418D01*
X86882Y98300D02*
X97118D01*
X92000Y93182D02*
Y103418D01*
X15800Y126000D02*
X17000D01*
X16400Y125400D02*
Y126600D01*
X9003Y110904D02*
X10204D01*
X9604Y110304D02*
Y111504D01*
X2700Y133900D02*
X3900D01*
X3300Y133300D02*
Y134500D01*
X41400Y150935D02*
X42600D01*
X42000Y150335D02*
Y151535D01*
X-1802Y102400D02*
X-602D01*
X-1202Y101800D02*
Y103000D01*
X-2300Y98600D02*
X-1100D01*
X-1700Y98000D02*
Y99200D01*
X10200Y39700D02*
X11400D01*
X10800Y39100D02*
Y40300D01*
X12200Y96800D02*
X13400D01*
X12800Y96200D02*
Y97400D01*
X-5600Y30700D02*
X-4400D01*
X-5000Y30100D02*
Y31300D01*
X6500Y77451D02*
X7700D01*
X7100Y76851D02*
Y78051D01*
X2400Y77451D02*
X3600D01*
X3000Y76851D02*
Y78051D01*
X30900Y70200D02*
X32100D01*
X31500Y69600D02*
Y70800D01*
X21076Y105600D02*
X22276D01*
X21676Y105000D02*
Y106200D01*
X41900Y124600D02*
X43100D01*
X42500Y124000D02*
Y125200D01*
X38900Y124600D02*
X40100D01*
X39500Y124000D02*
Y125200D01*
X38900Y121500D02*
X40100D01*
X39500Y120900D02*
Y122100D01*
X38900Y117400D02*
X40100D01*
X39500Y116800D02*
Y118000D01*
X27400Y138200D02*
X28600D01*
X28000Y137600D02*
Y138800D01*
X20900Y121500D02*
X22100D01*
X21500Y120900D02*
Y122100D01*
X25900Y113500D02*
X27100D01*
X26500Y112900D02*
Y114100D01*
X25400Y102000D02*
X26600D01*
X26000Y101400D02*
Y102600D01*
X13900Y32000D02*
X15100D01*
X14500Y31400D02*
Y32600D01*
X11400Y24500D02*
X12600D01*
X12000Y23900D02*
Y25100D01*
X-4700Y54500D02*
X-3500D01*
X-4100Y53900D02*
Y55100D01*
X-6800Y40400D02*
X-5600D01*
X-6200Y39800D02*
Y41000D01*
X-4100Y46200D02*
X-2900D01*
X-3500Y45600D02*
Y46800D01*
X-8000Y56200D02*
X-6800D01*
X-7400Y55600D02*
Y56800D01*
X14400Y54700D02*
X15600D01*
X15000Y54100D02*
Y55300D01*
X10400Y64000D02*
X11600D01*
X11000Y63400D02*
Y64600D01*
X14400Y64000D02*
X15600D01*
X15000Y63400D02*
Y64600D01*
X18400Y64000D02*
X19600D01*
X19000Y63400D02*
Y64600D01*
X22400Y64000D02*
X23600D01*
X23000Y63400D02*
Y64600D01*
X23400Y71000D02*
X24600D01*
X24000Y70400D02*
Y71600D01*
X11900Y72000D02*
X13100D01*
X12500Y71400D02*
Y72600D01*
X4300Y66600D02*
X5500D01*
X4900Y66000D02*
Y67200D01*
X12400Y93400D02*
X13600D01*
X13000Y92800D02*
Y94000D01*
X27400Y135000D02*
X28600D01*
X28000Y134400D02*
Y135600D01*
X20400Y149000D02*
X21600D01*
X21000Y148400D02*
Y149600D01*
X13400Y149000D02*
X14600D01*
X14000Y148400D02*
Y149600D01*
X8400Y132000D02*
X9600D01*
X9000Y131400D02*
Y132600D01*
X8400Y136000D02*
X9600D01*
X9000Y135400D02*
Y136600D01*
X8400Y140000D02*
X9600D01*
X9000Y139400D02*
Y140600D01*
X8400Y144000D02*
X9600D01*
X9000Y143400D02*
Y144600D01*
X33000Y151400D02*
X34200D01*
X33600Y150800D02*
Y152000D01*
X23464Y40100D02*
X24664D01*
X24064Y39500D02*
Y40700D01*
X27300Y74100D02*
X28500D01*
X27900Y73500D02*
Y74700D01*
X9200Y84600D02*
X10400D01*
X9800Y84000D02*
Y85200D01*
X13200Y123900D02*
X14400D01*
X13800Y123300D02*
Y124500D01*
X10500Y121600D02*
X11700D01*
X11100Y121000D02*
Y122200D01*
X25600Y95200D02*
X26800D01*
X26200Y94600D02*
Y95800D01*
X21400Y109000D02*
X22600D01*
X22000Y108400D02*
Y109600D01*
X26000Y109400D02*
X27200D01*
X26600Y108800D02*
Y110000D01*
X12512Y86612D02*
X13712D01*
X13112Y86012D02*
Y87212D01*
X23214Y79200D02*
X24414D01*
X23814Y78600D02*
Y79800D01*
X28500Y150935D02*
X29700D01*
X29100Y150335D02*
Y151535D01*
X42800Y154000D02*
X44000D01*
X43400Y153400D02*
Y154600D01*
X30860Y26460D02*
X32060D01*
X31460Y25860D02*
Y27060D01*
X28435Y31000D02*
X29635D01*
X29035Y30400D02*
Y31600D01*
X-2400Y77200D02*
X-1200D01*
X-1800Y76600D02*
Y77800D01*
X33900Y54100D02*
X35100D01*
X34500Y53500D02*
Y54700D01*
X8800Y31000D02*
X10000D01*
X9400Y30400D02*
Y31600D01*
X42303Y82307D02*
X43878D01*
X43091Y81520D02*
Y83095D01*
X94524Y116311D02*
X96098D01*
X95311Y115524D02*
Y117098D01*
X41718Y91392D02*
X43293D01*
X42505Y90605D02*
Y92180D01*
M02*
