G04*
G04 #@! TF.GenerationSoftware,Altium Limited,Altium Designer,18.1.7 (191)*
G04*
G04 Layer_Color=16711935*
%FSLAX25Y25*%
%MOIN*%
G70*
G01*
G75*
G04:AMPARAMS|DCode=48|XSize=26mil|YSize=26mil|CornerRadius=8mil|HoleSize=0mil|Usage=FLASHONLY|Rotation=270.000|XOffset=0mil|YOffset=0mil|HoleType=Round|Shape=RoundedRectangle|*
%AMROUNDEDRECTD48*
21,1,0.02600,0.01000,0,0,270.0*
21,1,0.01000,0.02600,0,0,270.0*
1,1,0.01600,-0.00500,-0.00500*
1,1,0.01600,-0.00500,0.00500*
1,1,0.01600,0.00500,0.00500*
1,1,0.01600,0.00500,-0.00500*
%
%ADD48ROUNDEDRECTD48*%
G04:AMPARAMS|DCode=51|XSize=26mil|YSize=26mil|CornerRadius=8mil|HoleSize=0mil|Usage=FLASHONLY|Rotation=180.000|XOffset=0mil|YOffset=0mil|HoleType=Round|Shape=RoundedRectangle|*
%AMROUNDEDRECTD51*
21,1,0.02600,0.01000,0,0,180.0*
21,1,0.01000,0.02600,0,0,180.0*
1,1,0.01600,-0.00500,0.00500*
1,1,0.01600,0.00500,0.00500*
1,1,0.01600,0.00500,-0.00500*
1,1,0.01600,-0.00500,-0.00500*
%
%ADD51ROUNDEDRECTD51*%
%ADD66C,0.00600*%
%ADD67O,0.03750X0.12411*%
%ADD76R,0.02568X0.02568*%
G36*
X23738Y84164D02*
X23710Y84163D01*
X23682Y84159D01*
X23654Y84155D01*
X23626Y84149D01*
X23599Y84141D01*
X23572Y84132D01*
X23546Y84122D01*
X23520Y84110D01*
X23495Y84097D01*
X23470Y84082D01*
X23447Y84067D01*
X23424Y84050D01*
X23402Y84032D01*
X23381Y84013D01*
X23361Y83992D01*
X23342Y83971D01*
X23325Y83949D01*
X23308Y83926D01*
X23293Y83902D01*
X23279Y83877D01*
X23266Y83852D01*
X23255Y83826D01*
X23245Y83799D01*
X23237Y83772D01*
X23230Y83745D01*
X23224Y83717D01*
X23220Y83689D01*
X23217Y83661D01*
X23216Y83633D01*
Y82885D01*
X23217Y82860D01*
X23219Y82834D01*
X23223Y82808D01*
X23228Y82782D01*
X23235Y82757D01*
X23243Y82731D01*
X23252Y82707D01*
X23263Y82683D01*
X23274Y82659D01*
X23287Y82636D01*
X23302Y82614D01*
X23317Y82593D01*
X23333Y82572D01*
X23350Y82552D01*
X23369Y82534D01*
X23388Y82516D01*
X23409Y82499D01*
X23430Y82484D01*
X23452Y82469D01*
X23474Y82456D01*
X23498Y82444D01*
X23521Y82433D01*
X23546Y82423D01*
X23571Y82415D01*
X23596Y82408D01*
X23622Y82402D01*
X23648Y82398D01*
X23674Y82395D01*
X23700Y82393D01*
X23728Y82393D01*
X24751D01*
X24779Y82393D01*
X24805Y82395D01*
X24831Y82398D01*
X24857Y82402D01*
X24882Y82408D01*
X24908Y82415D01*
X24933Y82423D01*
X24957Y82433D01*
X24981Y82444D01*
X25004Y82456D01*
X25027Y82469D01*
X25049Y82484D01*
X25070Y82499D01*
X25090Y82516D01*
X25110Y82534D01*
X25128Y82552D01*
X25146Y82572D01*
X25162Y82593D01*
X25177Y82614D01*
X25191Y82636D01*
X25204Y82659D01*
X25216Y82683D01*
X25227Y82707D01*
X25236Y82731D01*
X25244Y82757D01*
X25250Y82782D01*
X25256Y82808D01*
X25259Y82834D01*
X25262Y82860D01*
X25263Y82885D01*
Y82924D01*
Y83633D01*
X25262Y83661D01*
X25259Y83689D01*
X25255Y83717D01*
X25249Y83745D01*
X25242Y83772D01*
X25234Y83799D01*
X25224Y83826D01*
X25212Y83852D01*
X25200Y83877D01*
X25186Y83902D01*
X25170Y83926D01*
X25154Y83949D01*
X25136Y83971D01*
X25118Y83992D01*
X25098Y84013D01*
X25077Y84032D01*
X25055Y84050D01*
X25032Y84067D01*
X25009Y84082D01*
X24984Y84097D01*
X24959Y84110D01*
X24933Y84122D01*
X24907Y84132D01*
X24880Y84141D01*
X24853Y84149D01*
X24825Y84155D01*
X24797Y84159D01*
X24769Y84163D01*
X24740Y84164D01*
X24712Y84165D01*
X23767D01*
X23738Y84164D01*
D02*
G37*
G36*
Y86133D02*
X23710Y86131D01*
X23682Y86128D01*
X23654Y86123D01*
X23626Y86117D01*
X23599Y86110D01*
X23572Y86101D01*
X23546Y86090D01*
X23520Y86078D01*
X23495Y86065D01*
X23470Y86051D01*
X23447Y86035D01*
X23424Y86018D01*
X23402Y86000D01*
X23381Y85981D01*
X23361Y85961D01*
X23342Y85940D01*
X23325Y85918D01*
X23308Y85895D01*
X23293Y85871D01*
X23279Y85846D01*
X23266Y85821D01*
X23255Y85795D01*
X23245Y85768D01*
X23237Y85741D01*
X23230Y85713D01*
X23224Y85686D01*
X23220Y85658D01*
X23217Y85629D01*
X23216Y85602D01*
Y84854D01*
X23217Y84828D01*
X23219Y84802D01*
X23223Y84776D01*
X23228Y84750D01*
X23235Y84725D01*
X23243Y84700D01*
X23252Y84675D01*
X23263Y84651D01*
X23274Y84628D01*
X23287Y84605D01*
X23302Y84583D01*
X23317Y84561D01*
X23333Y84541D01*
X23350Y84521D01*
X23369Y84502D01*
X23388Y84484D01*
X23409Y84468D01*
X23430Y84452D01*
X23452Y84438D01*
X23474Y84424D01*
X23498Y84412D01*
X23521Y84401D01*
X23546Y84392D01*
X23571Y84383D01*
X23596Y84376D01*
X23622Y84371D01*
X23648Y84366D01*
X23674Y84363D01*
X23700Y84362D01*
X23728Y84361D01*
X24751D01*
X24779Y84362D01*
X24805Y84363D01*
X24831Y84366D01*
X24857Y84371D01*
X24882Y84376D01*
X24908Y84383D01*
X24933Y84392D01*
X24957Y84401D01*
X24981Y84412D01*
X25004Y84424D01*
X25027Y84438D01*
X25049Y84452D01*
X25070Y84468D01*
X25090Y84484D01*
X25110Y84502D01*
X25128Y84521D01*
X25146Y84541D01*
X25162Y84561D01*
X25177Y84583D01*
X25191Y84605D01*
X25204Y84628D01*
X25216Y84651D01*
X25227Y84675D01*
X25236Y84700D01*
X25244Y84725D01*
X25250Y84750D01*
X25256Y84776D01*
X25259Y84802D01*
X25262Y84828D01*
X25263Y84854D01*
Y84893D01*
Y85602D01*
X25262Y85629D01*
X25259Y85658D01*
X25255Y85686D01*
X25249Y85713D01*
X25242Y85741D01*
X25234Y85768D01*
X25224Y85795D01*
X25212Y85821D01*
X25200Y85846D01*
X25186Y85871D01*
X25170Y85895D01*
X25154Y85918D01*
X25136Y85940D01*
X25118Y85961D01*
X25098Y85981D01*
X25077Y86000D01*
X25055Y86018D01*
X25032Y86035D01*
X25009Y86051D01*
X24984Y86065D01*
X24959Y86078D01*
X24933Y86090D01*
X24907Y86101D01*
X24880Y86110D01*
X24853Y86117D01*
X24825Y86123D01*
X24797Y86128D01*
X24769Y86131D01*
X24740Y86133D01*
X24712Y86133D01*
X23767D01*
X23738Y86133D01*
D02*
G37*
G36*
Y88101D02*
X23710Y88100D01*
X23682Y88096D01*
X23654Y88092D01*
X23626Y88086D01*
X23599Y88078D01*
X23572Y88069D01*
X23546Y88059D01*
X23520Y88047D01*
X23495Y88034D01*
X23470Y88019D01*
X23447Y88004D01*
X23424Y87987D01*
X23402Y87969D01*
X23381Y87950D01*
X23361Y87929D01*
X23342Y87908D01*
X23325Y87886D01*
X23308Y87863D01*
X23293Y87839D01*
X23279Y87814D01*
X23266Y87789D01*
X23255Y87763D01*
X23245Y87736D01*
X23237Y87709D01*
X23230Y87682D01*
X23224Y87654D01*
X23220Y87626D01*
X23217Y87598D01*
X23216Y87570D01*
Y86822D01*
X23217Y86797D01*
X23219Y86771D01*
X23223Y86745D01*
X23228Y86719D01*
X23235Y86694D01*
X23243Y86668D01*
X23252Y86644D01*
X23263Y86620D01*
X23274Y86596D01*
X23287Y86573D01*
X23302Y86551D01*
X23317Y86530D01*
X23333Y86509D01*
X23350Y86489D01*
X23369Y86471D01*
X23388Y86453D01*
X23409Y86436D01*
X23430Y86421D01*
X23452Y86406D01*
X23474Y86393D01*
X23498Y86381D01*
X23521Y86370D01*
X23546Y86360D01*
X23571Y86352D01*
X23596Y86345D01*
X23622Y86339D01*
X23648Y86335D01*
X23674Y86332D01*
X23700Y86330D01*
X23728Y86330D01*
X24751D01*
X24779Y86330D01*
X24805Y86332D01*
X24831Y86335D01*
X24857Y86339D01*
X24882Y86345D01*
X24908Y86352D01*
X24933Y86360D01*
X24957Y86370D01*
X24981Y86381D01*
X25004Y86393D01*
X25027Y86406D01*
X25049Y86421D01*
X25070Y86436D01*
X25090Y86453D01*
X25110Y86471D01*
X25128Y86489D01*
X25146Y86509D01*
X25162Y86530D01*
X25177Y86551D01*
X25191Y86573D01*
X25204Y86596D01*
X25216Y86620D01*
X25227Y86644D01*
X25236Y86668D01*
X25244Y86694D01*
X25250Y86719D01*
X25256Y86745D01*
X25259Y86771D01*
X25262Y86797D01*
X25263Y86822D01*
Y86861D01*
Y87570D01*
X25262Y87598D01*
X25259Y87626D01*
X25255Y87654D01*
X25249Y87682D01*
X25242Y87709D01*
X25234Y87736D01*
X25224Y87763D01*
X25212Y87789D01*
X25200Y87814D01*
X25186Y87839D01*
X25170Y87863D01*
X25154Y87886D01*
X25136Y87908D01*
X25118Y87929D01*
X25098Y87950D01*
X25077Y87969D01*
X25055Y87987D01*
X25032Y88004D01*
X25009Y88019D01*
X24984Y88034D01*
X24959Y88047D01*
X24933Y88059D01*
X24907Y88069D01*
X24880Y88078D01*
X24853Y88086D01*
X24825Y88092D01*
X24797Y88096D01*
X24769Y88100D01*
X24740Y88101D01*
X24712Y88102D01*
X23767D01*
X23738Y88101D01*
D02*
G37*
G36*
Y90070D02*
X23710Y90068D01*
X23682Y90065D01*
X23654Y90060D01*
X23626Y90054D01*
X23599Y90047D01*
X23572Y90038D01*
X23546Y90027D01*
X23520Y90015D01*
X23495Y90002D01*
X23470Y89988D01*
X23447Y89972D01*
X23424Y89955D01*
X23402Y89937D01*
X23381Y89918D01*
X23361Y89898D01*
X23342Y89877D01*
X23325Y89855D01*
X23308Y89832D01*
X23293Y89808D01*
X23279Y89783D01*
X23266Y89758D01*
X23255Y89732D01*
X23245Y89705D01*
X23237Y89678D01*
X23230Y89650D01*
X23224Y89623D01*
X23220Y89595D01*
X23217Y89566D01*
X23216Y89539D01*
Y88791D01*
X23217Y88765D01*
X23219Y88739D01*
X23223Y88713D01*
X23228Y88687D01*
X23235Y88662D01*
X23243Y88637D01*
X23252Y88612D01*
X23263Y88588D01*
X23274Y88565D01*
X23287Y88542D01*
X23302Y88520D01*
X23317Y88498D01*
X23333Y88478D01*
X23350Y88458D01*
X23369Y88439D01*
X23388Y88421D01*
X23409Y88405D01*
X23430Y88389D01*
X23452Y88375D01*
X23474Y88361D01*
X23498Y88349D01*
X23521Y88338D01*
X23546Y88329D01*
X23571Y88320D01*
X23596Y88313D01*
X23622Y88308D01*
X23648Y88303D01*
X23674Y88300D01*
X23700Y88299D01*
X23728Y88298D01*
X24751D01*
X24779Y88299D01*
X24805Y88300D01*
X24831Y88303D01*
X24857Y88308D01*
X24882Y88313D01*
X24908Y88320D01*
X24933Y88329D01*
X24957Y88338D01*
X24981Y88349D01*
X25004Y88361D01*
X25027Y88375D01*
X25049Y88389D01*
X25070Y88405D01*
X25090Y88421D01*
X25110Y88439D01*
X25128Y88458D01*
X25146Y88478D01*
X25162Y88498D01*
X25177Y88520D01*
X25191Y88542D01*
X25204Y88565D01*
X25216Y88588D01*
X25227Y88612D01*
X25236Y88637D01*
X25244Y88662D01*
X25250Y88687D01*
X25256Y88713D01*
X25259Y88739D01*
X25262Y88765D01*
X25263Y88791D01*
Y88830D01*
Y89539D01*
X25262Y89566D01*
X25259Y89595D01*
X25255Y89623D01*
X25249Y89650D01*
X25242Y89678D01*
X25234Y89705D01*
X25224Y89732D01*
X25212Y89758D01*
X25200Y89783D01*
X25186Y89808D01*
X25170Y89832D01*
X25154Y89855D01*
X25136Y89877D01*
X25118Y89898D01*
X25098Y89918D01*
X25077Y89937D01*
X25055Y89955D01*
X25032Y89972D01*
X25009Y89988D01*
X24984Y90002D01*
X24959Y90015D01*
X24933Y90027D01*
X24907Y90038D01*
X24880Y90047D01*
X24853Y90054D01*
X24825Y90060D01*
X24797Y90065D01*
X24769Y90068D01*
X24740Y90070D01*
X24712Y90070D01*
X23767D01*
X23738Y90070D01*
D02*
G37*
G36*
Y92038D02*
X23710Y92037D01*
X23682Y92033D01*
X23654Y92029D01*
X23626Y92023D01*
X23599Y92015D01*
X23572Y92006D01*
X23546Y91996D01*
X23520Y91984D01*
X23495Y91971D01*
X23470Y91956D01*
X23447Y91941D01*
X23424Y91924D01*
X23402Y91906D01*
X23381Y91887D01*
X23361Y91866D01*
X23342Y91845D01*
X23325Y91823D01*
X23308Y91800D01*
X23293Y91776D01*
X23279Y91751D01*
X23266Y91726D01*
X23255Y91700D01*
X23245Y91673D01*
X23237Y91646D01*
X23230Y91619D01*
X23224Y91591D01*
X23220Y91563D01*
X23217Y91535D01*
X23216Y91507D01*
Y90759D01*
X23217Y90734D01*
X23219Y90708D01*
X23223Y90682D01*
X23228Y90656D01*
X23235Y90631D01*
X23243Y90605D01*
X23252Y90581D01*
X23263Y90557D01*
X23274Y90533D01*
X23287Y90510D01*
X23302Y90488D01*
X23317Y90467D01*
X23333Y90446D01*
X23350Y90426D01*
X23369Y90408D01*
X23388Y90390D01*
X23409Y90373D01*
X23430Y90358D01*
X23452Y90343D01*
X23474Y90330D01*
X23498Y90318D01*
X23521Y90307D01*
X23546Y90297D01*
X23571Y90289D01*
X23596Y90282D01*
X23622Y90276D01*
X23648Y90272D01*
X23674Y90269D01*
X23700Y90267D01*
X23728Y90267D01*
X24751D01*
X24779Y90267D01*
X24805Y90269D01*
X24831Y90272D01*
X24857Y90276D01*
X24882Y90282D01*
X24908Y90289D01*
X24933Y90297D01*
X24957Y90307D01*
X24981Y90318D01*
X25004Y90330D01*
X25027Y90343D01*
X25049Y90358D01*
X25070Y90373D01*
X25090Y90390D01*
X25110Y90408D01*
X25128Y90426D01*
X25146Y90446D01*
X25162Y90467D01*
X25177Y90488D01*
X25191Y90510D01*
X25204Y90533D01*
X25216Y90557D01*
X25227Y90581D01*
X25236Y90605D01*
X25244Y90631D01*
X25250Y90656D01*
X25256Y90682D01*
X25259Y90708D01*
X25262Y90734D01*
X25263Y90759D01*
Y90798D01*
Y91507D01*
X25262Y91535D01*
X25259Y91563D01*
X25255Y91591D01*
X25249Y91619D01*
X25242Y91646D01*
X25234Y91673D01*
X25224Y91700D01*
X25212Y91726D01*
X25200Y91751D01*
X25186Y91776D01*
X25170Y91800D01*
X25154Y91823D01*
X25136Y91845D01*
X25118Y91866D01*
X25098Y91887D01*
X25077Y91906D01*
X25055Y91924D01*
X25032Y91941D01*
X25009Y91956D01*
X24984Y91971D01*
X24959Y91984D01*
X24933Y91996D01*
X24907Y92006D01*
X24880Y92015D01*
X24853Y92023D01*
X24825Y92029D01*
X24797Y92033D01*
X24769Y92037D01*
X24740Y92038D01*
X24712Y92039D01*
X23767D01*
X23738Y92038D01*
D02*
G37*
G36*
Y94007D02*
X23710Y94005D01*
X23682Y94002D01*
X23654Y93997D01*
X23626Y93991D01*
X23599Y93984D01*
X23572Y93975D01*
X23546Y93964D01*
X23520Y93952D01*
X23495Y93939D01*
X23470Y93925D01*
X23447Y93909D01*
X23424Y93892D01*
X23402Y93874D01*
X23381Y93855D01*
X23361Y93835D01*
X23342Y93814D01*
X23325Y93792D01*
X23308Y93769D01*
X23293Y93745D01*
X23279Y93720D01*
X23266Y93695D01*
X23255Y93669D01*
X23245Y93642D01*
X23237Y93615D01*
X23230Y93587D01*
X23224Y93560D01*
X23220Y93532D01*
X23217Y93503D01*
X23216Y93476D01*
Y92728D01*
X23217Y92702D01*
X23219Y92676D01*
X23223Y92650D01*
X23228Y92624D01*
X23235Y92599D01*
X23243Y92574D01*
X23252Y92549D01*
X23263Y92525D01*
X23274Y92502D01*
X23287Y92479D01*
X23302Y92457D01*
X23317Y92435D01*
X23333Y92415D01*
X23350Y92395D01*
X23369Y92376D01*
X23388Y92358D01*
X23409Y92342D01*
X23430Y92326D01*
X23452Y92312D01*
X23474Y92298D01*
X23498Y92286D01*
X23521Y92275D01*
X23546Y92266D01*
X23571Y92257D01*
X23596Y92250D01*
X23622Y92245D01*
X23648Y92240D01*
X23674Y92237D01*
X23700Y92236D01*
X23728Y92235D01*
X24751D01*
X24779Y92236D01*
X24805Y92237D01*
X24831Y92240D01*
X24857Y92245D01*
X24882Y92250D01*
X24908Y92257D01*
X24933Y92266D01*
X24957Y92275D01*
X24981Y92286D01*
X25004Y92298D01*
X25027Y92312D01*
X25049Y92326D01*
X25070Y92342D01*
X25090Y92358D01*
X25110Y92376D01*
X25128Y92395D01*
X25146Y92415D01*
X25162Y92435D01*
X25177Y92457D01*
X25191Y92479D01*
X25204Y92502D01*
X25216Y92525D01*
X25227Y92549D01*
X25236Y92574D01*
X25244Y92599D01*
X25250Y92624D01*
X25256Y92650D01*
X25259Y92676D01*
X25262Y92702D01*
X25263Y92728D01*
Y92767D01*
Y93476D01*
X25262Y93503D01*
X25259Y93532D01*
X25255Y93560D01*
X25249Y93587D01*
X25242Y93615D01*
X25234Y93642D01*
X25224Y93669D01*
X25212Y93695D01*
X25200Y93720D01*
X25186Y93745D01*
X25170Y93769D01*
X25154Y93792D01*
X25136Y93814D01*
X25118Y93835D01*
X25098Y93855D01*
X25077Y93874D01*
X25055Y93892D01*
X25032Y93909D01*
X25009Y93925D01*
X24984Y93939D01*
X24959Y93952D01*
X24933Y93964D01*
X24907Y93975D01*
X24880Y93984D01*
X24853Y93991D01*
X24825Y93997D01*
X24797Y94002D01*
X24769Y94005D01*
X24740Y94007D01*
X24712Y94007D01*
X23767D01*
X23738Y94007D01*
D02*
G37*
G36*
X33621Y84164D02*
X33595Y84163D01*
X33569Y84160D01*
X33543Y84155D01*
X33518Y84150D01*
X33492Y84143D01*
X33467Y84134D01*
X33443Y84125D01*
X33419Y84114D01*
X33396Y84102D01*
X33373Y84088D01*
X33351Y84074D01*
X33330Y84058D01*
X33310Y84042D01*
X33290Y84024D01*
X33272Y84005D01*
X33254Y83985D01*
X33238Y83965D01*
X33223Y83943D01*
X33209Y83921D01*
X33196Y83898D01*
X33184Y83875D01*
X33173Y83851D01*
X33164Y83826D01*
X33156Y83801D01*
X33150Y83776D01*
X33145Y83750D01*
X33141Y83724D01*
X33138Y83698D01*
X33137Y83672D01*
Y83633D01*
Y82924D01*
X33138Y82897D01*
X33141Y82868D01*
X33145Y82840D01*
X33151Y82812D01*
X33158Y82785D01*
X33166Y82758D01*
X33176Y82731D01*
X33188Y82705D01*
X33200Y82680D01*
X33214Y82655D01*
X33230Y82631D01*
X33246Y82608D01*
X33264Y82586D01*
X33282Y82565D01*
X33302Y82545D01*
X33323Y82526D01*
X33345Y82508D01*
X33368Y82491D01*
X33391Y82475D01*
X33416Y82461D01*
X33441Y82448D01*
X33467Y82436D01*
X33493Y82425D01*
X33520Y82416D01*
X33547Y82409D01*
X33575Y82403D01*
X33603Y82398D01*
X33631Y82395D01*
X33659Y82393D01*
X33688Y82393D01*
X34633D01*
X34662Y82393D01*
X34690Y82395D01*
X34718Y82398D01*
X34746Y82403D01*
X34774Y82409D01*
X34801Y82416D01*
X34828Y82425D01*
X34855Y82436D01*
X34880Y82448D01*
X34905Y82461D01*
X34930Y82475D01*
X34953Y82491D01*
X34976Y82508D01*
X34998Y82526D01*
X35019Y82545D01*
X35039Y82565D01*
X35058Y82586D01*
X35075Y82608D01*
X35092Y82631D01*
X35107Y82655D01*
X35121Y82680D01*
X35134Y82705D01*
X35145Y82731D01*
X35155Y82758D01*
X35163Y82785D01*
X35171Y82812D01*
X35176Y82840D01*
X35180Y82868D01*
X35183Y82897D01*
X35184Y82924D01*
Y83672D01*
X35183Y83698D01*
X35181Y83724D01*
X35177Y83750D01*
X35171Y83776D01*
X35165Y83801D01*
X35157Y83826D01*
X35148Y83851D01*
X35137Y83875D01*
X35126Y83898D01*
X35113Y83921D01*
X35098Y83943D01*
X35083Y83965D01*
X35067Y83985D01*
X35050Y84005D01*
X35031Y84024D01*
X35012Y84042D01*
X34991Y84058D01*
X34970Y84074D01*
X34948Y84088D01*
X34926Y84102D01*
X34902Y84114D01*
X34879Y84125D01*
X34854Y84134D01*
X34829Y84143D01*
X34804Y84150D01*
X34778Y84155D01*
X34752Y84160D01*
X34726Y84163D01*
X34700Y84164D01*
X34672Y84165D01*
X33649D01*
X33621Y84164D01*
D02*
G37*
G36*
Y86133D02*
X33595Y86131D01*
X33569Y86128D01*
X33543Y86124D01*
X33518Y86118D01*
X33492Y86111D01*
X33467Y86103D01*
X33443Y86093D01*
X33419Y86082D01*
X33396Y86070D01*
X33373Y86057D01*
X33351Y86042D01*
X33330Y86027D01*
X33310Y86010D01*
X33290Y85992D01*
X33272Y85974D01*
X33254Y85954D01*
X33238Y85933D01*
X33223Y85912D01*
X33209Y85890D01*
X33196Y85867D01*
X33184Y85843D01*
X33173Y85819D01*
X33164Y85795D01*
X33156Y85769D01*
X33150Y85744D01*
X33145Y85718D01*
X33141Y85692D01*
X33138Y85666D01*
X33137Y85641D01*
Y85602D01*
Y84893D01*
X33138Y84865D01*
X33141Y84837D01*
X33145Y84809D01*
X33151Y84781D01*
X33158Y84754D01*
X33166Y84727D01*
X33176Y84700D01*
X33188Y84674D01*
X33200Y84649D01*
X33214Y84624D01*
X33230Y84600D01*
X33246Y84577D01*
X33264Y84555D01*
X33282Y84534D01*
X33302Y84513D01*
X33323Y84494D01*
X33345Y84476D01*
X33368Y84459D01*
X33391Y84444D01*
X33416Y84429D01*
X33441Y84416D01*
X33467Y84404D01*
X33493Y84394D01*
X33520Y84385D01*
X33547Y84377D01*
X33575Y84371D01*
X33603Y84367D01*
X33631Y84363D01*
X33659Y84362D01*
X33688Y84361D01*
X34633D01*
X34662Y84362D01*
X34690Y84363D01*
X34718Y84367D01*
X34746Y84371D01*
X34774Y84377D01*
X34801Y84385D01*
X34828Y84394D01*
X34855Y84404D01*
X34880Y84416D01*
X34905Y84429D01*
X34930Y84444D01*
X34953Y84459D01*
X34976Y84476D01*
X34998Y84494D01*
X35019Y84513D01*
X35039Y84534D01*
X35058Y84555D01*
X35075Y84577D01*
X35092Y84600D01*
X35107Y84624D01*
X35121Y84649D01*
X35134Y84674D01*
X35145Y84700D01*
X35155Y84727D01*
X35163Y84754D01*
X35171Y84781D01*
X35176Y84809D01*
X35180Y84837D01*
X35183Y84865D01*
X35184Y84893D01*
Y85641D01*
X35183Y85666D01*
X35181Y85692D01*
X35177Y85718D01*
X35171Y85744D01*
X35165Y85769D01*
X35157Y85795D01*
X35148Y85819D01*
X35137Y85843D01*
X35126Y85867D01*
X35113Y85890D01*
X35098Y85912D01*
X35083Y85933D01*
X35067Y85954D01*
X35050Y85974D01*
X35031Y85992D01*
X35012Y86010D01*
X34991Y86027D01*
X34970Y86042D01*
X34948Y86057D01*
X34926Y86070D01*
X34902Y86082D01*
X34879Y86093D01*
X34854Y86103D01*
X34829Y86111D01*
X34804Y86118D01*
X34778Y86124D01*
X34752Y86128D01*
X34726Y86131D01*
X34700Y86133D01*
X34672Y86133D01*
X33649D01*
X33621Y86133D01*
D02*
G37*
G36*
Y88101D02*
X33595Y88100D01*
X33569Y88097D01*
X33543Y88092D01*
X33518Y88087D01*
X33492Y88080D01*
X33467Y88071D01*
X33443Y88062D01*
X33419Y88051D01*
X33396Y88039D01*
X33373Y88025D01*
X33351Y88011D01*
X33330Y87995D01*
X33310Y87979D01*
X33290Y87961D01*
X33272Y87942D01*
X33254Y87922D01*
X33238Y87902D01*
X33223Y87880D01*
X33209Y87858D01*
X33196Y87835D01*
X33184Y87812D01*
X33173Y87788D01*
X33164Y87763D01*
X33156Y87738D01*
X33150Y87713D01*
X33145Y87687D01*
X33141Y87661D01*
X33138Y87635D01*
X33137Y87609D01*
Y87570D01*
Y86861D01*
X33138Y86834D01*
X33141Y86805D01*
X33145Y86777D01*
X33151Y86750D01*
X33158Y86722D01*
X33166Y86695D01*
X33176Y86668D01*
X33188Y86642D01*
X33200Y86617D01*
X33214Y86592D01*
X33230Y86568D01*
X33246Y86545D01*
X33264Y86523D01*
X33282Y86502D01*
X33302Y86482D01*
X33323Y86463D01*
X33345Y86445D01*
X33368Y86428D01*
X33391Y86412D01*
X33416Y86398D01*
X33441Y86385D01*
X33467Y86373D01*
X33493Y86362D01*
X33520Y86353D01*
X33547Y86346D01*
X33575Y86340D01*
X33603Y86335D01*
X33631Y86332D01*
X33659Y86330D01*
X33688Y86330D01*
X34633D01*
X34662Y86330D01*
X34690Y86332D01*
X34718Y86335D01*
X34746Y86340D01*
X34774Y86346D01*
X34801Y86353D01*
X34828Y86362D01*
X34855Y86373D01*
X34880Y86385D01*
X34905Y86398D01*
X34930Y86412D01*
X34953Y86428D01*
X34976Y86445D01*
X34998Y86463D01*
X35019Y86482D01*
X35039Y86502D01*
X35058Y86523D01*
X35075Y86545D01*
X35092Y86568D01*
X35107Y86592D01*
X35121Y86617D01*
X35134Y86642D01*
X35145Y86668D01*
X35155Y86695D01*
X35163Y86722D01*
X35171Y86750D01*
X35176Y86777D01*
X35180Y86805D01*
X35183Y86834D01*
X35184Y86861D01*
Y87609D01*
X35183Y87635D01*
X35181Y87661D01*
X35177Y87687D01*
X35171Y87713D01*
X35165Y87738D01*
X35157Y87763D01*
X35148Y87788D01*
X35137Y87812D01*
X35126Y87835D01*
X35113Y87858D01*
X35098Y87880D01*
X35083Y87902D01*
X35067Y87922D01*
X35050Y87942D01*
X35031Y87961D01*
X35012Y87979D01*
X34991Y87995D01*
X34970Y88011D01*
X34948Y88025D01*
X34926Y88039D01*
X34902Y88051D01*
X34879Y88062D01*
X34854Y88071D01*
X34829Y88080D01*
X34804Y88087D01*
X34778Y88092D01*
X34752Y88097D01*
X34726Y88100D01*
X34700Y88101D01*
X34672Y88102D01*
X33649D01*
X33621Y88101D01*
D02*
G37*
G36*
Y90070D02*
X33595Y90068D01*
X33569Y90065D01*
X33543Y90061D01*
X33518Y90055D01*
X33492Y90048D01*
X33467Y90040D01*
X33443Y90030D01*
X33419Y90019D01*
X33396Y90007D01*
X33373Y89994D01*
X33351Y89979D01*
X33330Y89964D01*
X33310Y89947D01*
X33290Y89929D01*
X33272Y89911D01*
X33254Y89891D01*
X33238Y89870D01*
X33223Y89849D01*
X33209Y89827D01*
X33196Y89804D01*
X33184Y89780D01*
X33173Y89756D01*
X33164Y89732D01*
X33156Y89706D01*
X33150Y89681D01*
X33145Y89655D01*
X33141Y89629D01*
X33138Y89603D01*
X33137Y89578D01*
Y89539D01*
Y88830D01*
X33138Y88802D01*
X33141Y88774D01*
X33145Y88746D01*
X33151Y88718D01*
X33158Y88691D01*
X33166Y88664D01*
X33176Y88637D01*
X33188Y88611D01*
X33200Y88586D01*
X33214Y88561D01*
X33230Y88537D01*
X33246Y88514D01*
X33264Y88492D01*
X33282Y88471D01*
X33302Y88450D01*
X33323Y88431D01*
X33345Y88413D01*
X33368Y88396D01*
X33391Y88381D01*
X33416Y88366D01*
X33441Y88353D01*
X33467Y88341D01*
X33493Y88331D01*
X33520Y88322D01*
X33547Y88314D01*
X33575Y88308D01*
X33603Y88304D01*
X33631Y88300D01*
X33659Y88299D01*
X33688Y88298D01*
X34633D01*
X34662Y88299D01*
X34690Y88300D01*
X34718Y88304D01*
X34746Y88308D01*
X34774Y88314D01*
X34801Y88322D01*
X34828Y88331D01*
X34855Y88341D01*
X34880Y88353D01*
X34905Y88366D01*
X34930Y88381D01*
X34953Y88396D01*
X34976Y88413D01*
X34998Y88431D01*
X35019Y88450D01*
X35039Y88471D01*
X35058Y88492D01*
X35075Y88514D01*
X35092Y88537D01*
X35107Y88561D01*
X35121Y88586D01*
X35134Y88611D01*
X35145Y88637D01*
X35155Y88664D01*
X35163Y88691D01*
X35171Y88718D01*
X35176Y88746D01*
X35180Y88774D01*
X35183Y88802D01*
X35184Y88830D01*
Y89578D01*
X35183Y89603D01*
X35181Y89629D01*
X35177Y89655D01*
X35171Y89681D01*
X35165Y89706D01*
X35157Y89732D01*
X35148Y89756D01*
X35137Y89780D01*
X35126Y89804D01*
X35113Y89827D01*
X35098Y89849D01*
X35083Y89870D01*
X35067Y89891D01*
X35050Y89911D01*
X35031Y89929D01*
X35012Y89947D01*
X34991Y89964D01*
X34970Y89979D01*
X34948Y89994D01*
X34926Y90007D01*
X34902Y90019D01*
X34879Y90030D01*
X34854Y90040D01*
X34829Y90048D01*
X34804Y90055D01*
X34778Y90061D01*
X34752Y90065D01*
X34726Y90068D01*
X34700Y90070D01*
X34672Y90070D01*
X33649D01*
X33621Y90070D01*
D02*
G37*
G36*
Y92038D02*
X33595Y92037D01*
X33569Y92034D01*
X33543Y92029D01*
X33518Y92024D01*
X33492Y92017D01*
X33467Y92008D01*
X33443Y91999D01*
X33419Y91988D01*
X33396Y91976D01*
X33373Y91962D01*
X33351Y91948D01*
X33330Y91932D01*
X33310Y91916D01*
X33290Y91898D01*
X33272Y91879D01*
X33254Y91859D01*
X33238Y91839D01*
X33223Y91817D01*
X33209Y91795D01*
X33196Y91772D01*
X33184Y91749D01*
X33173Y91725D01*
X33164Y91700D01*
X33156Y91675D01*
X33150Y91650D01*
X33145Y91624D01*
X33141Y91598D01*
X33138Y91572D01*
X33137Y91546D01*
Y91507D01*
Y90798D01*
X33138Y90771D01*
X33141Y90742D01*
X33145Y90714D01*
X33151Y90687D01*
X33158Y90659D01*
X33166Y90632D01*
X33176Y90605D01*
X33188Y90579D01*
X33200Y90554D01*
X33214Y90529D01*
X33230Y90505D01*
X33246Y90482D01*
X33264Y90460D01*
X33282Y90439D01*
X33302Y90419D01*
X33323Y90400D01*
X33345Y90382D01*
X33368Y90365D01*
X33391Y90349D01*
X33416Y90335D01*
X33441Y90322D01*
X33467Y90310D01*
X33493Y90299D01*
X33520Y90290D01*
X33547Y90283D01*
X33575Y90277D01*
X33603Y90272D01*
X33631Y90269D01*
X33659Y90267D01*
X33688Y90267D01*
X34633D01*
X34662Y90267D01*
X34690Y90269D01*
X34718Y90272D01*
X34746Y90277D01*
X34774Y90283D01*
X34801Y90290D01*
X34828Y90299D01*
X34855Y90310D01*
X34880Y90322D01*
X34905Y90335D01*
X34930Y90349D01*
X34953Y90365D01*
X34976Y90382D01*
X34998Y90400D01*
X35019Y90419D01*
X35039Y90439D01*
X35058Y90460D01*
X35075Y90482D01*
X35092Y90505D01*
X35107Y90529D01*
X35121Y90554D01*
X35134Y90579D01*
X35145Y90605D01*
X35155Y90632D01*
X35163Y90659D01*
X35171Y90687D01*
X35176Y90714D01*
X35180Y90742D01*
X35183Y90771D01*
X35184Y90798D01*
Y91546D01*
X35183Y91572D01*
X35181Y91598D01*
X35177Y91624D01*
X35171Y91650D01*
X35165Y91675D01*
X35157Y91700D01*
X35148Y91725D01*
X35137Y91749D01*
X35126Y91772D01*
X35113Y91795D01*
X35098Y91817D01*
X35083Y91839D01*
X35067Y91859D01*
X35050Y91879D01*
X35031Y91898D01*
X35012Y91916D01*
X34991Y91932D01*
X34970Y91948D01*
X34948Y91962D01*
X34926Y91976D01*
X34902Y91988D01*
X34879Y91999D01*
X34854Y92008D01*
X34829Y92017D01*
X34804Y92024D01*
X34778Y92029D01*
X34752Y92034D01*
X34726Y92037D01*
X34700Y92038D01*
X34672Y92039D01*
X33649D01*
X33621Y92038D01*
D02*
G37*
G36*
Y94007D02*
X33595Y94005D01*
X33569Y94002D01*
X33543Y93998D01*
X33518Y93992D01*
X33492Y93985D01*
X33467Y93977D01*
X33443Y93967D01*
X33419Y93956D01*
X33396Y93944D01*
X33373Y93931D01*
X33351Y93916D01*
X33330Y93901D01*
X33310Y93884D01*
X33290Y93866D01*
X33272Y93848D01*
X33254Y93828D01*
X33238Y93807D01*
X33223Y93786D01*
X33209Y93764D01*
X33196Y93741D01*
X33184Y93717D01*
X33173Y93693D01*
X33164Y93669D01*
X33156Y93643D01*
X33150Y93618D01*
X33145Y93592D01*
X33141Y93566D01*
X33138Y93540D01*
X33137Y93515D01*
Y93476D01*
Y92767D01*
X33138Y92739D01*
X33141Y92711D01*
X33145Y92683D01*
X33151Y92655D01*
X33158Y92628D01*
X33166Y92601D01*
X33176Y92574D01*
X33188Y92548D01*
X33200Y92523D01*
X33214Y92498D01*
X33230Y92474D01*
X33246Y92451D01*
X33264Y92429D01*
X33282Y92408D01*
X33302Y92387D01*
X33323Y92368D01*
X33345Y92350D01*
X33368Y92333D01*
X33391Y92318D01*
X33416Y92303D01*
X33441Y92290D01*
X33467Y92278D01*
X33493Y92268D01*
X33520Y92259D01*
X33547Y92251D01*
X33575Y92245D01*
X33603Y92241D01*
X33631Y92237D01*
X33659Y92236D01*
X33688Y92235D01*
X34633D01*
X34662Y92236D01*
X34690Y92237D01*
X34718Y92241D01*
X34746Y92245D01*
X34774Y92251D01*
X34801Y92259D01*
X34828Y92268D01*
X34855Y92278D01*
X34880Y92290D01*
X34905Y92303D01*
X34930Y92318D01*
X34953Y92333D01*
X34976Y92350D01*
X34998Y92368D01*
X35019Y92387D01*
X35039Y92408D01*
X35058Y92429D01*
X35075Y92451D01*
X35092Y92474D01*
X35107Y92498D01*
X35121Y92523D01*
X35134Y92548D01*
X35145Y92574D01*
X35155Y92601D01*
X35163Y92628D01*
X35171Y92655D01*
X35176Y92683D01*
X35180Y92711D01*
X35183Y92739D01*
X35184Y92767D01*
Y93515D01*
X35183Y93540D01*
X35181Y93566D01*
X35177Y93592D01*
X35171Y93618D01*
X35165Y93643D01*
X35157Y93669D01*
X35148Y93693D01*
X35137Y93717D01*
X35126Y93741D01*
X35113Y93764D01*
X35098Y93786D01*
X35083Y93807D01*
X35067Y93828D01*
X35050Y93848D01*
X35031Y93866D01*
X35012Y93884D01*
X34991Y93901D01*
X34970Y93916D01*
X34948Y93931D01*
X34926Y93944D01*
X34902Y93956D01*
X34879Y93967D01*
X34854Y93977D01*
X34829Y93985D01*
X34804Y93992D01*
X34778Y93998D01*
X34752Y94002D01*
X34726Y94005D01*
X34700Y94007D01*
X34672Y94007D01*
X33649D01*
X33621Y94007D01*
D02*
G37*
D48*
X16700Y97800D02*
D03*
X20700D02*
D03*
X16700Y78600D02*
D03*
X20700D02*
D03*
Y74300D02*
D03*
X16700D02*
D03*
D51*
X29200Y88200D02*
D03*
X20400Y82600D02*
D03*
Y86600D02*
D03*
Y89900D02*
D03*
Y93900D02*
D03*
X16700Y89900D02*
D03*
Y93900D02*
D03*
Y82612D02*
D03*
Y86612D02*
D03*
D66*
X-500Y42900D02*
D03*
Y49900D02*
D03*
D67*
X92000Y76500D02*
D03*
X116800D02*
D03*
Y98300D02*
D03*
X92000D02*
D03*
D76*
X30500Y78700D02*
D03*
X27100D02*
D03*
M02*
