G04*
G04 #@! TF.GenerationSoftware,Altium Limited,Altium Designer,18.1.7 (191)*
G04*
G04 Layer_Physical_Order=2*
G04 Layer_Color=6736896*
%FSLAX25Y25*%
%MOIN*%
G70*
G01*
G75*
%ADD11C,0.00600*%
%ADD15C,0.01000*%
G04:AMPARAMS|DCode=24|XSize=20mil|YSize=20mil|CornerRadius=5mil|HoleSize=0mil|Usage=FLASHONLY|Rotation=270.000|XOffset=0mil|YOffset=0mil|HoleType=Round|Shape=RoundedRectangle|*
%AMROUNDEDRECTD24*
21,1,0.02000,0.01000,0,0,270.0*
21,1,0.01000,0.02000,0,0,270.0*
1,1,0.01000,-0.00500,-0.00500*
1,1,0.01000,-0.00500,0.00500*
1,1,0.01000,0.00500,0.00500*
1,1,0.01000,0.00500,-0.00500*
%
%ADD24ROUNDEDRECTD24*%
G04:AMPARAMS|DCode=27|XSize=20mil|YSize=20mil|CornerRadius=5mil|HoleSize=0mil|Usage=FLASHONLY|Rotation=180.000|XOffset=0mil|YOffset=0mil|HoleType=Round|Shape=RoundedRectangle|*
%AMROUNDEDRECTD27*
21,1,0.02000,0.01000,0,0,180.0*
21,1,0.01000,0.02000,0,0,180.0*
1,1,0.01000,-0.00500,0.00500*
1,1,0.01000,0.00500,0.00500*
1,1,0.01000,0.00500,-0.00500*
1,1,0.01000,-0.00500,-0.00500*
%
%ADD27ROUNDEDRECTD27*%
%ADD68C,0.01575*%
%ADD69C,0.01400*%
%ADD71O,0.03150X0.11811*%
%ADD72C,0.02000*%
%ADD73C,0.02362*%
G04:AMPARAMS|DCode=74|XSize=16.54mil|YSize=13.78mil|CornerRadius=3.45mil|HoleSize=0mil|Usage=FLASHONLY|Rotation=0.000|XOffset=0mil|YOffset=0mil|HoleType=Round|Shape=RoundedRectangle|*
%AMROUNDEDRECTD74*
21,1,0.01654,0.00689,0,0,0.0*
21,1,0.00965,0.01378,0,0,0.0*
1,1,0.00689,0.00482,-0.00345*
1,1,0.00689,-0.00482,-0.00345*
1,1,0.00689,-0.00482,0.00345*
1,1,0.00689,0.00482,0.00345*
%
%ADD74ROUNDEDRECTD74*%
%ADD75R,0.01968X0.01968*%
G36*
X43242Y154987D02*
X42400Y154000D01*
X42395Y154076D01*
X42379Y154144D01*
X42353Y154204D01*
X42317Y154256D01*
X42271Y154300D01*
X42214Y154336D01*
X42147Y154364D01*
X42069Y154384D01*
X41982Y154396D01*
X41884Y154400D01*
X42086Y155000D01*
X43242Y154987D01*
D02*
G37*
G36*
X41179Y152185D02*
X41250Y152132D01*
X41325Y152085D01*
X41406Y152044D01*
X41491Y152009D01*
X41581Y151982D01*
X41676Y151960D01*
X41776Y151945D01*
X41880Y151937D01*
X41990Y151935D01*
X41000Y150945D01*
X40998Y151054D01*
X40989Y151159D01*
X40974Y151259D01*
X40953Y151354D01*
X40925Y151444D01*
X40891Y151529D01*
X40850Y151609D01*
X40803Y151685D01*
X40749Y151756D01*
X40689Y151821D01*
X41113Y152246D01*
X41179Y152185D01*
D02*
G37*
G36*
X34224Y150607D02*
X34156Y150527D01*
X34096Y150446D01*
X34044Y150363D01*
X34000Y150280D01*
X33964Y150195D01*
X33936Y150110D01*
X33916Y150023D01*
X33904Y149935D01*
X33900Y149846D01*
X33300D01*
X33296Y149935D01*
X33284Y150023D01*
X33264Y150110D01*
X33236Y150195D01*
X33200Y150280D01*
X33156Y150363D01*
X33104Y150446D01*
X33044Y150527D01*
X32976Y150607D01*
X32900Y150686D01*
X34300D01*
X34224Y150607D01*
D02*
G37*
G36*
X29724Y150142D02*
X29656Y150061D01*
X29596Y149980D01*
X29544Y149898D01*
X29500Y149814D01*
X29464Y149730D01*
X29436Y149644D01*
X29416Y149558D01*
X29404Y149470D01*
X29400Y149381D01*
X28800D01*
X28796Y149470D01*
X28784Y149558D01*
X28764Y149644D01*
X28736Y149730D01*
X28700Y149814D01*
X28656Y149898D01*
X28604Y149980D01*
X28544Y150061D01*
X28476Y150142D01*
X28400Y150221D01*
X29800D01*
X29724Y150142D01*
D02*
G37*
G36*
X14104Y125365D02*
X14116Y125277D01*
X14136Y125190D01*
X14164Y125105D01*
X14200Y125020D01*
X14244Y124937D01*
X14296Y124854D01*
X14356Y124773D01*
X14424Y124693D01*
X14500Y124614D01*
X13100D01*
X13176Y124693D01*
X13244Y124773D01*
X13304Y124854D01*
X13356Y124937D01*
X13400Y125020D01*
X13436Y125105D01*
X13464Y125190D01*
X13484Y125277D01*
X13496Y125365D01*
X13500Y125454D01*
X14100D01*
X14104Y125365D01*
D02*
G37*
G36*
X41786Y123900D02*
X41743Y123938D01*
X41693Y123972D01*
X41636Y124002D01*
X41572Y124028D01*
X41500Y124050D01*
X41421Y124068D01*
X41335Y124082D01*
X41242Y124092D01*
X41034Y124100D01*
Y125100D01*
X41142Y125102D01*
X41335Y125118D01*
X41421Y125132D01*
X41500Y125150D01*
X41572Y125172D01*
X41636Y125198D01*
X41693Y125228D01*
X41743Y125262D01*
X41786Y125300D01*
Y123900D01*
D02*
G37*
G36*
X40257Y125262D02*
X40307Y125228D01*
X40364Y125198D01*
X40429Y125172D01*
X40500Y125150D01*
X40579Y125132D01*
X40665Y125118D01*
X40758Y125108D01*
X40966Y125100D01*
Y124100D01*
X40858Y124098D01*
X40665Y124082D01*
X40579Y124068D01*
X40500Y124050D01*
X40429Y124028D01*
X40364Y124002D01*
X40307Y123972D01*
X40257Y123938D01*
X40214Y123900D01*
Y125300D01*
X40257Y125262D01*
D02*
G37*
G36*
X38786Y123900D02*
X38743Y123938D01*
X38693Y123972D01*
X38636Y124002D01*
X38572Y124028D01*
X38500Y124050D01*
X38421Y124068D01*
X38335Y124082D01*
X38242Y124092D01*
X38034Y124100D01*
Y125100D01*
X38142Y125102D01*
X38335Y125118D01*
X38421Y125132D01*
X38500Y125150D01*
X38572Y125172D01*
X38636Y125198D01*
X38693Y125228D01*
X38743Y125262D01*
X38786Y125300D01*
Y123900D01*
D02*
G37*
G36*
X11404Y123065D02*
X11416Y122977D01*
X11436Y122890D01*
X11464Y122805D01*
X11500Y122720D01*
X11544Y122637D01*
X11596Y122554D01*
X11656Y122473D01*
X11724Y122393D01*
X11800Y122314D01*
X10400D01*
X10476Y122393D01*
X10544Y122473D01*
X10604Y122554D01*
X10656Y122637D01*
X10700Y122720D01*
X10736Y122805D01*
X10764Y122890D01*
X10784Y122977D01*
X10796Y123065D01*
X10800Y123154D01*
X11400D01*
X11404Y123065D01*
D02*
G37*
G36*
X38786Y120800D02*
X38707Y120876D01*
X38627Y120944D01*
X38546Y121004D01*
X38463Y121056D01*
X38380Y121100D01*
X38295Y121136D01*
X38210Y121164D01*
X38123Y121184D01*
X38035Y121196D01*
X37946Y121200D01*
Y121800D01*
X38035Y121804D01*
X38123Y121816D01*
X38210Y121836D01*
X38295Y121864D01*
X38380Y121900D01*
X38463Y121944D01*
X38546Y121996D01*
X38627Y122056D01*
X38707Y122124D01*
X38786Y122200D01*
Y120800D01*
D02*
G37*
G36*
X38679Y118651D02*
X38750Y118597D01*
X38825Y118550D01*
X38906Y118509D01*
X38991Y118475D01*
X39081Y118447D01*
X39176Y118426D01*
X39276Y118411D01*
X39380Y118402D01*
X39490Y118400D01*
X38500Y117410D01*
X38498Y117520D01*
X38489Y117624D01*
X38474Y117724D01*
X38453Y117819D01*
X38425Y117909D01*
X38391Y117994D01*
X38350Y118075D01*
X38303Y118150D01*
X38249Y118221D01*
X38189Y118287D01*
X38613Y118711D01*
X38679Y118651D01*
D02*
G37*
G36*
X96203Y117094D02*
X96232Y117085D01*
X96275Y117077D01*
X96330Y117070D01*
X96576Y117056D01*
X96940Y117051D01*
X96855Y115476D01*
X96121Y115451D01*
X96187Y117103D01*
X96203Y117094D01*
D02*
G37*
G36*
X21919Y108003D02*
X21812Y108009D01*
X21709Y108006D01*
X21611Y107997D01*
X21517Y107980D01*
X21428Y107956D01*
X21343Y107924D01*
X21263Y107886D01*
X21188Y107840D01*
X21116Y107786D01*
X21050Y107725D01*
X20657Y108181D01*
X20716Y108246D01*
X20770Y108316D01*
X20818Y108391D01*
X20861Y108471D01*
X20898Y108556D01*
X20930Y108647D01*
X20956Y108742D01*
X20977Y108843D01*
X20992Y108949D01*
X21002Y109061D01*
X21919Y108003D01*
D02*
G37*
G36*
X27224Y108607D02*
X27156Y108527D01*
X27096Y108446D01*
X27044Y108363D01*
X27000Y108280D01*
X26964Y108195D01*
X26936Y108110D01*
X26916Y108023D01*
X26904Y107935D01*
X26900Y107846D01*
X26300D01*
X26296Y107935D01*
X26284Y108023D01*
X26264Y108110D01*
X26236Y108195D01*
X26200Y108280D01*
X26156Y108363D01*
X26104Y108446D01*
X26044Y108527D01*
X25976Y108607D01*
X25900Y108686D01*
X27300D01*
X27224Y108607D01*
D02*
G37*
G36*
X-898Y103865D02*
X-886Y103777D01*
X-866Y103690D01*
X-838Y103605D01*
X-802Y103520D01*
X-758Y103437D01*
X-706Y103354D01*
X-646Y103273D01*
X-578Y103193D01*
X-502Y103114D01*
X-1902D01*
X-1826Y103193D01*
X-1758Y103273D01*
X-1698Y103354D01*
X-1646Y103437D01*
X-1602Y103520D01*
X-1566Y103605D01*
X-1538Y103690D01*
X-1518Y103777D01*
X-1506Y103865D01*
X-1502Y103954D01*
X-902D01*
X-898Y103865D01*
D02*
G37*
G36*
X21003Y99278D02*
X21012Y99170D01*
X21027Y99075D01*
X21048Y98993D01*
X21074Y98924D01*
X21107Y98867D01*
X21146Y98823D01*
X21191Y98791D01*
X21241Y98772D01*
X21298Y98766D01*
X20102D01*
X20159Y98772D01*
X20210Y98791D01*
X20254Y98823D01*
X20293Y98867D01*
X20326Y98924D01*
X20352Y98993D01*
X20373Y99075D01*
X20388Y99170D01*
X20397Y99278D01*
X20400Y99398D01*
X21000D01*
X21003Y99278D01*
D02*
G37*
G36*
X-389Y99487D02*
X-449Y99421D01*
X-503Y99350D01*
X-550Y99275D01*
X-591Y99194D01*
X-625Y99109D01*
X-653Y99019D01*
X-674Y98924D01*
X-689Y98824D01*
X-698Y98720D01*
X-700Y98610D01*
X-1690Y99600D01*
X-1580Y99602D01*
X-1476Y99611D01*
X-1376Y99626D01*
X-1281Y99647D01*
X-1191Y99675D01*
X-1106Y99709D01*
X-1025Y99750D01*
X-950Y99797D01*
X-879Y99851D01*
X-813Y99911D01*
X-389Y99487D01*
D02*
G37*
G36*
X30000Y98882D02*
X29971Y98831D01*
X29500Y98510D01*
X29482Y98514D01*
X22351D01*
X22308Y98533D01*
X22201Y98536D01*
X22122Y98542D01*
X22068Y98550D01*
X22048Y98651D01*
X21849Y98949D01*
X21551Y99148D01*
X21451Y99168D01*
X21442Y99222D01*
X21436Y99301D01*
X21433Y99408D01*
X21414Y99451D01*
Y100904D01*
X27105Y106595D01*
X27259Y106827D01*
X27314Y107100D01*
Y107786D01*
X27332Y107827D01*
X27336Y107896D01*
X27342Y107945D01*
X27354Y107994D01*
X27370Y108043D01*
X27391Y108094D01*
X27419Y108146D01*
X27454Y108201D01*
X27496Y108258D01*
X27545Y108316D01*
X27612Y108386D01*
X27620Y108407D01*
X27919Y108854D01*
X28027Y109400D01*
X27919Y109946D01*
X27609Y110409D01*
X27146Y110719D01*
X26600Y110827D01*
X26054Y110719D01*
X25591Y110409D01*
X25281Y109946D01*
X25173Y109400D01*
X25281Y108854D01*
X25580Y108407D01*
X25588Y108386D01*
X25655Y108316D01*
X25705Y108258D01*
X25746Y108201D01*
X25781Y108146D01*
X25809Y108094D01*
X25830Y108043D01*
X25846Y107994D01*
X25858Y107945D01*
X25864Y107896D01*
X25868Y107827D01*
X25886Y107786D01*
Y107396D01*
X20195Y101705D01*
X20041Y101473D01*
X19986Y101200D01*
Y99685D01*
X19964Y99655D01*
X19926Y99634D01*
X19426Y99933D01*
Y105517D01*
X21294Y107385D01*
X21332Y107397D01*
X21335Y107403D01*
X21341Y107405D01*
X21393Y107452D01*
X21431Y107481D01*
X21471Y107505D01*
X21513Y107526D01*
X21560Y107543D01*
X21612Y107557D01*
X21670Y107568D01*
X21735Y107574D01*
X21806Y107575D01*
X21898Y107571D01*
X21938Y107585D01*
X22000Y107573D01*
X22546Y107681D01*
X23009Y107991D01*
X23319Y108454D01*
X23427Y109000D01*
X23319Y109546D01*
X23009Y110009D01*
X22546Y110319D01*
X22000Y110427D01*
X21454Y110319D01*
X20991Y110009D01*
X20681Y109546D01*
X20606Y109166D01*
X20571Y109098D01*
X20562Y108999D01*
X20550Y108918D01*
X20535Y108843D01*
X20516Y108776D01*
X20495Y108715D01*
X20471Y108660D01*
X20445Y108610D01*
X20416Y108565D01*
X20384Y108525D01*
X20338Y108474D01*
X20323Y108432D01*
X18208Y106317D01*
X18053Y106085D01*
X17999Y105812D01*
Y95588D01*
X18053Y95315D01*
X18208Y95083D01*
X18657Y94633D01*
X18673Y94591D01*
X18881Y94367D01*
X18947Y94285D01*
X18982Y94235D01*
Y94051D01*
X18981Y94049D01*
X18982Y94047D01*
Y93400D01*
X19052Y93049D01*
X19251Y92751D01*
X19549Y92552D01*
X19900Y92482D01*
X20547D01*
X20549Y92481D01*
X20551Y92482D01*
X20734D01*
X20780Y92450D01*
X20973Y92287D01*
X21085Y92179D01*
X21129Y92161D01*
X21825Y91466D01*
X21506Y91077D01*
X21251Y91248D01*
X20900Y91318D01*
X19900D01*
X19549Y91248D01*
X19251Y91049D01*
X19052Y90751D01*
X19032Y90650D01*
X18978Y90642D01*
X18899Y90636D01*
X18792Y90633D01*
X18749Y90614D01*
X18351D01*
X18308Y90633D01*
X18201Y90636D01*
X18122Y90642D01*
X18068Y90650D01*
X18048Y90751D01*
X17849Y91049D01*
X17551Y91248D01*
X17200Y91318D01*
X16200D01*
X15849Y91248D01*
X15551Y91049D01*
X15352Y90751D01*
X15332Y90650D01*
X15278Y90642D01*
X15199Y90636D01*
X15092Y90633D01*
X15049Y90614D01*
X11900D01*
X11627Y90559D01*
X11395Y90405D01*
X9295Y88305D01*
X9141Y88073D01*
X9086Y87800D01*
Y86214D01*
X9067Y86173D01*
X9064Y86104D01*
X9058Y86055D01*
X9047Y86006D01*
X9030Y85957D01*
X9009Y85906D01*
X8981Y85854D01*
X8946Y85799D01*
X8905Y85742D01*
X8855Y85684D01*
X8788Y85614D01*
X8780Y85593D01*
X8481Y85146D01*
X8373Y84600D01*
X8481Y84054D01*
X8791Y83591D01*
X9254Y83281D01*
X9780Y83176D01*
X9802Y83167D01*
X9898Y83165D01*
X9974Y83159D01*
X10044Y83149D01*
X10107Y83134D01*
X10164Y83117D01*
X10215Y83096D01*
X10262Y83073D01*
X10304Y83046D01*
X10343Y83016D01*
X10395Y82969D01*
X10420Y82960D01*
X10467Y82898D01*
X10507Y82829D01*
X10516Y82775D01*
Y82350D01*
X10062Y81896D01*
X2182D01*
X1909Y81842D01*
X1678Y81687D01*
X-1164Y78846D01*
X-1205Y78830D01*
X-1257Y78784D01*
X-1296Y78754D01*
X-1338Y78727D01*
X-1385Y78704D01*
X-1436Y78683D01*
X-1493Y78666D01*
X-1556Y78651D01*
X-1626Y78641D01*
X-1702Y78635D01*
X-1798Y78633D01*
X-1820Y78623D01*
X-2346Y78519D01*
X-2809Y78209D01*
X-3119Y77746D01*
X-3227Y77200D01*
X-3119Y76654D01*
X-2809Y76191D01*
X-2346Y75881D01*
X-1800Y75773D01*
X-1254Y75881D01*
X-791Y76191D01*
X-481Y76654D01*
X-377Y77180D01*
X-367Y77202D01*
X-365Y77298D01*
X-359Y77375D01*
X-349Y77444D01*
X-334Y77507D01*
X-317Y77564D01*
X-296Y77615D01*
X-273Y77662D01*
X-246Y77704D01*
X-216Y77743D01*
X-169Y77795D01*
X-154Y77836D01*
X2478Y80469D01*
X10358D01*
X10631Y80523D01*
X10863Y80678D01*
X11740Y81555D01*
X11783Y81571D01*
X11857Y81641D01*
X11922Y81692D01*
X11987Y81736D01*
X12054Y81774D01*
X12122Y81806D01*
X12192Y81832D01*
X12266Y81852D01*
X12343Y81867D01*
X12426Y81876D01*
X12528Y81880D01*
X12569Y81899D01*
X15049D01*
X15092Y81879D01*
X15199Y81877D01*
X15278Y81870D01*
X15332Y81862D01*
X15352Y81761D01*
X15551Y81463D01*
X15849Y81265D01*
X16200Y81195D01*
X17200D01*
X17551Y81265D01*
X17849Y81463D01*
X18048Y81761D01*
X18065Y81849D01*
X18121Y81858D01*
X18201Y81865D01*
X18308Y81867D01*
X18351Y81886D01*
X18749D01*
X18792Y81867D01*
X18899Y81865D01*
X18978Y81858D01*
X19032Y81849D01*
X19052Y81749D01*
X19251Y81451D01*
X19549Y81252D01*
X19900Y81182D01*
X20900D01*
X21251Y81252D01*
X21549Y81451D01*
X21748Y81749D01*
X21818Y82100D01*
Y82582D01*
X22318Y82789D01*
X22332Y82774D01*
X22564Y82619D01*
X22741Y82584D01*
X22828Y82546D01*
X22948Y82543D01*
X23041Y82537D01*
X23114Y82527D01*
X23137Y82522D01*
X23218Y82401D01*
X23219Y82398D01*
X23220Y82398D01*
X23220Y82398D01*
X23253Y82376D01*
X23262Y82361D01*
X23284Y82355D01*
X23467Y82233D01*
X23757Y82175D01*
X24459D01*
X24666Y81675D01*
X23950Y80959D01*
X23908Y80944D01*
X23798Y80844D01*
X23752Y80807D01*
X23623Y80717D01*
X23562Y80680D01*
X23312Y80547D01*
X23222Y80505D01*
X23221Y80504D01*
X23220Y80504D01*
X23180Y80460D01*
X22805Y80209D01*
X22495Y79746D01*
X22387Y79200D01*
X22495Y78654D01*
X22805Y78191D01*
X23268Y77881D01*
X23814Y77773D01*
X24361Y77881D01*
X24824Y78191D01*
X25122Y78637D01*
X25224Y78659D01*
X25648Y78682D01*
X25695Y78576D01*
X25716Y78526D01*
Y78410D01*
X25710Y78400D01*
X25665Y78335D01*
X25501Y78141D01*
X25392Y78029D01*
X25374Y77984D01*
X24604Y77214D01*
X19096D01*
X18443Y77867D01*
X18427Y77909D01*
X18219Y78133D01*
X18153Y78215D01*
X18118Y78266D01*
Y78449D01*
X18119Y78451D01*
X18118Y78453D01*
Y79100D01*
X18048Y79451D01*
X17849Y79749D01*
X17551Y79948D01*
X17200Y80018D01*
X16200D01*
X15849Y79948D01*
X15551Y79749D01*
X15352Y79451D01*
X15282Y79100D01*
Y78100D01*
X15352Y77749D01*
X15551Y77451D01*
X15849Y77252D01*
X16200Y77182D01*
X16847D01*
X16849Y77182D01*
X16851Y77182D01*
X17034D01*
X17081Y77150D01*
X17273Y76987D01*
X17385Y76879D01*
X17429Y76861D01*
X18295Y75995D01*
X18527Y75841D01*
X18800Y75786D01*
X24900D01*
X25173Y75841D01*
X25405Y75995D01*
X26380Y76970D01*
X26422Y76986D01*
X26648Y77196D01*
X26731Y77262D01*
X26801Y77311D01*
X26810Y77316D01*
X26926D01*
X26976Y77295D01*
X27009Y77308D01*
X27044Y77300D01*
X27069Y77316D01*
X28484D01*
Y80084D01*
X28301D01*
X28094Y80584D01*
X29538Y82029D01*
X30000Y81837D01*
Y80084D01*
X29116D01*
Y77316D01*
X29399D01*
X29606Y76816D01*
X28536Y75746D01*
X28495Y75731D01*
X28443Y75684D01*
X28404Y75654D01*
X28362Y75627D01*
X28315Y75604D01*
X28264Y75583D01*
X28207Y75566D01*
X28144Y75551D01*
X28074Y75541D01*
X27998Y75535D01*
X27902Y75533D01*
X27880Y75524D01*
X27354Y75419D01*
X26891Y75109D01*
X26581Y74646D01*
X26473Y74100D01*
X26581Y73554D01*
X26891Y73091D01*
X27354Y72781D01*
X27900Y72673D01*
X28446Y72781D01*
X28909Y73091D01*
X29219Y73554D01*
X29324Y74080D01*
X29333Y74102D01*
X29335Y74198D01*
X29341Y74274D01*
X29345Y74300D01*
X29500Y74416D01*
X29724Y74363D01*
X29860Y74282D01*
X30000Y74111D01*
Y70936D01*
X29996Y70936D01*
X29927Y70933D01*
X29886Y70914D01*
X29400D01*
X29127Y70859D01*
X28895Y70705D01*
X27116Y68925D01*
X27073Y68909D01*
X26998Y68839D01*
X26934Y68788D01*
X26869Y68744D01*
X26802Y68706D01*
X26734Y68674D01*
X26663Y68648D01*
X26589Y68628D01*
X26512Y68613D01*
X26430Y68604D01*
X26328Y68600D01*
X26287Y68581D01*
X21028D01*
X17414Y72196D01*
Y72649D01*
X17433Y72692D01*
X17436Y72799D01*
X17442Y72878D01*
X17451Y72932D01*
X17551Y72952D01*
X17849Y73151D01*
X18048Y73449D01*
X18118Y73800D01*
Y74800D01*
X18048Y75151D01*
X17849Y75449D01*
X17551Y75648D01*
X17200Y75718D01*
X16200D01*
X15849Y75648D01*
X15551Y75449D01*
X15352Y75151D01*
X15282Y74800D01*
Y73800D01*
X15352Y73449D01*
X15551Y73151D01*
X15849Y72952D01*
X15949Y72932D01*
X15958Y72878D01*
X15965Y72799D01*
X15967Y72692D01*
X15986Y72649D01*
Y71900D01*
X16041Y71627D01*
X16195Y71395D01*
X20227Y67363D01*
X20459Y67208D01*
X20732Y67154D01*
X26287D01*
X26328Y67135D01*
X26430Y67132D01*
X26512Y67122D01*
X26589Y67108D01*
X26663Y67087D01*
X26734Y67061D01*
X26802Y67030D01*
X26869Y66992D01*
X26934Y66948D01*
X26998Y66896D01*
X27073Y66827D01*
X27116Y66811D01*
X29754Y64172D01*
Y58132D01*
X29808Y57859D01*
X29963Y57627D01*
X30000Y57591D01*
Y32580D01*
X29500Y32335D01*
X29054Y32423D01*
X29033Y32433D01*
X28937Y32435D01*
X28860Y32441D01*
X28790Y32451D01*
X28727Y32466D01*
X28670Y32483D01*
X28619Y32504D01*
X28573Y32527D01*
X28530Y32554D01*
X28491Y32584D01*
X28440Y32631D01*
X28398Y32646D01*
X8239Y52805D01*
X8008Y52959D01*
X7735Y53014D01*
X5010D01*
X-5086Y63110D01*
Y88790D01*
X24110Y117986D01*
X30000D01*
Y98882D01*
D02*
G37*
G36*
X21672Y98341D02*
X21691Y98290D01*
X21723Y98246D01*
X21767Y98207D01*
X21824Y98174D01*
X21893Y98148D01*
X21975Y98127D01*
X22070Y98112D01*
X22177Y98103D01*
X22298Y98100D01*
Y97500D01*
X22177Y97497D01*
X22070Y97488D01*
X21975Y97473D01*
X21893Y97452D01*
X21824Y97426D01*
X21767Y97393D01*
X21723Y97354D01*
X21691Y97309D01*
X21672Y97259D01*
X21666Y97202D01*
Y98398D01*
X21672Y98341D01*
D02*
G37*
G36*
X19536Y95192D02*
X19755Y95007D01*
X19851Y94939D01*
X19939Y94889D01*
X20018Y94854D01*
X20089Y94837D01*
X20152Y94837D01*
X20206Y94853D01*
X20251Y94886D01*
X19414Y94049D01*
X19447Y94095D01*
X19463Y94148D01*
X19463Y94211D01*
X19445Y94282D01*
X19411Y94361D01*
X19361Y94449D01*
X19293Y94545D01*
X19209Y94650D01*
X18990Y94885D01*
X19415Y95310D01*
X19536Y95192D01*
D02*
G37*
G36*
X26824Y94407D02*
X26756Y94327D01*
X26696Y94246D01*
X26644Y94163D01*
X26600Y94080D01*
X26564Y93995D01*
X26536Y93910D01*
X26516Y93823D01*
X26504Y93735D01*
X26500Y93646D01*
X25900D01*
X25896Y93735D01*
X25884Y93823D01*
X25864Y93910D01*
X25836Y93995D01*
X25800Y94080D01*
X25756Y94163D01*
X25704Y94246D01*
X25644Y94327D01*
X25576Y94407D01*
X25500Y94486D01*
X26900D01*
X26824Y94407D01*
D02*
G37*
G36*
X26500Y92300D02*
X25900Y91576D01*
X25896Y91694D01*
X25883Y91809D01*
X25862Y91920D01*
X25832Y92028D01*
X25794Y92132D01*
X25747Y92233D01*
X25692Y92330D01*
X25629Y92423D01*
X25556Y92513D01*
X25476Y92600D01*
X25591Y93333D01*
X25650Y93281D01*
X25702Y93246D01*
X25749Y93230D01*
X25789Y93232D01*
X25823Y93252D01*
X25850Y93290D01*
X25872Y93346D01*
X25888Y93421D01*
X25897Y93513D01*
X25900Y93624D01*
X26500Y92300D01*
D02*
G37*
G36*
X33595Y94115D02*
X33809Y93934D01*
X33905Y93867D01*
X33994Y93816D01*
X34075Y93780D01*
X34148Y93760D01*
X34215Y93755D01*
X34274Y93766D01*
X34326Y93793D01*
X33351Y93094D01*
X33390Y93133D01*
X33411Y93183D01*
X33414Y93242D01*
X33398Y93311D01*
X33364Y93390D01*
X33313Y93479D01*
X33243Y93578D01*
X33155Y93687D01*
X32924Y93934D01*
X33477Y94229D01*
X33595Y94115D01*
D02*
G37*
G36*
X25052Y93436D02*
X25062Y93433D01*
X25078Y93430D01*
X25102Y93428D01*
X25210Y93423D01*
X25379Y93421D01*
Y92821D01*
X25049Y92803D01*
Y93439D01*
X25052Y93436D01*
D02*
G37*
G36*
X21353Y93705D02*
X21337Y93651D01*
X21337Y93589D01*
X21354Y93518D01*
X21388Y93439D01*
X21439Y93351D01*
X21507Y93255D01*
X21591Y93150D01*
X21810Y92915D01*
X21385Y92490D01*
X21264Y92608D01*
X21045Y92793D01*
X20949Y92861D01*
X20861Y92911D01*
X20782Y92945D01*
X20711Y92963D01*
X20648Y92963D01*
X20595Y92947D01*
X20549Y92914D01*
X21386Y93751D01*
X21353Y93705D01*
D02*
G37*
G36*
X42689Y90225D02*
X42666Y90217D01*
X42634Y90199D01*
X42595Y90171D01*
X42546Y90133D01*
X42352Y89958D01*
X42082Y89692D01*
X40898Y90491D01*
X40990Y90582D01*
X41142Y90749D01*
X41202Y90825D01*
X41252Y90897D01*
X41291Y90964D01*
X41320Y91026D01*
X41338Y91084D01*
X41346Y91137D01*
X41343Y91186D01*
X42689Y90225D01*
D02*
G37*
G36*
X21390Y90283D02*
X21402Y90266D01*
X21423Y90250D01*
X21452Y90237D01*
X21489Y90226D01*
X21535Y90216D01*
X21589Y90209D01*
X21721Y90201D01*
X21800Y90200D01*
Y89600D01*
X21721Y89599D01*
X21535Y89584D01*
X21489Y89574D01*
X21452Y89563D01*
X21423Y89550D01*
X21402Y89534D01*
X21390Y89517D01*
X21386Y89498D01*
Y90302D01*
X21390Y90283D01*
D02*
G37*
G36*
X19434Y89302D02*
X19428Y89359D01*
X19409Y89410D01*
X19377Y89454D01*
X19333Y89493D01*
X19276Y89526D01*
X19207Y89552D01*
X19125Y89573D01*
X19030Y89588D01*
X18923Y89597D01*
X18802Y89600D01*
Y90200D01*
X18923Y90203D01*
X19030Y90212D01*
X19125Y90227D01*
X19207Y90248D01*
X19276Y90274D01*
X19333Y90307D01*
X19377Y90346D01*
X19409Y90390D01*
X19428Y90441D01*
X19434Y90498D01*
Y89302D01*
D02*
G37*
G36*
X17672Y90441D02*
X17691Y90390D01*
X17723Y90346D01*
X17767Y90307D01*
X17824Y90274D01*
X17893Y90248D01*
X17975Y90227D01*
X18070Y90212D01*
X18178Y90203D01*
X18298Y90200D01*
Y89600D01*
X18178Y89597D01*
X18070Y89588D01*
X17975Y89573D01*
X17893Y89552D01*
X17824Y89526D01*
X17767Y89493D01*
X17723Y89454D01*
X17691Y89410D01*
X17672Y89359D01*
X17666Y89302D01*
Y90498D01*
X17672Y90441D01*
D02*
G37*
G36*
X15734Y89302D02*
X15728Y89359D01*
X15709Y89410D01*
X15677Y89454D01*
X15633Y89493D01*
X15576Y89526D01*
X15507Y89552D01*
X15425Y89573D01*
X15330Y89588D01*
X15223Y89597D01*
X15102Y89600D01*
Y90200D01*
X15223Y90203D01*
X15330Y90212D01*
X15425Y90227D01*
X15507Y90248D01*
X15576Y90274D01*
X15633Y90307D01*
X15677Y90346D01*
X15709Y90390D01*
X15728Y90441D01*
X15734Y90498D01*
Y89302D01*
D02*
G37*
G36*
X25052Y89503D02*
X25062Y89499D01*
X25079Y89496D01*
X25102Y89493D01*
X25170Y89488D01*
X25384Y89484D01*
Y88884D01*
X25321Y88884D01*
X25062Y88869D01*
X25052Y88865D01*
X25049Y88861D01*
Y89508D01*
X25052Y89503D01*
D02*
G37*
G36*
X33439Y88600D02*
X33397Y88654D01*
X33350Y88702D01*
X33296Y88745D01*
X33236Y88782D01*
X33169Y88813D01*
X33096Y88839D01*
X33016Y88859D01*
X32930Y88873D01*
X32838Y88881D01*
X32739Y88884D01*
Y89484D01*
X32838Y89487D01*
X32930Y89496D01*
X33016Y89510D01*
X33096Y89530D01*
X33169Y89555D01*
X33236Y89587D01*
X33296Y89623D01*
X33350Y89666D01*
X33397Y89714D01*
X33439Y89768D01*
Y88600D01*
D02*
G37*
G36*
X23517D02*
X23476Y88654D01*
X23429Y88702D01*
X23375Y88745D01*
X23314Y88782D01*
X23248Y88813D01*
X23175Y88839D01*
X23095Y88859D01*
X23009Y88873D01*
X22917Y88881D01*
X22818Y88884D01*
Y89484D01*
X22917Y89487D01*
X23009Y89496D01*
X23095Y89510D01*
X23175Y89530D01*
X23248Y89555D01*
X23314Y89587D01*
X23375Y89623D01*
X23429Y89666D01*
X23476Y89714D01*
X23517Y89768D01*
Y88600D01*
D02*
G37*
G36*
X15734Y86015D02*
X15728Y86071D01*
X15709Y86122D01*
X15677Y86166D01*
X15633Y86205D01*
X15576Y86238D01*
X15507Y86265D01*
X15425Y86286D01*
X15330Y86300D01*
X15223Y86309D01*
X15102Y86312D01*
Y86912D01*
X15223Y86915D01*
X15330Y86924D01*
X15425Y86939D01*
X15507Y86960D01*
X15576Y86987D01*
X15633Y87019D01*
X15677Y87058D01*
X15709Y87103D01*
X15728Y87153D01*
X15734Y87210D01*
Y86015D01*
D02*
G37*
G36*
X13905Y87236D02*
X13985Y87168D01*
X14067Y87108D01*
X14149Y87056D01*
X14232Y87012D01*
X14317Y86976D01*
X14403Y86948D01*
X14489Y86928D01*
X14577Y86916D01*
X14666Y86912D01*
Y86312D01*
X14577Y86308D01*
X14489Y86296D01*
X14403Y86276D01*
X14317Y86248D01*
X14232Y86212D01*
X14149Y86168D01*
X14067Y86116D01*
X13985Y86056D01*
X13905Y85988D01*
X13826Y85912D01*
Y87312D01*
X13905Y87236D01*
D02*
G37*
G36*
X10104Y86065D02*
X10116Y85977D01*
X10136Y85890D01*
X10164Y85805D01*
X10200Y85720D01*
X10244Y85637D01*
X10296Y85554D01*
X10356Y85473D01*
X10424Y85393D01*
X10500Y85314D01*
X9100D01*
X9176Y85393D01*
X9244Y85473D01*
X9304Y85554D01*
X9356Y85637D01*
X9400Y85720D01*
X9436Y85805D01*
X9464Y85890D01*
X9484Y85977D01*
X9496Y86065D01*
X9500Y86154D01*
X10100D01*
X10104Y86065D01*
D02*
G37*
G36*
X17653Y86418D02*
X17637Y86364D01*
X17637Y86301D01*
X17654Y86230D01*
X17688Y86151D01*
X17739Y86063D01*
X17807Y85967D01*
X17891Y85862D01*
X18110Y85627D01*
X17685Y85203D01*
X17564Y85320D01*
X17345Y85505D01*
X17249Y85573D01*
X17161Y85624D01*
X17082Y85658D01*
X17011Y85675D01*
X16948Y85676D01*
X16894Y85660D01*
X16849Y85627D01*
X17686Y86463D01*
X17653Y86418D01*
D02*
G37*
G36*
X25003Y85777D02*
X25050Y85729D01*
X25104Y85686D01*
X25164Y85650D01*
X25231Y85618D01*
X25304Y85593D01*
X25384Y85573D01*
X25470Y85559D01*
X25562Y85550D01*
X25661Y85547D01*
Y84947D01*
X25562Y84944D01*
X25470Y84936D01*
X25384Y84922D01*
X25304Y84902D01*
X25231Y84876D01*
X25164Y84845D01*
X25104Y84808D01*
X25050Y84765D01*
X25003Y84717D01*
X24961Y84663D01*
Y85831D01*
X25003Y85777D01*
D02*
G37*
G36*
X23517Y84663D02*
X23476Y84717D01*
X23429Y84765D01*
X23375Y84808D01*
X23314Y84845D01*
X23248Y84876D01*
X23175Y84902D01*
X23095Y84922D01*
X23009Y84936D01*
X22917Y84944D01*
X22818Y84947D01*
Y85547D01*
X22917Y85550D01*
X23009Y85559D01*
X23095Y85573D01*
X23175Y85593D01*
X23248Y85618D01*
X23314Y85650D01*
X23375Y85686D01*
X23429Y85729D01*
X23476Y85777D01*
X23517Y85831D01*
Y84663D01*
D02*
G37*
G36*
X10802Y84480D02*
X10811Y84376D01*
X10826Y84276D01*
X10847Y84181D01*
X10875Y84091D01*
X10909Y84006D01*
X10950Y83925D01*
X10997Y83850D01*
X11051Y83779D01*
X11111Y83713D01*
X10687Y83289D01*
X10621Y83349D01*
X10550Y83403D01*
X10475Y83450D01*
X10394Y83491D01*
X10309Y83525D01*
X10219Y83553D01*
X10124Y83574D01*
X10024Y83589D01*
X9920Y83598D01*
X9810Y83600D01*
X10800Y84590D01*
X10802Y84480D01*
D02*
G37*
G36*
X23525Y82704D02*
X23518Y82757D01*
X23498Y82803D01*
X23463Y82844D01*
X23415Y82880D01*
X23353Y82910D01*
X23278Y82935D01*
X23188Y82954D01*
X23085Y82968D01*
X22968Y82976D01*
X22837Y82979D01*
Y83579D01*
X22968Y83582D01*
X23188Y83603D01*
X23278Y83623D01*
X23353Y83647D01*
X23415Y83678D01*
X23463Y83713D01*
X23498Y83754D01*
X23518Y83801D01*
X23525Y83853D01*
Y82704D01*
D02*
G37*
G36*
X42413Y83820D02*
X42894Y83519D01*
X42942Y83499D01*
X42981Y83488D01*
X43011Y83486D01*
X41911Y82251D01*
X41903Y82297D01*
X41885Y82347D01*
X41856Y82399D01*
X41816Y82455D01*
X41766Y82514D01*
X41704Y82577D01*
X41633Y82642D01*
X41456Y82783D01*
X41352Y82859D01*
X42301Y83901D01*
X42413Y83820D01*
D02*
G37*
G36*
X15734Y82015D02*
X15728Y82071D01*
X15709Y82122D01*
X15677Y82166D01*
X15633Y82205D01*
X15576Y82238D01*
X15507Y82265D01*
X15425Y82285D01*
X15330Y82300D01*
X15223Y82309D01*
X15102Y82312D01*
Y82912D01*
X15223Y82915D01*
X15330Y82924D01*
X15425Y82939D01*
X15507Y82960D01*
X15576Y82987D01*
X15633Y83019D01*
X15677Y83058D01*
X15709Y83103D01*
X15728Y83153D01*
X15734Y83210D01*
Y82015D01*
D02*
G37*
G36*
X19434Y82002D02*
X19428Y82059D01*
X19409Y82109D01*
X19377Y82154D01*
X19333Y82193D01*
X19276Y82226D01*
X19207Y82252D01*
X19125Y82273D01*
X19030Y82288D01*
X18923Y82297D01*
X18802Y82300D01*
Y82900D01*
X18923Y82903D01*
X19030Y82912D01*
X19125Y82927D01*
X19207Y82948D01*
X19276Y82974D01*
X19333Y83007D01*
X19377Y83046D01*
X19409Y83091D01*
X19428Y83141D01*
X19434Y83198D01*
Y82002D01*
D02*
G37*
G36*
X17674Y83141D02*
X17693Y83091D01*
X17725Y83046D01*
X17768Y83007D01*
X17825Y82974D01*
X17894Y82948D01*
X17976Y82927D01*
X18071Y82912D01*
X18178Y82903D01*
X18298Y82900D01*
Y82300D01*
X18177Y82297D01*
X18070Y82288D01*
X17975Y82273D01*
X17892Y82252D01*
X17823Y82226D01*
X17765Y82193D01*
X17721Y82154D01*
X17689Y82109D01*
X17670Y82059D01*
X17663Y82002D01*
X17668Y83198D01*
X17674Y83141D01*
D02*
G37*
G36*
X11574Y83256D02*
X11665Y83184D01*
X11758Y83120D01*
X11855Y83065D01*
X11956Y83018D01*
X12060Y82980D01*
X12168Y82951D01*
X12279Y82929D01*
X12394Y82916D01*
X12512Y82912D01*
Y82312D01*
X12394Y82308D01*
X12279Y82295D01*
X12168Y82274D01*
X12060Y82244D01*
X11956Y82206D01*
X11855Y82160D01*
X11758Y82104D01*
X11665Y82041D01*
X11574Y81969D01*
X11488Y81888D01*
X10939Y82188D01*
X11016Y82273D01*
X11075Y82358D01*
X11117Y82443D01*
X11143Y82527D01*
X11151Y82612D01*
X11143Y82697D01*
X11117Y82782D01*
X11075Y82867D01*
X11016Y82952D01*
X10939Y83037D01*
X11488Y83337D01*
X11574Y83256D01*
D02*
G37*
G36*
X34900Y82713D02*
X34850Y82615D01*
X34805Y82510D01*
X34767Y82399D01*
X34734Y82282D01*
X34708Y82158D01*
X34687Y82028D01*
X34664Y81748D01*
X34661Y81599D01*
X33661D01*
X33658Y81748D01*
X33634Y82028D01*
X33613Y82158D01*
X33587Y82282D01*
X33554Y82399D01*
X33516Y82510D01*
X33472Y82615D01*
X33421Y82713D01*
X33365Y82805D01*
X34956D01*
X34900Y82713D01*
D02*
G37*
G36*
X43910Y81449D02*
X43903Y81422D01*
X43897Y81380D01*
X43888Y81258D01*
X43878Y80853D01*
X43878Y80718D01*
X42303D01*
X42264Y81464D01*
X43917D01*
X43910Y81449D01*
D02*
G37*
G36*
X27403Y80156D02*
X27412Y80052D01*
X27427Y79960D01*
X27448Y79881D01*
X27475Y79813D01*
X27508Y79758D01*
X27547Y79715D01*
X27592Y79685D01*
X27643Y79666D01*
X27700Y79660D01*
X26500D01*
X26557Y79666D01*
X26608Y79685D01*
X26653Y79715D01*
X26692Y79758D01*
X26725Y79813D01*
X26752Y79881D01*
X26773Y79960D01*
X26788Y80052D01*
X26797Y80156D01*
X26800Y80272D01*
X27400D01*
X27403Y80156D01*
D02*
G37*
G36*
X24844Y80420D02*
X24780Y80350D01*
X24728Y80278D01*
X24687Y80204D01*
X24656Y80129D01*
X24638Y80053D01*
X24630Y79974D01*
X24633Y79894D01*
X24648Y79812D01*
X24674Y79729D01*
X24711Y79643D01*
X23405Y80112D01*
X23505Y80159D01*
X23779Y80305D01*
X23860Y80356D01*
X24010Y80460D01*
X24078Y80513D01*
X24199Y80624D01*
X24844Y80420D01*
D02*
G37*
G36*
X26976Y77728D02*
X26930Y77762D01*
X26875Y77779D01*
X26811D01*
X26739Y77762D01*
X26658Y77728D01*
X26569Y77677D01*
X26471Y77609D01*
X26365Y77524D01*
X26128Y77303D01*
X25703Y77728D01*
X25822Y77851D01*
X26009Y78071D01*
X26077Y78169D01*
X26128Y78258D01*
X26162Y78339D01*
X26179Y78411D01*
Y78474D01*
X26162Y78530D01*
X26128Y78576D01*
X26976Y77728D01*
D02*
G37*
G36*
X-489Y78087D02*
X-549Y78021D01*
X-603Y77950D01*
X-650Y77875D01*
X-691Y77794D01*
X-725Y77709D01*
X-753Y77619D01*
X-774Y77524D01*
X-789Y77424D01*
X-798Y77320D01*
X-800Y77210D01*
X-1790Y78200D01*
X-1680Y78202D01*
X-1576Y78211D01*
X-1476Y78226D01*
X-1381Y78247D01*
X-1291Y78275D01*
X-1206Y78309D01*
X-1125Y78350D01*
X-1050Y78397D01*
X-979Y78451D01*
X-913Y78511D01*
X-489Y78087D01*
D02*
G37*
G36*
X17653Y78405D02*
X17637Y78351D01*
X17637Y78289D01*
X17654Y78218D01*
X17688Y78139D01*
X17739Y78051D01*
X17807Y77955D01*
X17891Y77850D01*
X18110Y77615D01*
X17685Y77190D01*
X17564Y77308D01*
X17345Y77493D01*
X17249Y77561D01*
X17161Y77612D01*
X17082Y77645D01*
X17011Y77663D01*
X16948Y77663D01*
X16894Y77647D01*
X16849Y77614D01*
X17686Y78451D01*
X17653Y78405D01*
D02*
G37*
G36*
X31043Y77722D02*
X30992Y77704D01*
X30947Y77674D01*
X30908Y77632D01*
X30875Y77578D01*
X30848Y77512D01*
X30827Y77434D01*
X30812Y77344D01*
X30803Y77242D01*
X30800Y77128D01*
X30200D01*
X30197Y77242D01*
X30188Y77344D01*
X30173Y77434D01*
X30152Y77512D01*
X30125Y77578D01*
X30092Y77632D01*
X30053Y77674D01*
X30008Y77704D01*
X29957Y77722D01*
X29900Y77728D01*
X31100D01*
X31043Y77722D01*
D02*
G37*
G36*
X29211Y74987D02*
X29151Y74921D01*
X29097Y74850D01*
X29050Y74775D01*
X29009Y74694D01*
X28975Y74609D01*
X28947Y74519D01*
X28926Y74424D01*
X28911Y74324D01*
X28902Y74220D01*
X28900Y74110D01*
X27910Y75100D01*
X28020Y75102D01*
X28124Y75111D01*
X28224Y75126D01*
X28319Y75147D01*
X28409Y75175D01*
X28494Y75209D01*
X28575Y75250D01*
X28650Y75297D01*
X28721Y75351D01*
X28787Y75411D01*
X29211Y74987D01*
D02*
G37*
G36*
X17241Y73328D02*
X17190Y73309D01*
X17146Y73277D01*
X17107Y73233D01*
X17074Y73176D01*
X17048Y73107D01*
X17027Y73025D01*
X17012Y72930D01*
X17003Y72822D01*
X17000Y72702D01*
X16400D01*
X16397Y72822D01*
X16388Y72930D01*
X16373Y73025D01*
X16352Y73107D01*
X16326Y73176D01*
X16293Y73233D01*
X16254Y73277D01*
X16209Y73309D01*
X16159Y73328D01*
X16102Y73334D01*
X17298D01*
X17241Y73328D01*
D02*
G37*
G36*
X30786Y69500D02*
X30707Y69576D01*
X30627Y69644D01*
X30546Y69704D01*
X30463Y69756D01*
X30380Y69800D01*
X30295Y69836D01*
X30210Y69864D01*
X30123Y69884D01*
X30035Y69896D01*
X29946Y69900D01*
Y70500D01*
X30035Y70504D01*
X30123Y70516D01*
X30210Y70536D01*
X30295Y70564D01*
X30380Y70600D01*
X30463Y70644D01*
X30546Y70696D01*
X30627Y70756D01*
X30707Y70824D01*
X30786Y70900D01*
Y69500D01*
D02*
G37*
G36*
X27916Y68292D02*
X27840Y68207D01*
X27781Y68122D01*
X27738Y68037D01*
X27713Y67953D01*
X27704Y67868D01*
X27713Y67783D01*
X27738Y67698D01*
X27781Y67613D01*
X27840Y67528D01*
X27916Y67444D01*
X27368Y67144D01*
X27281Y67224D01*
X27191Y67296D01*
X27097Y67360D01*
X27000Y67415D01*
X26900Y67462D01*
X26795Y67500D01*
X26688Y67530D01*
X26577Y67551D01*
X26462Y67564D01*
X26344Y67568D01*
Y68168D01*
X26462Y68172D01*
X26577Y68185D01*
X26688Y68206D01*
X26795Y68236D01*
X26900Y68274D01*
X27000Y68321D01*
X27097Y68376D01*
X27191Y68439D01*
X27281Y68511D01*
X27368Y68592D01*
X27916Y68292D01*
D02*
G37*
G36*
X33679Y55351D02*
X33750Y55297D01*
X33825Y55250D01*
X33906Y55209D01*
X33991Y55175D01*
X34081Y55147D01*
X34176Y55126D01*
X34276Y55111D01*
X34380Y55102D01*
X34490Y55100D01*
X33500Y54110D01*
X33498Y54220D01*
X33489Y54324D01*
X33474Y54424D01*
X33453Y54519D01*
X33425Y54609D01*
X33391Y54694D01*
X33350Y54775D01*
X33303Y54850D01*
X33249Y54921D01*
X33189Y54987D01*
X33613Y55411D01*
X33679Y55351D01*
D02*
G37*
G36*
X28214Y32251D02*
X28284Y32197D01*
X28360Y32150D01*
X28440Y32109D01*
X28525Y32075D01*
X28615Y32047D01*
X28710Y32026D01*
X28810Y32011D01*
X28915Y32002D01*
X29025Y32000D01*
X28035Y31010D01*
X28033Y31120D01*
X28024Y31224D01*
X28009Y31324D01*
X27988Y31419D01*
X27960Y31509D01*
X27925Y31594D01*
X27885Y31675D01*
X27837Y31750D01*
X27784Y31821D01*
X27724Y31887D01*
X28148Y32311D01*
X28214Y32251D01*
D02*
G37*
G36*
X30746Y25760D02*
X30667Y25836D01*
X30587Y25904D01*
X30505Y25964D01*
X30423Y26016D01*
X30340Y26060D01*
X30255Y26096D01*
X30169Y26124D01*
X30083Y26144D01*
X29995Y26156D01*
X29906Y26160D01*
Y26760D01*
X29995Y26764D01*
X30083Y26776D01*
X30169Y26796D01*
X30255Y26824D01*
X30340Y26860D01*
X30423Y26904D01*
X30505Y26956D01*
X30587Y27016D01*
X30667Y27084D01*
X30746Y27160D01*
Y25760D01*
D02*
G37*
G36*
X9946Y154620D02*
X-1707Y142968D01*
X-1862Y142736D01*
X-1916Y142463D01*
Y104014D01*
X-1935Y103973D01*
X-1938Y103904D01*
X-1945Y103855D01*
X-1956Y103806D01*
X-1972Y103757D01*
X-1994Y103706D01*
X-2021Y103654D01*
X-2056Y103599D01*
X-2098Y103542D01*
X-2148Y103484D01*
X-2214Y103414D01*
X-2223Y103393D01*
X-2521Y102946D01*
X-2630Y102400D01*
X-2521Y101854D01*
X-2212Y101391D01*
X-1749Y101081D01*
X-1202Y100973D01*
X-1168Y100979D01*
X-908Y100521D01*
X-1099Y100233D01*
X-1105Y100231D01*
X-1157Y100184D01*
X-1196Y100154D01*
X-1238Y100127D01*
X-1285Y100104D01*
X-1336Y100083D01*
X-1393Y100066D01*
X-1456Y100051D01*
X-1526Y100041D01*
X-1602Y100035D01*
X-1698Y100033D01*
X-1720Y100023D01*
X-2246Y99919D01*
X-2709Y99609D01*
X-3019Y99146D01*
X-3127Y98600D01*
X-3019Y98054D01*
X-2709Y97591D01*
X-2246Y97281D01*
X-1700Y97173D01*
X-1154Y97281D01*
X-691Y97591D01*
X-381Y98054D01*
X-277Y98580D01*
X-267Y98602D01*
X-265Y98698D01*
X-259Y98774D01*
X-249Y98844D01*
X-234Y98907D01*
X-217Y98964D01*
X-196Y99015D01*
X-173Y99062D01*
X-146Y99104D01*
X-116Y99143D01*
X-69Y99195D01*
X-54Y99236D01*
X2005Y101295D01*
X2159Y101527D01*
X2214Y101800D01*
Y105900D01*
X2159Y106173D01*
X2005Y106405D01*
X1014Y107396D01*
Y142104D01*
X11696Y152786D01*
X28670D01*
X28719Y152286D01*
X28554Y152253D01*
X28091Y151944D01*
X27781Y151481D01*
X27673Y150935D01*
X27781Y150388D01*
X28080Y149942D01*
X28088Y149920D01*
X28155Y149851D01*
X28205Y149792D01*
X28246Y149736D01*
X28281Y149681D01*
X28309Y149628D01*
X28330Y149578D01*
X28346Y149528D01*
X28358Y149479D01*
X28364Y149431D01*
X28367Y149361D01*
X28386Y149321D01*
Y145396D01*
X10595Y127605D01*
X10441Y127373D01*
X10386Y127100D01*
Y123214D01*
X10368Y123173D01*
X10364Y123104D01*
X10358Y123055D01*
X10346Y123006D01*
X10330Y122957D01*
X10309Y122906D01*
X10281Y122854D01*
X10246Y122799D01*
X10204Y122742D01*
X10155Y122684D01*
X10088Y122614D01*
X10080Y122593D01*
X9781Y122146D01*
X9673Y121600D01*
X9781Y121054D01*
X10091Y120591D01*
X10554Y120281D01*
X11100Y120173D01*
X11646Y120281D01*
X12109Y120591D01*
X12419Y121054D01*
X12527Y121600D01*
X12419Y122146D01*
X12120Y122593D01*
X12112Y122614D01*
X12045Y122684D01*
X11996Y122742D01*
X11954Y122799D01*
X11919Y122854D01*
X11891Y122906D01*
X11870Y122957D01*
X11854Y123006D01*
X11842Y123055D01*
X11836Y123104D01*
X11833Y123173D01*
X11814Y123214D01*
Y126804D01*
X12624Y127615D01*
X13086Y127424D01*
Y125514D01*
X13068Y125473D01*
X13064Y125404D01*
X13058Y125355D01*
X13046Y125306D01*
X13030Y125257D01*
X13009Y125206D01*
X12981Y125154D01*
X12946Y125099D01*
X12904Y125042D01*
X12855Y124984D01*
X12788Y124914D01*
X12780Y124893D01*
X12481Y124446D01*
X12373Y123900D01*
X12481Y123354D01*
X12791Y122891D01*
X13254Y122581D01*
X13800Y122473D01*
X14346Y122581D01*
X14809Y122891D01*
X15119Y123354D01*
X15227Y123900D01*
X15119Y124446D01*
X14820Y124893D01*
X14812Y124914D01*
X14745Y124984D01*
X14696Y125042D01*
X14654Y125099D01*
X14619Y125154D01*
X14591Y125206D01*
X14570Y125257D01*
X14554Y125306D01*
X14542Y125355D01*
X14536Y125404D01*
X14533Y125473D01*
X14514Y125514D01*
Y127804D01*
X29538Y142829D01*
X30000Y142637D01*
Y122214D01*
X25200D01*
X24927Y122159D01*
X24695Y122005D01*
X-7305Y90005D01*
X-7459Y89773D01*
X-7514Y89500D01*
Y62400D01*
X-7459Y62127D01*
X-7305Y61895D01*
X3795Y50795D01*
X4027Y50641D01*
X4300Y50586D01*
X7025D01*
X24986Y32625D01*
Y29900D01*
X25041Y29627D01*
X25195Y29395D01*
X28635Y25955D01*
X28867Y25800D01*
X29140Y25746D01*
X29846D01*
X29886Y25727D01*
X29956Y25724D01*
X30000Y25718D01*
Y22418D01*
X-11382D01*
Y155082D01*
X9754D01*
X9946Y154620D01*
D02*
G37*
%LPC*%
G36*
X24064Y41527D02*
X23517Y41419D01*
X23054Y41109D01*
X22745Y40646D01*
X22636Y40100D01*
X22745Y39554D01*
X23054Y39091D01*
X23517Y38781D01*
X24064Y38673D01*
X24610Y38781D01*
X25073Y39091D01*
X25383Y39554D01*
X25491Y40100D01*
X25383Y40646D01*
X25073Y41109D01*
X24610Y41419D01*
X24064Y41527D01*
D02*
G37*
G36*
X-500Y51735D02*
X-1202Y51596D01*
X-1798Y51198D01*
X-2196Y50602D01*
X-2335Y49900D01*
X-2196Y49198D01*
X-1798Y48602D01*
X-1202Y48204D01*
X-500Y48065D01*
X202Y48204D01*
X798Y48602D01*
X1196Y49198D01*
X1335Y49900D01*
X1196Y50602D01*
X798Y51198D01*
X202Y51596D01*
X-500Y51735D01*
D02*
G37*
G36*
Y44735D02*
X-1202Y44596D01*
X-1798Y44198D01*
X-2196Y43602D01*
X-2335Y42900D01*
X-2196Y42198D01*
X-1798Y41602D01*
X-1202Y41204D01*
X-500Y41065D01*
X202Y41204D01*
X798Y41602D01*
X1196Y42198D01*
X1335Y42900D01*
X1196Y43602D01*
X798Y44198D01*
X202Y44596D01*
X-500Y44735D01*
D02*
G37*
G36*
X10800Y41127D02*
X10254Y41019D01*
X9791Y40709D01*
X9481Y40246D01*
X9373Y39700D01*
X9481Y39154D01*
X9780Y38707D01*
X9788Y38686D01*
X9855Y38616D01*
X9904Y38558D01*
X9946Y38501D01*
X9981Y38446D01*
X10009Y38394D01*
X10030Y38343D01*
X10046Y38294D01*
X10058Y38245D01*
X10064Y38196D01*
X10068Y38127D01*
X10086Y38086D01*
Y34696D01*
X8895Y33505D01*
X8741Y33273D01*
X8686Y33000D01*
Y32614D01*
X8668Y32573D01*
X8664Y32504D01*
X8658Y32455D01*
X8647Y32406D01*
X8630Y32357D01*
X8609Y32306D01*
X8581Y32254D01*
X8546Y32199D01*
X8505Y32142D01*
X8455Y32084D01*
X8388Y32014D01*
X8380Y31993D01*
X8081Y31546D01*
X7973Y31000D01*
X8081Y30454D01*
X8391Y29991D01*
X8854Y29681D01*
X9400Y29573D01*
X9946Y29681D01*
X10409Y29991D01*
X10719Y30454D01*
X10827Y31000D01*
X10719Y31546D01*
X10420Y31993D01*
X10412Y32014D01*
X10345Y32084D01*
X10296Y32142D01*
X10254Y32199D01*
X10219Y32254D01*
X10191Y32306D01*
X10170Y32357D01*
X10154Y32406D01*
X10142Y32455D01*
X10136Y32504D01*
X10132Y32573D01*
X10114Y32614D01*
Y32704D01*
X11305Y33895D01*
X11459Y34127D01*
X11514Y34400D01*
Y38086D01*
X11532Y38127D01*
X11536Y38196D01*
X11542Y38245D01*
X11553Y38294D01*
X11570Y38343D01*
X11591Y38394D01*
X11619Y38446D01*
X11654Y38501D01*
X11695Y38558D01*
X11745Y38616D01*
X11812Y38686D01*
X11820Y38707D01*
X12119Y39154D01*
X12227Y39700D01*
X12119Y40246D01*
X11809Y40709D01*
X11346Y41019D01*
X10800Y41127D01*
D02*
G37*
%LPD*%
G36*
X11424Y38907D02*
X11356Y38827D01*
X11296Y38746D01*
X11244Y38663D01*
X11200Y38580D01*
X11164Y38495D01*
X11136Y38410D01*
X11116Y38323D01*
X11104Y38235D01*
X11100Y38146D01*
X10500D01*
X10496Y38235D01*
X10484Y38323D01*
X10464Y38410D01*
X10436Y38495D01*
X10400Y38580D01*
X10356Y38663D01*
X10304Y38746D01*
X10244Y38827D01*
X10176Y38907D01*
X10100Y38986D01*
X11500D01*
X11424Y38907D01*
D02*
G37*
G36*
X9704Y32465D02*
X9716Y32377D01*
X9736Y32290D01*
X9764Y32205D01*
X9800Y32120D01*
X9844Y32037D01*
X9896Y31954D01*
X9956Y31873D01*
X10024Y31793D01*
X10100Y31714D01*
X8700D01*
X8776Y31793D01*
X8844Y31873D01*
X8904Y31954D01*
X8956Y32037D01*
X9000Y32120D01*
X9036Y32205D01*
X9064Y32290D01*
X9084Y32377D01*
X9096Y32465D01*
X9100Y32554D01*
X9700D01*
X9704Y32465D01*
D02*
G37*
D11*
X-1700Y98600D02*
X1500Y101800D01*
Y105900D01*
X300Y107100D02*
X1500Y105900D01*
X300Y107100D02*
Y142400D01*
X-1202Y102400D02*
Y142463D01*
X-6800Y89500D02*
X25200Y121500D01*
X-5800Y89086D02*
X23814Y118700D01*
X300Y142400D02*
X11400Y153500D01*
X-1202Y142463D02*
X11035Y154700D01*
X42700D01*
X-5800Y62814D02*
Y89086D01*
X-6800Y62400D02*
Y89500D01*
X11100Y127100D02*
X29100Y145100D01*
X11100Y121600D02*
Y127100D01*
X11900Y89900D02*
X16700D01*
X9800Y87800D02*
X11900Y89900D01*
X9800Y84600D02*
Y87800D01*
X2182Y81182D02*
X10358D01*
X-1800Y77200D02*
X2182Y81182D01*
X11400Y153500D02*
X39435D01*
X42000Y150935D01*
X42700Y154700D02*
X43400Y154000D01*
X29100Y145100D02*
Y150935D01*
X33600Y147900D02*
Y151400D01*
X13800Y128100D02*
X33600Y147900D01*
X9400Y33000D02*
X10800Y34400D01*
X9400Y31000D02*
Y33000D01*
X10800Y34400D02*
Y39700D01*
X10358Y81182D02*
X11788Y82612D01*
X16700D01*
X29400Y70200D02*
X31500D01*
X27068Y67868D02*
X29400Y70200D01*
X25200Y121500D02*
X39500D01*
X38200Y118700D02*
X39500Y117400D01*
X23814Y118700D02*
X38200D01*
X27900Y74100D02*
X30500Y76700D01*
Y78700D01*
X13800Y123900D02*
Y128100D01*
X26200Y92300D02*
Y95200D01*
X18712Y105812D02*
X22000Y109100D01*
X18712Y95588D02*
Y105812D01*
X22000Y109000D02*
Y109100D01*
X22200Y109300D01*
X26600Y107100D02*
Y109400D01*
X20700Y101200D02*
X26600Y107100D01*
X20700Y97800D02*
Y101200D01*
X18712Y95588D02*
X20400Y93900D01*
X9800Y84600D02*
X11788Y82612D01*
X13112Y86612D02*
X16700D01*
X23814Y79200D02*
Y79814D01*
X26800Y82800D01*
Y84500D01*
X26053Y85247D02*
X26800Y84500D01*
X24239Y85247D02*
X26053D01*
X25379Y93121D02*
X26200Y92300D01*
Y90000D02*
Y92300D01*
X25384Y89184D02*
X26200Y90000D01*
X24239Y93121D02*
X25379D01*
X24239Y89184D02*
X25384D01*
X-6800Y62400D02*
X4300Y51300D01*
X-5800Y62814D02*
X4714Y52300D01*
X29140Y26460D02*
X31460D01*
X25700Y29900D02*
X29140Y26460D01*
X25700Y29900D02*
Y32920D01*
X7320Y51300D02*
X25700Y32920D01*
X4300Y51300D02*
X7320D01*
X7735Y52300D02*
X29035Y31000D01*
X4714Y52300D02*
X7735D01*
X22837Y83279D02*
X24239D01*
X21516Y84600D02*
X22837Y83279D01*
X18712Y84600D02*
X21516D01*
X22753Y85247D02*
X24239D01*
X21400Y86600D02*
X22753Y85247D01*
X16700Y86612D02*
X18712Y84600D01*
X20400Y86600D02*
X21400D01*
X29482Y97800D02*
X34161Y93121D01*
X20700Y97800D02*
X29482D01*
X23147Y91153D02*
X24239D01*
X20400Y93900D02*
X23147Y91153D01*
X20400Y89900D02*
X21800D01*
X16700D02*
X20400D01*
X22516Y89184D02*
X24239D01*
X21800Y89900D02*
X22516Y89184D01*
X16712Y82600D02*
X20400D01*
X27100Y78700D02*
Y80600D01*
X31800Y85300D01*
Y88500D01*
X32484Y89184D01*
X34161D01*
X16700Y78600D02*
X18800Y76500D01*
X24900D01*
X27100Y78700D01*
X30468Y58132D02*
Y64468D01*
X27068Y67868D02*
X30468Y64468D01*
X20732Y67868D02*
X27068D01*
X16700Y71900D02*
X20732Y67868D01*
X16700Y71900D02*
Y74300D01*
X30468Y58132D02*
X34500Y54100D01*
D15*
X24000Y71000D02*
X27900D01*
X34161Y77261D01*
Y83279D01*
X35600Y124600D02*
X39500D01*
X28000Y132200D02*
X35600Y124600D01*
X28000Y132200D02*
Y135000D01*
X39500Y124600D02*
X42500D01*
D24*
X16700Y97800D02*
D03*
X20700D02*
D03*
X16700Y78600D02*
D03*
X20700D02*
D03*
Y74300D02*
D03*
X16700D02*
D03*
D27*
X29200Y88200D02*
D03*
X20400Y82600D02*
D03*
Y86600D02*
D03*
Y89900D02*
D03*
Y93900D02*
D03*
X16700Y89900D02*
D03*
Y93900D02*
D03*
Y82612D02*
D03*
Y86612D02*
D03*
D68*
X43091Y26500D02*
Y82307D01*
X95358Y116264D02*
X132854D01*
Y61146D02*
Y116264D01*
X77736Y61146D02*
X132854D01*
X55689Y141461D02*
X158051D01*
X71437Y125713D02*
X142303D01*
X71437Y54847D02*
X139154D01*
X46240Y29650D02*
X164350D01*
X61988Y45398D02*
X148602D01*
X46240Y150909D02*
X167500D01*
X49390Y147760D02*
X164350D01*
X52539Y144610D02*
X161201D01*
X58839Y138311D02*
X154902D01*
X61988Y135161D02*
X151752D01*
X65138Y132012D02*
X148602D01*
X68287Y128862D02*
X145453D01*
X74587Y122563D02*
X139154D01*
X77736Y119413D02*
X136004D01*
X74587Y57996D02*
X136004D01*
X65138Y48547D02*
X145453D01*
X68287Y51697D02*
X142303D01*
X55689Y39098D02*
X154902D01*
X58839Y42248D02*
X151752D01*
X49390Y32799D02*
X161201D01*
X52539Y35949D02*
X158051D01*
X43091Y26500D02*
X167500D01*
X161201Y32799D02*
Y144610D01*
X49390Y32799D02*
Y147760D01*
X65138Y48547D02*
Y132012D01*
X145453Y48547D02*
Y128862D01*
X74587Y57996D02*
Y122563D01*
X167500Y26500D02*
Y150909D01*
X164350Y29650D02*
Y147760D01*
X158051Y35949D02*
Y141461D01*
X154902Y39098D02*
Y138311D01*
X151752Y42248D02*
Y135161D01*
X148602Y45398D02*
Y132012D01*
X58839Y42248D02*
Y138311D01*
X61988Y45398D02*
Y135161D01*
X52539Y35949D02*
Y144610D01*
X55689Y39098D02*
Y141461D01*
X46240Y29650D02*
Y150909D01*
X142303Y51697D02*
Y125713D01*
X139154Y54847D02*
Y122563D01*
X136004Y57996D02*
Y119413D01*
X77736Y61146D02*
Y119413D01*
X68287Y51697D02*
Y128862D01*
X71437Y54847D02*
Y125713D01*
D69*
X42303Y90903D02*
G03*
X42505Y91392I-489J489D01*
G01*
X34474Y87216D02*
G03*
X42570Y91346I0J10000D01*
G01*
X43079Y82318D02*
G03*
X36008Y85247I-7071J-7071D01*
G01*
X43079Y82318D02*
X43091Y82307D01*
X34161Y85247D02*
X36008D01*
D71*
X92000Y76500D02*
D03*
X116800D02*
D03*
Y98300D02*
D03*
X92000D02*
D03*
D72*
X16400Y126000D02*
D03*
X9604Y110904D02*
D03*
X3300Y133900D02*
D03*
X42000Y150935D02*
D03*
X-1202Y102400D02*
D03*
X-1700Y98600D02*
D03*
X10800Y39700D02*
D03*
X12800Y96800D02*
D03*
X-5000Y30700D02*
D03*
X7100Y77451D02*
D03*
X3000D02*
D03*
X31500Y70200D02*
D03*
X21676Y105600D02*
D03*
X42500Y124600D02*
D03*
X39500D02*
D03*
Y121500D02*
D03*
Y117400D02*
D03*
X28000Y138200D02*
D03*
X21500Y121500D02*
D03*
X26500Y113500D02*
D03*
X26000Y102000D02*
D03*
X14500Y32000D02*
D03*
X12000Y24500D02*
D03*
X-4100Y54500D02*
D03*
X-6200Y40400D02*
D03*
X-3500Y46200D02*
D03*
X-7400Y56200D02*
D03*
X15000Y54700D02*
D03*
X11000Y64000D02*
D03*
X15000D02*
D03*
X19000D02*
D03*
X23000D02*
D03*
X24000Y71000D02*
D03*
X12500Y72000D02*
D03*
X4900Y66600D02*
D03*
X13000Y93400D02*
D03*
X28000Y135000D02*
D03*
X21000Y149000D02*
D03*
X14000D02*
D03*
X9000Y132000D02*
D03*
Y136000D02*
D03*
Y140000D02*
D03*
Y144000D02*
D03*
X33600Y151400D02*
D03*
X24064Y40100D02*
D03*
X27900Y74100D02*
D03*
X9800Y84600D02*
D03*
X13800Y123900D02*
D03*
X11100Y121600D02*
D03*
X26200Y95200D02*
D03*
X22000Y109000D02*
D03*
X26600Y109400D02*
D03*
X13112Y86612D02*
D03*
X23814Y79200D02*
D03*
X29100Y150935D02*
D03*
X43400Y154000D02*
D03*
X31460Y26460D02*
D03*
X29035Y31000D02*
D03*
X-1800Y77200D02*
D03*
X34500Y54100D02*
D03*
X9400Y31000D02*
D03*
D73*
X43091Y82307D02*
D03*
X95311Y116311D02*
D03*
X42505Y91392D02*
D03*
D74*
X24239Y93121D02*
D03*
Y91153D02*
D03*
Y89184D02*
D03*
Y87216D02*
D03*
Y85247D02*
D03*
Y83279D02*
D03*
X34161D02*
D03*
Y85247D02*
D03*
Y87216D02*
D03*
Y89184D02*
D03*
Y91153D02*
D03*
Y93121D02*
D03*
D75*
X30500Y78700D02*
D03*
X27100D02*
D03*
M02*
