G04*
G04 #@! TF.GenerationSoftware,Altium Limited,Altium Designer,18.1.7 (191)*
G04*
G04 Layer_Color=8388736*
%FSLAX25Y25*%
%MOIN*%
G70*
G01*
G75*
%ADD42R,0.16770X0.45536*%
G04:AMPARAMS|DCode=43|XSize=31.62mil|YSize=67.06mil|CornerRadius=9.91mil|HoleSize=0mil|Usage=FLASHONLY|Rotation=180.000|XOffset=0mil|YOffset=0mil|HoleType=Round|Shape=RoundedRectangle|*
%AMROUNDEDRECTD43*
21,1,0.03162,0.04724,0,0,180.0*
21,1,0.01181,0.06706,0,0,180.0*
1,1,0.01981,-0.00591,0.02362*
1,1,0.01981,0.00591,0.02362*
1,1,0.01981,0.00591,-0.02362*
1,1,0.01981,-0.00591,-0.02362*
%
%ADD43ROUNDEDRECTD43*%
G04:AMPARAMS|DCode=44|XSize=47.37mil|YSize=47.37mil|CornerRadius=13.84mil|HoleSize=0mil|Usage=FLASHONLY|Rotation=180.000|XOffset=0mil|YOffset=0mil|HoleType=Round|Shape=RoundedRectangle|*
%AMROUNDEDRECTD44*
21,1,0.04737,0.01968,0,0,180.0*
21,1,0.01968,0.04737,0,0,180.0*
1,1,0.02769,-0.00984,0.00984*
1,1,0.02769,0.00984,0.00984*
1,1,0.02769,0.00984,-0.00984*
1,1,0.02769,-0.00984,-0.00984*
%
%ADD44ROUNDEDRECTD44*%
G04:AMPARAMS|DCode=45|XSize=46mil|YSize=80mil|CornerRadius=13mil|HoleSize=0mil|Usage=FLASHONLY|Rotation=180.000|XOffset=0mil|YOffset=0mil|HoleType=Round|Shape=RoundedRectangle|*
%AMROUNDEDRECTD45*
21,1,0.04600,0.05400,0,0,180.0*
21,1,0.02000,0.08000,0,0,180.0*
1,1,0.02600,-0.01000,0.02700*
1,1,0.02600,0.01000,0.02700*
1,1,0.02600,0.01000,-0.02700*
1,1,0.02600,-0.01000,-0.02700*
%
%ADD45ROUNDEDRECTD45*%
G04:AMPARAMS|DCode=46|XSize=116mil|YSize=146mil|CornerRadius=30.5mil|HoleSize=0mil|Usage=FLASHONLY|Rotation=0.000|XOffset=0mil|YOffset=0mil|HoleType=Round|Shape=RoundedRectangle|*
%AMROUNDEDRECTD46*
21,1,0.11600,0.08500,0,0,0.0*
21,1,0.05500,0.14600,0,0,0.0*
1,1,0.06100,0.02750,-0.04250*
1,1,0.06100,-0.02750,-0.04250*
1,1,0.06100,-0.02750,0.04250*
1,1,0.06100,0.02750,0.04250*
%
%ADD46ROUNDEDRECTD46*%
G04:AMPARAMS|DCode=47|XSize=116mil|YSize=106mil|CornerRadius=28mil|HoleSize=0mil|Usage=FLASHONLY|Rotation=0.000|XOffset=0mil|YOffset=0mil|HoleType=Round|Shape=RoundedRectangle|*
%AMROUNDEDRECTD47*
21,1,0.11600,0.05000,0,0,0.0*
21,1,0.06000,0.10600,0,0,0.0*
1,1,0.05600,0.03000,-0.02500*
1,1,0.05600,-0.03000,-0.02500*
1,1,0.05600,-0.03000,0.02500*
1,1,0.05600,0.03000,0.02500*
%
%ADD47ROUNDEDRECTD47*%
G04:AMPARAMS|DCode=48|XSize=26mil|YSize=26mil|CornerRadius=8mil|HoleSize=0mil|Usage=FLASHONLY|Rotation=270.000|XOffset=0mil|YOffset=0mil|HoleType=Round|Shape=RoundedRectangle|*
%AMROUNDEDRECTD48*
21,1,0.02600,0.01000,0,0,270.0*
21,1,0.01000,0.02600,0,0,270.0*
1,1,0.01600,-0.00500,-0.00500*
1,1,0.01600,-0.00500,0.00500*
1,1,0.01600,0.00500,0.00500*
1,1,0.01600,0.00500,-0.00500*
%
%ADD48ROUNDEDRECTD48*%
G04:AMPARAMS|DCode=49|XSize=29.62mil|YSize=56mil|CornerRadius=8.91mil|HoleSize=0mil|Usage=FLASHONLY|Rotation=90.000|XOffset=0mil|YOffset=0mil|HoleType=Round|Shape=RoundedRectangle|*
%AMROUNDEDRECTD49*
21,1,0.02962,0.03819,0,0,90.0*
21,1,0.01181,0.05600,0,0,90.0*
1,1,0.01781,0.01909,0.00591*
1,1,0.01781,0.01909,-0.00591*
1,1,0.01781,-0.01909,-0.00591*
1,1,0.01781,-0.01909,0.00591*
%
%ADD49ROUNDEDRECTD49*%
G04:AMPARAMS|DCode=50|XSize=57.18mil|YSize=41.43mil|CornerRadius=11.86mil|HoleSize=0mil|Usage=FLASHONLY|Rotation=270.000|XOffset=0mil|YOffset=0mil|HoleType=Round|Shape=RoundedRectangle|*
%AMROUNDEDRECTD50*
21,1,0.05718,0.01772,0,0,270.0*
21,1,0.03347,0.04143,0,0,270.0*
1,1,0.02372,-0.00886,-0.01673*
1,1,0.02372,-0.00886,0.01673*
1,1,0.02372,0.00886,0.01673*
1,1,0.02372,0.00886,-0.01673*
%
%ADD50ROUNDEDRECTD50*%
G04:AMPARAMS|DCode=51|XSize=26mil|YSize=26mil|CornerRadius=8mil|HoleSize=0mil|Usage=FLASHONLY|Rotation=180.000|XOffset=0mil|YOffset=0mil|HoleType=Round|Shape=RoundedRectangle|*
%AMROUNDEDRECTD51*
21,1,0.02600,0.01000,0,0,180.0*
21,1,0.01000,0.02600,0,0,180.0*
1,1,0.01600,-0.00500,0.00500*
1,1,0.01600,0.00500,0.00500*
1,1,0.01600,0.00500,-0.00500*
1,1,0.01600,-0.00500,-0.00500*
%
%ADD51ROUNDEDRECTD51*%
G04:AMPARAMS|DCode=52|XSize=52mil|YSize=20mil|CornerRadius=6.5mil|HoleSize=0mil|Usage=FLASHONLY|Rotation=0.000|XOffset=0mil|YOffset=0mil|HoleType=Round|Shape=RoundedRectangle|*
%AMROUNDEDRECTD52*
21,1,0.05200,0.00700,0,0,0.0*
21,1,0.03900,0.02000,0,0,0.0*
1,1,0.01300,0.01950,-0.00350*
1,1,0.01300,-0.01950,-0.00350*
1,1,0.01300,-0.01950,0.00350*
1,1,0.01300,0.01950,0.00350*
%
%ADD52ROUNDEDRECTD52*%
G04:AMPARAMS|DCode=53|XSize=36mil|YSize=28mil|CornerRadius=8.5mil|HoleSize=0mil|Usage=FLASHONLY|Rotation=90.000|XOffset=0mil|YOffset=0mil|HoleType=Round|Shape=RoundedRectangle|*
%AMROUNDEDRECTD53*
21,1,0.03600,0.01100,0,0,90.0*
21,1,0.01900,0.02800,0,0,90.0*
1,1,0.01700,0.00550,0.00950*
1,1,0.01700,0.00550,-0.00950*
1,1,0.01700,-0.00550,-0.00950*
1,1,0.01700,-0.00550,0.00950*
%
%ADD53ROUNDEDRECTD53*%
G04:AMPARAMS|DCode=54|XSize=81mil|YSize=76mil|CornerRadius=20.5mil|HoleSize=0mil|Usage=FLASHONLY|Rotation=90.000|XOffset=0mil|YOffset=0mil|HoleType=Round|Shape=RoundedRectangle|*
%AMROUNDEDRECTD54*
21,1,0.08100,0.03500,0,0,90.0*
21,1,0.04000,0.07600,0,0,90.0*
1,1,0.04100,0.01750,0.02000*
1,1,0.04100,0.01750,-0.02000*
1,1,0.04100,-0.01750,-0.02000*
1,1,0.04100,-0.01750,0.02000*
%
%ADD54ROUNDEDRECTD54*%
G04:AMPARAMS|DCode=55|XSize=36mil|YSize=46mil|CornerRadius=10.5mil|HoleSize=0mil|Usage=FLASHONLY|Rotation=180.000|XOffset=0mil|YOffset=0mil|HoleType=Round|Shape=RoundedRectangle|*
%AMROUNDEDRECTD55*
21,1,0.03600,0.02500,0,0,180.0*
21,1,0.01500,0.04600,0,0,180.0*
1,1,0.02100,-0.00750,0.01250*
1,1,0.02100,0.00750,0.01250*
1,1,0.02100,0.00750,-0.01250*
1,1,0.02100,-0.00750,-0.01250*
%
%ADD55ROUNDEDRECTD55*%
G04:AMPARAMS|DCode=56|XSize=36mil|YSize=36mil|CornerRadius=10.5mil|HoleSize=0mil|Usage=FLASHONLY|Rotation=180.000|XOffset=0mil|YOffset=0mil|HoleType=Round|Shape=RoundedRectangle|*
%AMROUNDEDRECTD56*
21,1,0.03600,0.01500,0,0,180.0*
21,1,0.01500,0.03600,0,0,180.0*
1,1,0.02100,-0.00750,0.00750*
1,1,0.02100,0.00750,0.00750*
1,1,0.02100,0.00750,-0.00750*
1,1,0.02100,-0.00750,-0.00750*
%
%ADD56ROUNDEDRECTD56*%
G04:AMPARAMS|DCode=57|XSize=36mil|YSize=46mil|CornerRadius=10.5mil|HoleSize=0mil|Usage=FLASHONLY|Rotation=270.000|XOffset=0mil|YOffset=0mil|HoleType=Round|Shape=RoundedRectangle|*
%AMROUNDEDRECTD57*
21,1,0.03600,0.02500,0,0,270.0*
21,1,0.01500,0.04600,0,0,270.0*
1,1,0.02100,-0.01250,-0.00750*
1,1,0.02100,-0.01250,0.00750*
1,1,0.02100,0.01250,0.00750*
1,1,0.02100,0.01250,-0.00750*
%
%ADD57ROUNDEDRECTD57*%
G04:AMPARAMS|DCode=58|XSize=36mil|YSize=36mil|CornerRadius=10.5mil|HoleSize=0mil|Usage=FLASHONLY|Rotation=270.000|XOffset=0mil|YOffset=0mil|HoleType=Round|Shape=RoundedRectangle|*
%AMROUNDEDRECTD58*
21,1,0.03600,0.01500,0,0,270.0*
21,1,0.01500,0.03600,0,0,270.0*
1,1,0.02100,-0.00750,-0.00750*
1,1,0.02100,-0.00750,0.00750*
1,1,0.02100,0.00750,0.00750*
1,1,0.02100,0.00750,-0.00750*
%
%ADD58ROUNDEDRECTD58*%
G04:AMPARAMS|DCode=59|XSize=45.37mil|YSize=76mil|CornerRadius=12.84mil|HoleSize=0mil|Usage=FLASHONLY|Rotation=270.000|XOffset=0mil|YOffset=0mil|HoleType=Round|Shape=RoundedRectangle|*
%AMROUNDEDRECTD59*
21,1,0.04537,0.05031,0,0,270.0*
21,1,0.01968,0.07600,0,0,270.0*
1,1,0.02568,-0.02516,-0.00984*
1,1,0.02568,-0.02516,0.00984*
1,1,0.02568,0.02516,0.00984*
1,1,0.02568,0.02516,-0.00984*
%
%ADD59ROUNDEDRECTD59*%
G04:AMPARAMS|DCode=60|XSize=112.3mil|YSize=116.24mil|CornerRadius=29.58mil|HoleSize=0mil|Usage=FLASHONLY|Rotation=0.000|XOffset=0mil|YOffset=0mil|HoleType=Round|Shape=RoundedRectangle|*
%AMROUNDEDRECTD60*
21,1,0.11230,0.05709,0,0,0.0*
21,1,0.05315,0.11624,0,0,0.0*
1,1,0.05915,0.02657,-0.02854*
1,1,0.05915,-0.02657,-0.02854*
1,1,0.05915,-0.02657,0.02854*
1,1,0.05915,0.02657,0.02854*
%
%ADD60ROUNDEDRECTD60*%
G04:AMPARAMS|DCode=61|XSize=17.81mil|YSize=29.62mil|CornerRadius=5.95mil|HoleSize=0mil|Usage=FLASHONLY|Rotation=90.000|XOffset=0mil|YOffset=0mil|HoleType=Round|Shape=RoundedRectangle|*
%AMROUNDEDRECTD61*
21,1,0.01781,0.01772,0,0,90.0*
21,1,0.00591,0.02962,0,0,90.0*
1,1,0.01191,0.00886,0.00295*
1,1,0.01191,0.00886,-0.00295*
1,1,0.01191,-0.00886,-0.00295*
1,1,0.01191,-0.00886,0.00295*
%
%ADD61ROUNDEDRECTD61*%
G04:AMPARAMS|DCode=62|XSize=17.81mil|YSize=29.62mil|CornerRadius=5.95mil|HoleSize=0mil|Usage=FLASHONLY|Rotation=180.000|XOffset=0mil|YOffset=0mil|HoleType=Round|Shape=RoundedRectangle|*
%AMROUNDEDRECTD62*
21,1,0.01781,0.01772,0,0,180.0*
21,1,0.00591,0.02962,0,0,180.0*
1,1,0.01191,-0.00295,0.00886*
1,1,0.01191,0.00295,0.00886*
1,1,0.01191,0.00295,-0.00886*
1,1,0.01191,-0.00295,-0.00886*
%
%ADD62ROUNDEDRECTD62*%
G04:AMPARAMS|DCode=63|XSize=56mil|YSize=16mil|CornerRadius=5.5mil|HoleSize=0mil|Usage=FLASHONLY|Rotation=0.000|XOffset=0mil|YOffset=0mil|HoleType=Round|Shape=RoundedRectangle|*
%AMROUNDEDRECTD63*
21,1,0.05600,0.00500,0,0,0.0*
21,1,0.04500,0.01600,0,0,0.0*
1,1,0.01100,0.02250,-0.00250*
1,1,0.01100,-0.02250,-0.00250*
1,1,0.01100,-0.02250,0.00250*
1,1,0.01100,0.02250,0.00250*
%
%ADD63ROUNDEDRECTD63*%
G04:AMPARAMS|DCode=64|XSize=92mil|YSize=78mil|CornerRadius=21mil|HoleSize=0mil|Usage=FLASHONLY|Rotation=180.000|XOffset=0mil|YOffset=0mil|HoleType=Round|Shape=RoundedRectangle|*
%AMROUNDEDRECTD64*
21,1,0.09200,0.03600,0,0,180.0*
21,1,0.05000,0.07800,0,0,180.0*
1,1,0.04200,-0.02500,0.01800*
1,1,0.04200,0.02500,0.01800*
1,1,0.04200,0.02500,-0.01800*
1,1,0.04200,-0.02500,-0.01800*
%
%ADD64ROUNDEDRECTD64*%
G04:AMPARAMS|DCode=65|XSize=76mil|YSize=78mil|CornerRadius=20.5mil|HoleSize=0mil|Usage=FLASHONLY|Rotation=180.000|XOffset=0mil|YOffset=0mil|HoleType=Round|Shape=RoundedRectangle|*
%AMROUNDEDRECTD65*
21,1,0.07600,0.03700,0,0,180.0*
21,1,0.03500,0.07800,0,0,180.0*
1,1,0.04100,-0.01750,0.01850*
1,1,0.04100,0.01750,0.01850*
1,1,0.04100,0.01750,-0.01850*
1,1,0.04100,-0.01750,-0.01850*
%
%ADD65ROUNDEDRECTD65*%
%ADD66C,0.00600*%
%ADD67O,0.03750X0.12411*%
D42*
X-2115Y131232D02*
D03*
D43*
X83500Y124000D02*
D03*
X77595D02*
D03*
X95311D02*
D03*
X89406D02*
D03*
X71689D02*
D03*
X65784D02*
D03*
D44*
X101811Y139142D02*
D03*
X59284D02*
D03*
D45*
X-8300Y46400D02*
D03*
X7300D02*
D03*
D46*
X152600Y68500D02*
D03*
D47*
X71600D02*
D03*
D48*
X8700Y55400D02*
D03*
X4700D02*
D03*
X18800Y26200D02*
D03*
X14800D02*
D03*
X18800Y30200D02*
D03*
X14800D02*
D03*
X47000Y102400D02*
D03*
X43000D02*
D03*
X43250Y77900D02*
D03*
X47250D02*
D03*
X12800Y131300D02*
D03*
X16800D02*
D03*
X12800Y145700D02*
D03*
X16800D02*
D03*
X6200Y133900D02*
D03*
X2200D02*
D03*
X43000Y106500D02*
D03*
X47000D02*
D03*
X43000Y98300D02*
D03*
X47000D02*
D03*
X43250Y74220D02*
D03*
X47250D02*
D03*
X43250Y70540D02*
D03*
X47250D02*
D03*
X43250Y66860D02*
D03*
X47250D02*
D03*
X43250Y63180D02*
D03*
X47250D02*
D03*
X43250Y59500D02*
D03*
X47250D02*
D03*
D49*
X35906Y30200D02*
D03*
X26094Y26460D02*
D03*
Y33940D02*
D03*
D50*
X6134Y26600D02*
D03*
X-2134D02*
D03*
D51*
X-8400Y29300D02*
D03*
Y25300D02*
D03*
X-8300Y37100D02*
D03*
Y33100D02*
D03*
X16600Y142300D02*
D03*
Y138300D02*
D03*
X13000Y142300D02*
D03*
Y138300D02*
D03*
D52*
X-2000Y37900D02*
D03*
Y35300D02*
D03*
Y32700D02*
D03*
X6200D02*
D03*
Y35300D02*
D03*
Y37900D02*
D03*
D53*
X27600Y40100D02*
D03*
X33600D02*
D03*
D54*
X17100Y46628D02*
D03*
Y37572D02*
D03*
D55*
X23800Y46900D02*
D03*
D56*
X37800D02*
D03*
D57*
X4000Y91000D02*
D03*
Y72500D02*
D03*
Y86500D02*
D03*
D58*
Y105000D02*
D03*
D59*
X-7200Y85226D02*
D03*
Y77352D02*
D03*
Y93100D02*
D03*
Y100974D02*
D03*
D60*
X32100Y138200D02*
D03*
D61*
X22100Y131200D02*
D03*
Y133200D02*
D03*
Y135200D02*
D03*
Y137200D02*
D03*
Y139200D02*
D03*
Y141200D02*
D03*
Y145200D02*
D03*
Y143200D02*
D03*
X42000Y145200D02*
D03*
Y143200D02*
D03*
Y141200D02*
D03*
Y139200D02*
D03*
Y137200D02*
D03*
Y135200D02*
D03*
Y131200D02*
D03*
Y133200D02*
D03*
D62*
X39100Y128200D02*
D03*
X37100D02*
D03*
X35100D02*
D03*
X33100D02*
D03*
X31100D02*
D03*
X29100D02*
D03*
X25100D02*
D03*
X27100D02*
D03*
X39100Y148200D02*
D03*
X37100D02*
D03*
X35100D02*
D03*
X33100D02*
D03*
X31100D02*
D03*
X29100D02*
D03*
X25100D02*
D03*
X27100D02*
D03*
D63*
X36898Y65362D02*
D03*
Y67331D02*
D03*
Y69299D02*
D03*
Y71268D02*
D03*
Y73236D02*
D03*
Y75205D02*
D03*
Y77173D02*
D03*
Y79142D02*
D03*
Y81110D02*
D03*
Y83079D02*
D03*
Y85047D02*
D03*
Y87016D02*
D03*
Y88984D02*
D03*
Y90953D02*
D03*
Y92921D02*
D03*
Y94890D02*
D03*
Y96858D02*
D03*
Y98827D02*
D03*
Y100795D02*
D03*
Y102764D02*
D03*
Y104732D02*
D03*
Y106701D02*
D03*
Y108669D02*
D03*
Y110638D02*
D03*
D64*
X24500Y57500D02*
D03*
D65*
Y118500D02*
D03*
D66*
X-500Y42900D02*
D03*
Y49900D02*
D03*
D67*
X92000Y76500D02*
D03*
X116800D02*
D03*
Y98300D02*
D03*
X92000D02*
D03*
M02*
